  0
SECTION
  2
HEADER
  9
$ANGBASE
  50
0.0
  9
$ANGDIR
  70
  1
  9
$MEASUREMENT
  70
0
  0
ENDSEC
  0
SECTION
  2
TABLES
  0
TABLE
  2
LTYPE
  70
1
  0
LTYPE
  2
CONTINUOUS
  70
0
  3
Solid line
  72
65
  73
0
  40
0.0
  0
ENDTAB
  0
TABLE
  2
STYLE
  70
4
  0
STYLE
  2
KICAD
  70
0
  40
0
  41
1
  42
1
  50
0
  71
0
  3
isocp.shx
  0
STYLE
  2
KICADB
  70
0
  40
0
  41
1
  42
1
  50
0
  71
0
  3
isocp.shx
  0
STYLE
  2
KICADI
  70
0
  40
0
  41
1
  42
1
  50
15
  71
0
  3
isocp.shx
  0
STYLE
  2
KICADBI
  70
0
  40
0
  41
1
  42
1
  50
15
  71
0
  3
isocp.shx
  0
ENDTAB
  0
TABLE
  2
LAYER
  70
30
  0
LAYER
  2
BLACK
  70
0
  62
7
  6
CONTINUOUS
  0
LAYER
  2
GRAY1
  70
0
  62
251
  6
CONTINUOUS
  0
LAYER
  2
GRAY2
  70
0
  62
8
  6
CONTINUOUS
  0
LAYER
  2
GRAY3
  70
0
  62
9
  6
CONTINUOUS
  0
LAYER
  2
WHITE
  70
0
  62
7
  6
CONTINUOUS
  0
LAYER
  2
LYELLOW
  70
0
  62
51
  6
CONTINUOUS
  0
LAYER
  2
BLUE1
  70
0
  62
178
  6
CONTINUOUS
  0
LAYER
  2
GREEN1
  70
0
  62
98
  6
CONTINUOUS
  0
LAYER
  2
CYAN1
  70
0
  62
138
  6
CONTINUOUS
  0
LAYER
  2
RED1
  70
0
  62
18
  6
CONTINUOUS
  0
LAYER
  2
MAGENTA1
  70
0
  62
228
  6
CONTINUOUS
  0
LAYER
  2
BROWN1
  70
0
  62
58
  6
CONTINUOUS
  0
LAYER
  2
BLUE2
  70
0
  62
5
  6
CONTINUOUS
  0
LAYER
  2
GREEN2
  70
0
  62
3
  6
CONTINUOUS
  0
LAYER
  2
CYAN2
  70
0
  62
4
  6
CONTINUOUS
  0
LAYER
  2
RED2
  70
0
  62
1
  6
CONTINUOUS
  0
LAYER
  2
MAGENTA2
  70
0
  62
6
  6
CONTINUOUS
  0
LAYER
  2
BROWN2
  70
0
  62
54
  6
CONTINUOUS
  0
LAYER
  2
BLUE3
  70
0
  62
171
  6
CONTINUOUS
  0
LAYER
  2
GREEN3
  70
0
  62
91
  6
CONTINUOUS
  0
LAYER
  2
CYAN3
  70
0
  62
131
  6
CONTINUOUS
  0
LAYER
  2
RED3
  70
0
  62
11
  6
CONTINUOUS
  0
LAYER
  2
MAGENTA3
  70
0
  62
221
  6
CONTINUOUS
  0
LAYER
  2
YELLOW3
  70
0
  62
2
  6
CONTINUOUS
  0
LAYER
  2
BLUE4
  70
0
  62
5
  6
CONTINUOUS
  0
LAYER
  2
GREEN4
  70
0
  62
3
  6
CONTINUOUS
  0
LAYER
  2
CYAN4
  70
0
  62
4
  6
CONTINUOUS
  0
LAYER
  2
RED4
  70
0
  62
1
  6
CONTINUOUS
  0
LAYER
  2
MAGENTA4
  70
0
  62
6
  6
CONTINUOUS
  0
LAYER
  2
YELLOW4
  70
0
  62
2
  6
CONTINUOUS
  0
ENDTAB
  0
ENDSEC
  0
SECTION
  2
ENTITIES
0
LINE
8
rgb(0, 0, 0)
10
126.65
20
-86.75
11
125.65
21
-86.75
0
LINE
8
rgb(0, 0, 0)
10
125.65
20
-86.75
11
125.65
21
-86.15
0
LINE
8
rgb(0, 0, 0)
10
125.65
20
-86.15
11
126.65
21
-86.15
0
LINE
8
rgb(0, 0, 0)
10
126.65
20
-86.15
11
126.65
21
-86.75
0
LINE
8
rgb(0, 0, 0)
10
106.5
20
-86.75
11
105.5
21
-86.75
0
LINE
8
rgb(0, 0, 0)
10
105.5
20
-86.75
11
105.5
21
-86.15
0
LINE
8
rgb(0, 0, 0)
10
105.5
20
-86.15
11
106.5
21
-86.15
0
LINE
8
rgb(0, 0, 0)
10
106.5
20
-86.15
11
106.5
21
-86.75
0
LINE
8
rgb(0, 0, 0)
10
146.5
20
-86.25
11
145.5
21
-86.25
0
LINE
8
rgb(0, 0, 0)
10
145.5
20
-86.25
11
145.5
21
-85.65
0
LINE
8
rgb(0, 0, 0)
10
145.5
20
-85.65
11
146.5
21
-85.65
0
LINE
8
rgb(0, 0, 0)
10
146.5
20
-85.65
11
146.5
21
-86.25
0
LINE
8
rgb(0, 0, 0)
10
104.2
20
-85.8
11
103.2
21
-85.8
0
LINE
8
rgb(0, 0, 0)
10
103.2
20
-85.8
11
103.2
21
-85.2
0
LINE
8
rgb(0, 0, 0)
10
103.2
20
-85.2
11
104.2
21
-85.2
0
LINE
8
rgb(0, 0, 0)
10
104.2
20
-85.2
11
104.2
21
-85.8
0
LINE
8
rgb(0, 0, 0)
10
124.35
20
-85.8
11
123.35
21
-85.8
0
LINE
8
rgb(0, 0, 0)
10
123.35
20
-85.8
11
123.35
21
-85.2
0
LINE
8
rgb(0, 0, 0)
10
123.35
20
-85.2
11
124.35
21
-85.2
0
LINE
8
rgb(0, 0, 0)
10
124.35
20
-85.2
11
124.35
21
-85.8
0
LINE
8
rgb(0, 0, 0)
10
144.2
20
-85.3
11
143.2
21
-85.3
0
LINE
8
rgb(0, 0, 0)
10
143.2
20
-85.3
11
143.2
21
-84.7
0
LINE
8
rgb(0, 0, 0)
10
143.2
20
-84.7
11
144.2
21
-84.7
0
LINE
8
rgb(0, 0, 0)
10
144.2
20
-84.7
11
144.2
21
-85.3
0
LINE
8
rgb(0, 0, 0)
10
86.95
20
-84.85
11
85.95
21
-84.85
0
LINE
8
rgb(0, 0, 0)
10
85.95
20
-84.85
11
85.95
21
-84.25
0
LINE
8
rgb(0, 0, 0)
10
85.95
20
-84.25
11
86.95
21
-84.25
0
LINE
8
rgb(0, 0, 0)
10
86.95
20
-84.25
11
86.95
21
-84.85
0
LINE
8
rgb(0, 0, 0)
10
126.65
20
-84.85
11
125.65
21
-84.85
0
LINE
8
rgb(0, 0, 0)
10
125.65
20
-84.85
11
125.65
21
-84.25
0
LINE
8
rgb(0, 0, 0)
10
125.65
20
-84.25
11
126.65
21
-84.25
0
LINE
8
rgb(0, 0, 0)
10
126.65
20
-84.25
11
126.65
21
-84.85
0
LINE
8
rgb(0, 0, 0)
10
106.5
20
-84.85
11
105.5
21
-84.85
0
LINE
8
rgb(0, 0, 0)
10
105.5
20
-84.85
11
105.5
21
-84.25
0
LINE
8
rgb(0, 0, 0)
10
105.5
20
-84.25
11
106.5
21
-84.25
0
LINE
8
rgb(0, 0, 0)
10
106.5
20
-84.25
11
106.5
21
-84.85
0
LINE
8
rgb(0, 0, 0)
10
91.9
20
-84.675
11
90.9
21
-84.675
0
LINE
8
rgb(0, 0, 0)
10
90.9
20
-84.675
11
90.9
21
-83.725
0
LINE
8
rgb(0, 0, 0)
10
90.9
20
-83.725
11
91.9
21
-83.725
0
LINE
8
rgb(0, 0, 0)
10
91.9
20
-83.725
11
91.9
21
-84.675
0
LINE
8
rgb(0, 0, 0)
10
90.4
20
-84.675
11
89.4
21
-84.675
0
LINE
8
rgb(0, 0, 0)
10
89.4
20
-84.675
11
89.4
21
-83.725
0
LINE
8
rgb(0, 0, 0)
10
89.4
20
-83.725
11
90.4
21
-83.725
0
LINE
8
rgb(0, 0, 0)
10
90.4
20
-83.725
11
90.4
21
-84.675
0
LINE
8
rgb(0, 0, 0)
10
88.9
20
-84.675
11
87.9
21
-84.675
0
LINE
8
rgb(0, 0, 0)
10
87.9
20
-84.675
11
87.9
21
-83.725
0
LINE
8
rgb(0, 0, 0)
10
87.9
20
-83.725
11
88.9
21
-83.725
0
LINE
8
rgb(0, 0, 0)
10
88.9
20
-83.725
11
88.9
21
-84.675
0
LINE
8
rgb(0, 0, 0)
10
146.5
20
-84.35
11
145.5
21
-84.35
0
LINE
8
rgb(0, 0, 0)
10
145.5
20
-84.35
11
145.5
21
-83.75
0
LINE
8
rgb(0, 0, 0)
10
145.5
20
-83.75
11
146.5
21
-83.75
0
LINE
8
rgb(0, 0, 0)
10
146.5
20
-83.75
11
146.5
21
-84.35
0
LINE
8
rgb(0, 0, 0)
10
84.65
20
-83.9
11
83.65
21
-83.9
0
LINE
8
rgb(0, 0, 0)
10
83.65
20
-83.9
11
83.65
21
-83.3
0
LINE
8
rgb(0, 0, 0)
10
83.65
20
-83.3
11
84.65
21
-83.3
0
LINE
8
rgb(0, 0, 0)
10
84.65
20
-83.3
11
84.65
21
-83.9
0
LINE
8
rgb(0, 0, 0)
10
154.325
20
-83.125
11
153.025
21
-83.125
0
LINE
8
rgb(0, 0, 0)
10
153.025
20
-83.125
11
153.025
21
-82.15
0
LINE
8
rgb(0, 0, 0)
10
153.025
20
-82.15
11
154.325
21
-82.15
0
LINE
8
rgb(0, 0, 0)
10
154.325
20
-82.15
11
154.325
21
-83.125
0
LINE
8
rgb(0, 0, 0)
10
88.9
20
-83.075
11
87.9
21
-83.075
0
LINE
8
rgb(0, 0, 0)
10
87.9
20
-83.075
11
87.9
21
-82.125
0
LINE
8
rgb(0, 0, 0)
10
87.9
20
-82.125
11
88.9
21
-82.125
0
LINE
8
rgb(0, 0, 0)
10
88.9
20
-82.125
11
88.9
21
-83.075
0
LINE
8
rgb(0, 0, 0)
10
90.4
20
-83.075
11
89.4
21
-83.075
0
LINE
8
rgb(0, 0, 0)
10
89.4
20
-83.075
11
89.4
21
-82.125
0
LINE
8
rgb(0, 0, 0)
10
89.4
20
-82.125
11
90.4
21
-82.125
0
LINE
8
rgb(0, 0, 0)
10
90.4
20
-82.125
11
90.4
21
-83.075
0
LINE
8
rgb(0, 0, 0)
10
91.9
20
-83.075
11
90.9
21
-83.075
0
LINE
8
rgb(0, 0, 0)
10
90.9
20
-83.075
11
90.9
21
-82.125
0
LINE
8
rgb(0, 0, 0)
10
90.9
20
-82.125
11
91.9
21
-82.125
0
LINE
8
rgb(0, 0, 0)
10
91.9
20
-82.125
11
91.9
21
-83.075
0
LINE
8
rgb(0, 0, 0)
10
86.95
20
-82.95
11
85.95
21
-82.95
0
LINE
8
rgb(0, 0, 0)
10
85.95
20
-82.95
11
85.95
21
-82.35
0
LINE
8
rgb(0, 0, 0)
10
85.95
20
-82.35
11
86.95
21
-82.35
0
LINE
8
rgb(0, 0, 0)
10
86.95
20
-82.35
11
86.95
21
-82.95
0
LINE
8
rgb(0, 0, 0)
10
83.4
20
-82.375
11
82.4
21
-82.375
0
LINE
8
rgb(0, 0, 0)
10
82.4
20
-82.375
11
82.4
21
-81.425
0
LINE
8
rgb(0, 0, 0)
10
82.4
20
-81.425
11
83.4
21
-81.425
0
LINE
8
rgb(0, 0, 0)
10
83.4
20
-81.425
11
83.4
21
-82.375
0
LINE
8
rgb(0, 0, 0)
10
154.375
20
-81.05
11
152.975
21
-81.05
0
LINE
8
rgb(0, 0, 0)
10
152.975
20
-81.05
11
152.975
21
-79.75
0
LINE
8
rgb(0, 0, 0)
10
152.975
20
-79.75
11
154.375
21
-79.75
0
LINE
8
rgb(0, 0, 0)
10
154.375
20
-79.75
11
154.375
21
-81.05
0
LINE
8
rgb(0, 0, 0)
10
144.275
20
-81
11
143.325
21
-81
0
LINE
8
rgb(0, 0, 0)
10
143.325
20
-81
11
143.325
21
-80
0
LINE
8
rgb(0, 0, 0)
10
143.325
20
-80
11
144.275
21
-80
0
LINE
8
rgb(0, 0, 0)
10
144.275
20
-80
11
144.275
21
-81
0
LINE
8
rgb(0, 0, 0)
10
142.675
20
-81
11
141.725
21
-81
0
LINE
8
rgb(0, 0, 0)
10
141.725
20
-81
11
141.725
21
-80
0
LINE
8
rgb(0, 0, 0)
10
141.725
20
-80
11
142.675
21
-80
0
LINE
8
rgb(0, 0, 0)
10
142.675
20
-80
11
142.675
21
-81
0
LINE
8
rgb(0, 0, 0)
10
145.925
20
-81
11
144.975
21
-81
0
LINE
8
rgb(0, 0, 0)
10
144.975
20
-81
11
144.975
21
-80
0
LINE
8
rgb(0, 0, 0)
10
144.975
20
-80
11
145.925
21
-80
0
LINE
8
rgb(0, 0, 0)
10
145.925
20
-80
11
145.925
21
-81
0
LINE
8
rgb(0, 0, 0)
10
147.525
20
-81
11
146.575
21
-81
0
LINE
8
rgb(0, 0, 0)
10
146.575
20
-81
11
146.575
21
-80
0
LINE
8
rgb(0, 0, 0)
10
146.575
20
-80
11
147.525
21
-80
0
LINE
8
rgb(0, 0, 0)
10
147.525
20
-80
11
147.525
21
-81
0
LINE
8
rgb(0, 0, 0)
10
96.9
20
-80.975
11
95.9
21
-80.975
0
LINE
8
rgb(0, 0, 0)
10
95.9
20
-80.975
11
95.9
21
-80.025
0
LINE
8
rgb(0, 0, 0)
10
95.9
20
-80.025
11
96.9
21
-80.025
0
LINE
8
rgb(0, 0, 0)
10
96.9
20
-80.025
11
96.9
21
-80.975
0
LINE
8
rgb(0, 0, 0)
10
98.4
20
-80.975
11
97.4
21
-80.975
0
LINE
8
rgb(0, 0, 0)
10
97.4
20
-80.975
11
97.4
21
-80.025
0
LINE
8
rgb(0, 0, 0)
10
97.4
20
-80.025
11
98.4
21
-80.025
0
LINE
8
rgb(0, 0, 0)
10
98.4
20
-80.025
11
98.4
21
-80.975
0
LINE
8
rgb(0, 0, 0)
10
83.4
20
-80.775
11
82.4
21
-80.775
0
LINE
8
rgb(0, 0, 0)
10
82.4
20
-80.775
11
82.4
21
-79.825
0
LINE
8
rgb(0, 0, 0)
10
82.4
20
-79.825
11
83.4
21
-79.825
0
LINE
8
rgb(0, 0, 0)
10
83.4
20
-79.825
11
83.4
21
-80.775
0
LINE
8
rgb(0, 0, 0)
10
151.675
20
-80.75
11
150.325
21
-80.75
0
LINE
8
rgb(0, 0, 0)
10
150.325
20
-80.75
11
150.325
21
-80.35
0
LINE
8
rgb(0, 0, 0)
10
150.325
20
-80.35
11
151.675
21
-80.35
0
LINE
8
rgb(0, 0, 0)
10
151.675
20
-80.35
11
151.675
21
-80.75
0
LINE
8
rgb(0, 0, 0)
10
93.3
20
-80.55
11
92.8
21
-80.55
0
LINE
8
rgb(0, 0, 0)
10
92.8
20
-80.55
11
92.8
21
-79.35
0
LINE
8
rgb(0, 0, 0)
10
92.8
20
-79.35
11
93.3
21
-79.35
0
LINE
8
rgb(0, 0, 0)
10
93.3
20
-79.35
11
93.3
21
-80.55
0
LINE
8
rgb(0, 0, 0)
10
92.5
20
-80.55
11
92
21
-80.55
0
LINE
8
rgb(0, 0, 0)
10
92
20
-80.55
11
92
21
-79.35
0
LINE
8
rgb(0, 0, 0)
10
92
20
-79.35
11
92.5
21
-79.35
0
LINE
8
rgb(0, 0, 0)
10
92.5
20
-79.35
11
92.5
21
-80.55
0
LINE
8
rgb(0, 0, 0)
10
91.7
20
-80.55
11
91.2
21
-80.55
0
LINE
8
rgb(0, 0, 0)
10
91.2
20
-80.55
11
91.2
21
-79.35
0
LINE
8
rgb(0, 0, 0)
10
91.2
20
-79.35
11
91.7
21
-79.35
0
LINE
8
rgb(0, 0, 0)
10
91.7
20
-79.35
11
91.7
21
-80.55
0
LINE
8
rgb(0, 0, 0)
10
90.9
20
-80.55
11
90.4
21
-80.55
0
LINE
8
rgb(0, 0, 0)
10
90.4
20
-80.55
11
90.4
21
-79.35
0
LINE
8
rgb(0, 0, 0)
10
90.4
20
-79.35
11
90.9
21
-79.35
0
LINE
8
rgb(0, 0, 0)
10
90.9
20
-79.35
11
90.9
21
-80.55
0
LINE
8
rgb(0, 0, 0)
10
90.1
20
-80.55
11
89.6
21
-80.55
0
LINE
8
rgb(0, 0, 0)
10
89.6
20
-80.55
11
89.6
21
-79.35
0
LINE
8
rgb(0, 0, 0)
10
89.6
20
-79.35
11
90.1
21
-79.35
0
LINE
8
rgb(0, 0, 0)
10
90.1
20
-79.35
11
90.1
21
-80.55
0
LINE
8
rgb(0, 0, 0)
10
89.3
20
-80.55
11
88.8
21
-80.55
0
LINE
8
rgb(0, 0, 0)
10
88.8
20
-80.55
11
88.8
21
-79.35
0
LINE
8
rgb(0, 0, 0)
10
88.8
20
-79.35
11
89.3
21
-79.35
0
LINE
8
rgb(0, 0, 0)
10
89.3
20
-79.35
11
89.3
21
-80.55
0
LINE
8
rgb(0, 0, 0)
10
88.5
20
-80.55
11
88
21
-80.55
0
LINE
8
rgb(0, 0, 0)
10
88
20
-80.55
11
88
21
-79.35
0
LINE
8
rgb(0, 0, 0)
10
88
20
-79.35
11
88.5
21
-79.35
0
LINE
8
rgb(0, 0, 0)
10
88.5
20
-79.35
11
88.5
21
-80.55
0
LINE
8
rgb(0, 0, 0)
10
87.7
20
-80.55
11
87.2
21
-80.55
0
LINE
8
rgb(0, 0, 0)
10
87.2
20
-80.55
11
87.2
21
-79.35
0
LINE
8
rgb(0, 0, 0)
10
87.2
20
-79.35
11
87.7
21
-79.35
0
LINE
8
rgb(0, 0, 0)
10
87.7
20
-79.35
11
87.7
21
-80.55
0
LINE
8
rgb(0, 0, 0)
10
151.675
20
-80.1
11
150.325
21
-80.1
0
LINE
8
rgb(0, 0, 0)
10
150.325
20
-80.1
11
150.325
21
-79.7
0
LINE
8
rgb(0, 0, 0)
10
150.325
20
-79.7
11
151.675
21
-79.7
0
LINE
8
rgb(0, 0, 0)
10
151.675
20
-79.7
11
151.675
21
-80.1
0
LINE
8
rgb(0, 0, 0)
10
151.675
20
-79.45
11
150.325
21
-79.45
0
LINE
8
rgb(0, 0, 0)
10
150.325
20
-79.45
11
150.325
21
-79.05
0
LINE
8
rgb(0, 0, 0)
10
150.325
20
-79.05
11
151.675
21
-79.05
0
LINE
8
rgb(0, 0, 0)
10
151.675
20
-79.05
11
151.675
21
-79.45
0
LINE
8
rgb(0, 0, 0)
10
96.9
20
-79.375
11
95.9
21
-79.375
0
LINE
8
rgb(0, 0, 0)
10
95.9
20
-79.375
11
95.9
21
-78.425
0
LINE
8
rgb(0, 0, 0)
10
95.9
20
-78.425
11
96.9
21
-78.425
0
LINE
8
rgb(0, 0, 0)
10
96.9
20
-78.425
11
96.9
21
-79.375
0
LINE
8
rgb(0, 0, 0)
10
98.4
20
-79.375
11
97.4
21
-79.375
0
LINE
8
rgb(0, 0, 0)
10
97.4
20
-79.375
11
97.4
21
-78.425
0
LINE
8
rgb(0, 0, 0)
10
97.4
20
-78.425
11
98.4
21
-78.425
0
LINE
8
rgb(0, 0, 0)
10
98.4
20
-78.425
11
98.4
21
-79.375
0
LINE
8
rgb(0, 0, 0)
10
142.85
20
-79.3
11
141.55
21
-79.3
0
LINE
8
rgb(0, 0, 0)
10
141.55
20
-79.3
11
141.55
21
-76.9
0
LINE
8
rgb(0, 0, 0)
10
141.55
20
-76.9
11
142.85
21
-76.9
0
LINE
8
rgb(0, 0, 0)
10
142.85
20
-76.9
11
142.85
21
-79.3
0
LINE
8
rgb(0, 0, 0)
10
145.15
20
-79.3
11
143.85
21
-79.3
0
LINE
8
rgb(0, 0, 0)
10
143.85
20
-79.3
11
143.85
21
-76.9
0
LINE
8
rgb(0, 0, 0)
10
143.85
20
-76.9
11
145.15
21
-76.9
0
LINE
8
rgb(0, 0, 0)
10
145.15
20
-76.9
11
145.15
21
-79.3
0
LINE
8
rgb(0, 0, 0)
10
147.45
20
-79.3
11
146.15
21
-79.3
0
LINE
8
rgb(0, 0, 0)
10
146.15
20
-79.3
11
146.15
21
-76.9
0
LINE
8
rgb(0, 0, 0)
10
146.15
20
-76.9
11
147.45
21
-76.9
0
LINE
8
rgb(0, 0, 0)
10
147.45
20
-76.9
11
147.45
21
-79.3
0
LINE
8
rgb(0, 0, 0)
10
86.65
20
-78.8
11
85.45
21
-78.8
0
LINE
8
rgb(0, 0, 0)
10
85.45
20
-78.8
11
85.45
21
-78.3
0
LINE
8
rgb(0, 0, 0)
10
85.45
20
-78.3
11
86.65
21
-78.3
0
LINE
8
rgb(0, 0, 0)
10
86.65
20
-78.3
11
86.65
21
-78.8
0
LINE
8
rgb(0, 0, 0)
10
151.675
20
-78.8
11
150.325
21
-78.8
0
LINE
8
rgb(0, 0, 0)
10
150.325
20
-78.8
11
150.325
21
-78.4
0
LINE
8
rgb(0, 0, 0)
10
150.325
20
-78.4
11
151.675
21
-78.4
0
LINE
8
rgb(0, 0, 0)
10
151.675
20
-78.4
11
151.675
21
-78.8
0
LINE
8
rgb(0, 0, 0)
10
95.05
20
-78.8
11
93.85
21
-78.8
0
LINE
8
rgb(0, 0, 0)
10
93.85
20
-78.8
11
93.85
21
-78.3
0
LINE
8
rgb(0, 0, 0)
10
93.85
20
-78.3
11
95.05
21
-78.3
0
LINE
8
rgb(0, 0, 0)
10
95.05
20
-78.3
11
95.05
21
-78.8
0
LINE
8
rgb(0, 0, 0)
10
154.375
20
-78.75
11
152.975
21
-78.75
0
LINE
8
rgb(0, 0, 0)
10
152.975
20
-78.75
11
152.975
21
-77.45
0
LINE
8
rgb(0, 0, 0)
10
152.975
20
-77.45
11
154.375
21
-77.45
0
LINE
8
rgb(0, 0, 0)
10
154.375
20
-77.45
11
154.375
21
-78.75
0
LINE
8
rgb(0, 0, 0)
10
115.25
20
-78.625
11
114.25
21
-78.625
0
LINE
8
rgb(0, 0, 0)
10
114.25
20
-78.625
11
114.25
21
-77.675
0
LINE
8
rgb(0, 0, 0)
10
114.25
20
-77.675
11
115.25
21
-77.675
0
LINE
8
rgb(0, 0, 0)
10
115.25
20
-77.675
11
115.25
21
-78.625
0
LINE
8
rgb(0, 0, 0)
10
103.675
20
-78.5
11
102.725
21
-78.5
0
LINE
8
rgb(0, 0, 0)
10
102.725
20
-78.5
11
102.725
21
-77.5
0
LINE
8
rgb(0, 0, 0)
10
102.725
20
-77.5
11
103.675
21
-77.5
0
LINE
8
rgb(0, 0, 0)
10
103.675
20
-77.5
11
103.675
21
-78.5
0
LINE
8
rgb(0, 0, 0)
10
105.275
20
-78.5
11
104.325
21
-78.5
0
LINE
8
rgb(0, 0, 0)
10
104.325
20
-78.5
11
104.325
21
-77.5
0
LINE
8
rgb(0, 0, 0)
10
104.325
20
-77.5
11
105.275
21
-77.5
0
LINE
8
rgb(0, 0, 0)
10
105.275
20
-77.5
11
105.275
21
-78.5
0
LINE
8
rgb(0, 0, 0)
10
113.225
20
-78.305
11
111.675
21
-78.305
0
LINE
8
rgb(0, 0, 0)
10
111.675
20
-78.305
11
111.675
21
-77.705
0
LINE
8
rgb(0, 0, 0)
10
111.675
20
-77.705
11
113.225
21
-77.705
0
LINE
8
rgb(0, 0, 0)
10
113.225
20
-77.705
11
113.225
21
-78.305
0
LINE
8
rgb(0, 0, 0)
10
107.825
20
-78.305
11
106.275
21
-78.305
0
LINE
8
rgb(0, 0, 0)
10
106.275
20
-78.305
11
106.275
21
-77.705
0
LINE
8
rgb(0, 0, 0)
10
106.275
20
-77.705
11
107.825
21
-77.705
0
LINE
8
rgb(0, 0, 0)
10
107.825
20
-77.705
11
107.825
21
-78.305
0
LINE
8
rgb(0, 0, 0)
10
151.675
20
-78.15
11
150.325
21
-78.15
0
LINE
8
rgb(0, 0, 0)
10
150.325
20
-78.15
11
150.325
21
-77.75
0
LINE
8
rgb(0, 0, 0)
10
150.325
20
-77.75
11
151.675
21
-77.75
0
LINE
8
rgb(0, 0, 0)
10
151.675
20
-77.75
11
151.675
21
-78.15
0
LINE
8
rgb(0, 0, 0)
10
86.65
20
-78
11
85.45
21
-78
0
LINE
8
rgb(0, 0, 0)
10
85.45
20
-78
11
85.45
21
-77.5
0
LINE
8
rgb(0, 0, 0)
10
85.45
20
-77.5
11
86.65
21
-77.5
0
LINE
8
rgb(0, 0, 0)
10
86.65
20
-77.5
11
86.65
21
-78
0
LINE
8
rgb(0, 0, 0)
10
95.05
20
-78
11
93.85
21
-78
0
LINE
8
rgb(0, 0, 0)
10
93.85
20
-78
11
93.85
21
-77.5
0
LINE
8
rgb(0, 0, 0)
10
93.85
20
-77.5
11
95.05
21
-77.5
0
LINE
8
rgb(0, 0, 0)
10
95.05
20
-77.5
11
95.05
21
-78
0
LINE
8
rgb(0, 0, 0)
10
86.65
20
-77.2
11
85.45
21
-77.2
0
LINE
8
rgb(0, 0, 0)
10
85.45
20
-77.2
11
85.45
21
-76.7
0
LINE
8
rgb(0, 0, 0)
10
85.45
20
-76.7
11
86.65
21
-76.7
0
LINE
8
rgb(0, 0, 0)
10
86.65
20
-76.7
11
86.65
21
-77.2
0
LINE
8
rgb(0, 0, 0)
10
95.05
20
-77.2
11
93.85
21
-77.2
0
LINE
8
rgb(0, 0, 0)
10
93.85
20
-77.2
11
93.85
21
-76.7
0
LINE
8
rgb(0, 0, 0)
10
93.85
20
-76.7
11
95.05
21
-76.7
0
LINE
8
rgb(0, 0, 0)
10
95.05
20
-76.7
11
95.05
21
-77.2
0
LINE
8
rgb(0, 0, 0)
10
113.225
20
-77.035
11
111.675
21
-77.035
0
LINE
8
rgb(0, 0, 0)
10
111.675
20
-77.035
11
111.675
21
-76.435
0
LINE
8
rgb(0, 0, 0)
10
111.675
20
-76.435
11
113.225
21
-76.435
0
LINE
8
rgb(0, 0, 0)
10
113.225
20
-76.435
11
113.225
21
-77.035
0
LINE
8
rgb(0, 0, 0)
10
107.825
20
-77.035
11
106.275
21
-77.035
0
LINE
8
rgb(0, 0, 0)
10
106.275
20
-77.035
11
106.275
21
-76.435
0
LINE
8
rgb(0, 0, 0)
10
106.275
20
-76.435
11
107.825
21
-76.435
0
LINE
8
rgb(0, 0, 0)
10
107.825
20
-76.435
11
107.825
21
-77.035
0
LINE
8
rgb(0, 0, 0)
10
115.25
20
-77.025
11
114.25
21
-77.025
0
LINE
8
rgb(0, 0, 0)
10
114.25
20
-77.025
11
114.25
21
-76.075
0
LINE
8
rgb(0, 0, 0)
10
114.25
20
-76.075
11
115.25
21
-76.075
0
LINE
8
rgb(0, 0, 0)
10
115.25
20
-76.075
11
115.25
21
-77.025
0
LINE
8
rgb(0, 0, 0)
10
103.675
20
-76.85
11
102.725
21
-76.85
0
LINE
8
rgb(0, 0, 0)
10
102.725
20
-76.85
11
102.725
21
-75.85
0
LINE
8
rgb(0, 0, 0)
10
102.725
20
-75.85
11
103.675
21
-75.85
0
LINE
8
rgb(0, 0, 0)
10
103.675
20
-75.85
11
103.675
21
-76.85
0
LINE
8
rgb(0, 0, 0)
10
105.275
20
-76.85
11
104.325
21
-76.85
0
LINE
8
rgb(0, 0, 0)
10
104.325
20
-76.85
11
104.325
21
-75.85
0
LINE
8
rgb(0, 0, 0)
10
104.325
20
-75.85
11
105.275
21
-75.85
0
LINE
8
rgb(0, 0, 0)
10
105.275
20
-75.85
11
105.275
21
-76.85
0
LINE
8
rgb(0, 0, 0)
10
86.65
20
-76.4
11
85.45
21
-76.4
0
LINE
8
rgb(0, 0, 0)
10
85.45
20
-76.4
11
85.45
21
-75.9
0
LINE
8
rgb(0, 0, 0)
10
85.45
20
-75.9
11
86.65
21
-75.9
0
LINE
8
rgb(0, 0, 0)
10
86.65
20
-75.9
11
86.65
21
-76.4
0
LINE
8
rgb(0, 0, 0)
10
95.05
20
-76.4
11
93.85
21
-76.4
0
LINE
8
rgb(0, 0, 0)
10
93.85
20
-76.4
11
93.85
21
-75.9
0
LINE
8
rgb(0, 0, 0)
10
93.85
20
-75.9
11
95.05
21
-75.9
0
LINE
8
rgb(0, 0, 0)
10
95.05
20
-75.9
11
95.05
21
-76.4
0
LINE
8
rgb(0, 0, 0)
10
154.325
20
-76.35
11
153.025
21
-76.35
0
LINE
8
rgb(0, 0, 0)
10
153.025
20
-76.35
11
153.025
21
-75.375
0
LINE
8
rgb(0, 0, 0)
10
153.025
20
-75.375
11
154.325
21
-75.375
0
LINE
8
rgb(0, 0, 0)
10
154.325
20
-75.375
11
154.325
21
-76.35
0
LINE
8
rgb(0, 0, 0)
10
113.225
20
-75.765
11
111.675
21
-75.765
0
LINE
8
rgb(0, 0, 0)
10
111.675
20
-75.765
11
111.675
21
-75.165
0
LINE
8
rgb(0, 0, 0)
10
111.675
20
-75.165
11
113.225
21
-75.165
0
LINE
8
rgb(0, 0, 0)
10
113.225
20
-75.165
11
113.225
21
-75.765
0
LINE
8
rgb(0, 0, 0)
10
107.825
20
-75.765
11
106.275
21
-75.765
0
LINE
8
rgb(0, 0, 0)
10
106.275
20
-75.765
11
106.275
21
-75.165
0
LINE
8
rgb(0, 0, 0)
10
106.275
20
-75.165
11
107.825
21
-75.165
0
LINE
8
rgb(0, 0, 0)
10
107.825
20
-75.165
11
107.825
21
-75.765
0
LINE
8
rgb(0, 0, 0)
10
95.05
20
-75.6
11
93.85
21
-75.6
0
LINE
8
rgb(0, 0, 0)
10
93.85
20
-75.6
11
93.85
21
-75.1
0
LINE
8
rgb(0, 0, 0)
10
93.85
20
-75.1
11
95.05
21
-75.1
0
LINE
8
rgb(0, 0, 0)
10
95.05
20
-75.1
11
95.05
21
-75.6
0
LINE
8
rgb(0, 0, 0)
10
86.65
20
-75.6
11
85.45
21
-75.6
0
LINE
8
rgb(0, 0, 0)
10
85.45
20
-75.6
11
85.45
21
-75.1
0
LINE
8
rgb(0, 0, 0)
10
85.45
20
-75.1
11
86.65
21
-75.1
0
LINE
8
rgb(0, 0, 0)
10
86.65
20
-75.1
11
86.65
21
-75.6
0
LINE
8
rgb(0, 0, 0)
10
98.3
20
-75.275
11
97.3
21
-75.275
0
LINE
8
rgb(0, 0, 0)
10
97.3
20
-75.275
11
97.3
21
-74.325
0
LINE
8
rgb(0, 0, 0)
10
97.3
20
-74.325
11
98.3
21
-74.325
0
LINE
8
rgb(0, 0, 0)
10
98.3
20
-74.325
11
98.3
21
-75.275
0
LINE
8
rgb(0, 0, 0)
10
99.8
20
-75.275
11
98.8
21
-75.275
0
LINE
8
rgb(0, 0, 0)
10
98.8
20
-75.275
11
98.8
21
-74.325
0
LINE
8
rgb(0, 0, 0)
10
98.8
20
-74.325
11
99.8
21
-74.325
0
LINE
8
rgb(0, 0, 0)
10
99.8
20
-74.325
11
99.8
21
-75.275
0
LINE
8
rgb(0, 0, 0)
10
86.65
20
-74.8
11
85.45
21
-74.8
0
LINE
8
rgb(0, 0, 0)
10
85.45
20
-74.8
11
85.45
21
-74.3
0
LINE
8
rgb(0, 0, 0)
10
85.45
20
-74.3
11
86.65
21
-74.3
0
LINE
8
rgb(0, 0, 0)
10
86.65
20
-74.3
11
86.65
21
-74.8
0
LINE
8
rgb(0, 0, 0)
10
95.05
20
-74.8
11
93.85
21
-74.8
0
LINE
8
rgb(0, 0, 0)
10
93.85
20
-74.8
11
93.85
21
-74.3
0
LINE
8
rgb(0, 0, 0)
10
93.85
20
-74.3
11
95.05
21
-74.3
0
LINE
8
rgb(0, 0, 0)
10
95.05
20
-74.3
11
95.05
21
-74.8
0
LINE
8
rgb(0, 0, 0)
10
107.825
20
-74.495
11
106.275
21
-74.495
0
LINE
8
rgb(0, 0, 0)
10
106.275
20
-74.495
11
106.275
21
-73.895
0
LINE
8
rgb(0, 0, 0)
10
106.275
20
-73.895
11
107.825
21
-73.895
0
LINE
8
rgb(0, 0, 0)
10
107.825
20
-73.895
11
107.825
21
-74.495
0
LINE
8
rgb(0, 0, 0)
10
113.225
20
-74.495
11
111.675
21
-74.495
0
LINE
8
rgb(0, 0, 0)
10
111.675
20
-74.495
11
111.675
21
-73.895
0
LINE
8
rgb(0, 0, 0)
10
111.675
20
-73.895
11
113.225
21
-73.895
0
LINE
8
rgb(0, 0, 0)
10
113.225
20
-73.895
11
113.225
21
-74.495
0
LINE
8
rgb(0, 0, 0)
10
86.65
20
-74
11
85.45
21
-74
0
LINE
8
rgb(0, 0, 0)
10
85.45
20
-74
11
85.45
21
-73.5
0
LINE
8
rgb(0, 0, 0)
10
85.45
20
-73.5
11
86.65
21
-73.5
0
LINE
8
rgb(0, 0, 0)
10
86.65
20
-73.5
11
86.65
21
-74
0
LINE
8
rgb(0, 0, 0)
10
95.05
20
-74
11
93.85
21
-74
0
LINE
8
rgb(0, 0, 0)
10
93.85
20
-74
11
93.85
21
-73.5
0
LINE
8
rgb(0, 0, 0)
10
93.85
20
-73.5
11
95.05
21
-73.5
0
LINE
8
rgb(0, 0, 0)
10
95.05
20
-73.5
11
95.05
21
-74
0
LINE
8
rgb(0, 0, 0)
10
98.3
20
-73.675
11
97.3
21
-73.675
0
LINE
8
rgb(0, 0, 0)
10
97.3
20
-73.675
11
97.3
21
-72.725
0
LINE
8
rgb(0, 0, 0)
10
97.3
20
-72.725
11
98.3
21
-72.725
0
LINE
8
rgb(0, 0, 0)
10
98.3
20
-72.725
11
98.3
21
-73.675
0
LINE
8
rgb(0, 0, 0)
10
99.8
20
-73.675
11
98.8
21
-73.675
0
LINE
8
rgb(0, 0, 0)
10
98.8
20
-73.675
11
98.8
21
-72.725
0
LINE
8
rgb(0, 0, 0)
10
98.8
20
-72.725
11
99.8
21
-72.725
0
LINE
8
rgb(0, 0, 0)
10
99.8
20
-72.725
11
99.8
21
-73.675
0
LINE
8
rgb(0, 0, 0)
10
146.4
20
-73.2
11
142.6
21
-73.2
0
LINE
8
rgb(0, 0, 0)
10
142.6
20
-73.2
11
142.6
21
-70.8
0
LINE
8
rgb(0, 0, 0)
10
142.6
20
-70.8
11
146.4
21
-70.8
0
LINE
8
rgb(0, 0, 0)
10
146.4
20
-70.8
11
146.4
21
-73.2
0
LINE
8
rgb(0, 0, 0)
10
86.65
20
-73.2
11
85.45
21
-73.2
0
LINE
8
rgb(0, 0, 0)
10
85.45
20
-73.2
11
85.45
21
-72.7
0
LINE
8
rgb(0, 0, 0)
10
85.45
20
-72.7
11
86.65
21
-72.7
0
LINE
8
rgb(0, 0, 0)
10
86.65
20
-72.7
11
86.65
21
-73.2
0
LINE
8
rgb(0, 0, 0)
10
95.05
20
-73.2
11
93.85
21
-73.2
0
LINE
8
rgb(0, 0, 0)
10
93.85
20
-73.2
11
93.85
21
-72.7
0
LINE
8
rgb(0, 0, 0)
10
93.85
20
-72.7
11
95.05
21
-72.7
0
LINE
8
rgb(0, 0, 0)
10
95.05
20
-72.7
11
95.05
21
-73.2
0
LINE
8
rgb(0, 0, 0)
10
90.9
20
-72.15
11
90.4
21
-72.15
0
LINE
8
rgb(0, 0, 0)
10
90.4
20
-72.15
11
90.4
21
-70.95
0
LINE
8
rgb(0, 0, 0)
10
90.4
20
-70.95
11
90.9
21
-70.95
0
LINE
8
rgb(0, 0, 0)
10
90.9
20
-70.95
11
90.9
21
-72.15
0
LINE
8
rgb(0, 0, 0)
10
87.7
20
-72.15
11
87.2
21
-72.15
0
LINE
8
rgb(0, 0, 0)
10
87.2
20
-72.15
11
87.2
21
-70.95
0
LINE
8
rgb(0, 0, 0)
10
87.2
20
-70.95
11
87.7
21
-70.95
0
LINE
8
rgb(0, 0, 0)
10
87.7
20
-70.95
11
87.7
21
-72.15
0
LINE
8
rgb(0, 0, 0)
10
88.5
20
-72.15
11
88
21
-72.15
0
LINE
8
rgb(0, 0, 0)
10
88
20
-72.15
11
88
21
-70.95
0
LINE
8
rgb(0, 0, 0)
10
88
20
-70.95
11
88.5
21
-70.95
0
LINE
8
rgb(0, 0, 0)
10
88.5
20
-70.95
11
88.5
21
-72.15
0
LINE
8
rgb(0, 0, 0)
10
89.3
20
-72.15
11
88.8
21
-72.15
0
LINE
8
rgb(0, 0, 0)
10
88.8
20
-72.15
11
88.8
21
-70.95
0
LINE
8
rgb(0, 0, 0)
10
88.8
20
-70.95
11
89.3
21
-70.95
0
LINE
8
rgb(0, 0, 0)
10
89.3
20
-70.95
11
89.3
21
-72.15
0
LINE
8
rgb(0, 0, 0)
10
91.7
20
-72.15
11
91.2
21
-72.15
0
LINE
8
rgb(0, 0, 0)
10
91.2
20
-72.15
11
91.2
21
-70.95
0
LINE
8
rgb(0, 0, 0)
10
91.2
20
-70.95
11
91.7
21
-70.95
0
LINE
8
rgb(0, 0, 0)
10
91.7
20
-70.95
11
91.7
21
-72.15
0
LINE
8
rgb(0, 0, 0)
10
92.5
20
-72.15
11
92
21
-72.15
0
LINE
8
rgb(0, 0, 0)
10
92
20
-72.15
11
92
21
-70.95
0
LINE
8
rgb(0, 0, 0)
10
92
20
-70.95
11
92.5
21
-70.95
0
LINE
8
rgb(0, 0, 0)
10
92.5
20
-70.95
11
92.5
21
-72.15
0
LINE
8
rgb(0, 0, 0)
10
93.3
20
-72.15
11
92.8
21
-72.15
0
LINE
8
rgb(0, 0, 0)
10
92.8
20
-72.15
11
92.8
21
-70.95
0
LINE
8
rgb(0, 0, 0)
10
92.8
20
-70.95
11
93.3
21
-70.95
0
LINE
8
rgb(0, 0, 0)
10
93.3
20
-70.95
11
93.3
21
-72.15
0
LINE
8
rgb(0, 0, 0)
10
90.1
20
-72.15
11
89.6
21
-72.15
0
LINE
8
rgb(0, 0, 0)
10
89.6
20
-72.15
11
89.6
21
-70.95
0
LINE
8
rgb(0, 0, 0)
10
89.6
20
-70.95
11
90.1
21
-70.95
0
LINE
8
rgb(0, 0, 0)
10
90.1
20
-70.95
11
90.1
21
-72.15
0
LINE
8
rgb(0, 0, 0)
10
84.8
20
-72.075
11
83.8
21
-72.075
0
LINE
8
rgb(0, 0, 0)
10
83.8
20
-72.075
11
83.8
21
-71.125
0
LINE
8
rgb(0, 0, 0)
10
83.8
20
-71.125
11
84.8
21
-71.125
0
LINE
8
rgb(0, 0, 0)
10
84.8
20
-71.125
11
84.8
21
-72.075
0
LINE
8
rgb(0, 0, 0)
10
84.8
20
-70.475
11
83.8
21
-70.475
0
LINE
8
rgb(0, 0, 0)
10
83.8
20
-70.475
11
83.8
21
-69.525
0
LINE
8
rgb(0, 0, 0)
10
83.8
20
-69.525
11
84.8
21
-69.525
0
LINE
8
rgb(0, 0, 0)
10
84.8
20
-69.525
11
84.8
21
-70.475
0
LINE
8
rgb(0, 0, 0)
10
86.8
20
-69.675
11
85.8
21
-69.675
0
LINE
8
rgb(0, 0, 0)
10
85.8
20
-69.675
11
85.8
21
-68.725
0
LINE
8
rgb(0, 0, 0)
10
85.8
20
-68.725
11
86.8
21
-68.725
0
LINE
8
rgb(0, 0, 0)
10
86.8
20
-68.725
11
86.8
21
-69.675
0
LINE
8
rgb(0, 0, 0)
10
91.3
20
-69.675
11
90.3
21
-69.675
0
LINE
8
rgb(0, 0, 0)
10
90.3
20
-69.675
11
90.3
21
-68.725
0
LINE
8
rgb(0, 0, 0)
10
90.3
20
-68.725
11
91.3
21
-68.725
0
LINE
8
rgb(0, 0, 0)
10
91.3
20
-68.725
11
91.3
21
-69.675
0
LINE
8
rgb(0, 0, 0)
10
89.8
20
-69.675
11
88.8
21
-69.675
0
LINE
8
rgb(0, 0, 0)
10
88.8
20
-69.675
11
88.8
21
-68.725
0
LINE
8
rgb(0, 0, 0)
10
88.8
20
-68.725
11
89.8
21
-68.725
0
LINE
8
rgb(0, 0, 0)
10
89.8
20
-68.725
11
89.8
21
-69.675
0
LINE
8
rgb(0, 0, 0)
10
88.3
20
-69.675
11
87.3
21
-69.675
0
LINE
8
rgb(0, 0, 0)
10
87.3
20
-69.675
11
87.3
21
-68.725
0
LINE
8
rgb(0, 0, 0)
10
87.3
20
-68.725
11
88.3
21
-68.725
0
LINE
8
rgb(0, 0, 0)
10
88.3
20
-68.725
11
88.3
21
-69.675
0
LINE
8
rgb(0, 0, 0)
10
86.8
20
-68.075
11
85.8
21
-68.075
0
LINE
8
rgb(0, 0, 0)
10
85.8
20
-68.075
11
85.8
21
-67.125
0
LINE
8
rgb(0, 0, 0)
10
85.8
20
-67.125
11
86.8
21
-67.125
0
LINE
8
rgb(0, 0, 0)
10
86.8
20
-67.125
11
86.8
21
-68.075
0
LINE
8
rgb(0, 0, 0)
10
91.3
20
-68.075
11
90.3
21
-68.075
0
LINE
8
rgb(0, 0, 0)
10
90.3
20
-68.075
11
90.3
21
-67.125
0
LINE
8
rgb(0, 0, 0)
10
90.3
20
-67.125
11
91.3
21
-67.125
0
LINE
8
rgb(0, 0, 0)
10
91.3
20
-67.125
11
91.3
21
-68.075
0
LINE
8
rgb(0, 0, 0)
10
89.8
20
-68.075
11
88.8
21
-68.075
0
LINE
8
rgb(0, 0, 0)
10
88.8
20
-68.075
11
88.8
21
-67.125
0
LINE
8
rgb(0, 0, 0)
10
88.8
20
-67.125
11
89.8
21
-67.125
0
LINE
8
rgb(0, 0, 0)
10
89.8
20
-67.125
11
89.8
21
-68.075
0
LINE
8
rgb(0, 0, 0)
10
88.3
20
-68.075
11
87.3
21
-68.075
0
LINE
8
rgb(0, 0, 0)
10
87.3
20
-68.075
11
87.3
21
-67.125
0
LINE
8
rgb(0, 0, 0)
10
87.3
20
-67.125
11
88.3
21
-67.125
0
LINE
8
rgb(0, 0, 0)
10
88.3
20
-67.125
11
88.3
21
-68.075
0
LINE
8
rgb(0, 0, 0)
10
124.35
20
-41.75
11
123.35
21
-41.75
0
LINE
8
rgb(0, 0, 0)
10
123.35
20
-41.75
11
123.35
21
-41.15
0
LINE
8
rgb(0, 0, 0)
10
123.35
20
-41.15
11
124.35
21
-41.15
0
LINE
8
rgb(0, 0, 0)
10
124.35
20
-41.15
11
124.35
21
-41.75
0
LINE
8
rgb(0, 0, 0)
10
84.35
20
-41.45
11
83.75
21
-41.45
0
LINE
8
rgb(0, 0, 0)
10
83.75
20
-41.45
11
83.75
21
-40.45
0
LINE
8
rgb(0, 0, 0)
10
83.75
20
-40.45
11
84.35
21
-40.45
0
LINE
8
rgb(0, 0, 0)
10
84.35
20
-40.45
11
84.35
21
-41.45
0
LINE
8
rgb(0, 0, 0)
10
86.25
20
-41.45
11
85.65
21
-41.45
0
LINE
8
rgb(0, 0, 0)
10
85.65
20
-41.45
11
85.65
21
-40.45
0
LINE
8
rgb(0, 0, 0)
10
85.65
20
-40.45
11
86.25
21
-40.45
0
LINE
8
rgb(0, 0, 0)
10
86.25
20
-40.45
11
86.25
21
-41.45
0
LINE
8
rgb(0, 0, 0)
10
144.35
20
-41
11
143.35
21
-41
0
LINE
8
rgb(0, 0, 0)
10
143.35
20
-41
11
143.35
21
-40.4
0
LINE
8
rgb(0, 0, 0)
10
143.35
20
-40.4
11
144.35
21
-40.4
0
LINE
8
rgb(0, 0, 0)
10
144.35
20
-40.4
11
144.35
21
-41
0
LINE
8
rgb(0, 0, 0)
10
126.65
20
-40.8
11
125.65
21
-40.8
0
LINE
8
rgb(0, 0, 0)
10
125.65
20
-40.8
11
125.65
21
-40.2
0
LINE
8
rgb(0, 0, 0)
10
125.65
20
-40.2
11
126.65
21
-40.2
0
LINE
8
rgb(0, 0, 0)
10
126.65
20
-40.2
11
126.65
21
-40.8
0
LINE
8
rgb(0, 0, 0)
10
104.2
20
-40.75
11
103.2
21
-40.75
0
LINE
8
rgb(0, 0, 0)
10
103.2
20
-40.75
11
103.2
21
-40.15
0
LINE
8
rgb(0, 0, 0)
10
103.2
20
-40.15
11
104.2
21
-40.15
0
LINE
8
rgb(0, 0, 0)
10
104.2
20
-40.15
11
104.2
21
-40.75
0
LINE
8
rgb(0, 0, 0)
10
146.65
20
-40.05
11
145.65
21
-40.05
0
LINE
8
rgb(0, 0, 0)
10
145.65
20
-40.05
11
145.65
21
-39.45
0
LINE
8
rgb(0, 0, 0)
10
145.65
20
-39.45
11
146.65
21
-39.45
0
LINE
8
rgb(0, 0, 0)
10
146.65
20
-39.45
11
146.65
21
-40.05
0
LINE
8
rgb(0, 0, 0)
10
124.35
20
-39.85
11
123.35
21
-39.85
0
LINE
8
rgb(0, 0, 0)
10
123.35
20
-39.85
11
123.35
21
-39.25
0
LINE
8
rgb(0, 0, 0)
10
123.35
20
-39.25
11
124.35
21
-39.25
0
LINE
8
rgb(0, 0, 0)
10
124.35
20
-39.25
11
124.35
21
-39.85
0
LINE
8
rgb(0, 0, 0)
10
89.775
20
-39.8
11
88.825
21
-39.8
0
LINE
8
rgb(0, 0, 0)
10
88.825
20
-39.8
11
88.825
21
-38.8
0
LINE
8
rgb(0, 0, 0)
10
88.825
20
-38.8
11
89.775
21
-38.8
0
LINE
8
rgb(0, 0, 0)
10
89.775
20
-38.8
11
89.775
21
-39.8
0
LINE
8
rgb(0, 0, 0)
10
91.375
20
-39.8
11
90.425
21
-39.8
0
LINE
8
rgb(0, 0, 0)
10
90.425
20
-39.8
11
90.425
21
-38.8
0
LINE
8
rgb(0, 0, 0)
10
90.425
20
-38.8
11
91.375
21
-38.8
0
LINE
8
rgb(0, 0, 0)
10
91.375
20
-38.8
11
91.375
21
-39.8
0
LINE
8
rgb(0, 0, 0)
10
106.5
20
-39.8
11
105.5
21
-39.8
0
LINE
8
rgb(0, 0, 0)
10
105.5
20
-39.8
11
105.5
21
-39.2
0
LINE
8
rgb(0, 0, 0)
10
105.5
20
-39.2
11
106.5
21
-39.2
0
LINE
8
rgb(0, 0, 0)
10
106.5
20
-39.2
11
106.5
21
-39.8
0
LINE
8
rgb(0, 0, 0)
10
85.3
20
-39.15
11
84.7
21
-39.15
0
LINE
8
rgb(0, 0, 0)
10
84.7
20
-39.15
11
84.7
21
-38.15
0
LINE
8
rgb(0, 0, 0)
10
84.7
20
-38.15
11
85.3
21
-38.15
0
LINE
8
rgb(0, 0, 0)
10
85.3
20
-38.15
11
85.3
21
-39.15
0
LINE
8
rgb(0, 0, 0)
10
144.35
20
-39.1
11
143.35
21
-39.1
0
LINE
8
rgb(0, 0, 0)
10
143.35
20
-39.1
11
143.35
21
-38.5
0
LINE
8
rgb(0, 0, 0)
10
143.35
20
-38.5
11
144.35
21
-38.5
0
LINE
8
rgb(0, 0, 0)
10
144.35
20
-38.5
11
144.35
21
-39.1
0
LINE
8
rgb(0, 0, 0)
10
104.2
20
-38.85
11
103.2
21
-38.85
0
LINE
8
rgb(0, 0, 0)
10
103.2
20
-38.85
11
103.2
21
-38.25
0
LINE
8
rgb(0, 0, 0)
10
103.2
20
-38.25
11
104.2
21
-38.25
0
LINE
8
rgb(0, 0, 0)
10
104.2
20
-38.25
11
104.2
21
-38.85
  0
ENDSEC
  0
EOF
