M48
;DRILL file {KiCad (2017-07-16 revision e797af331)-makepkg} date 08/01/17 20:16:00
;FORMAT={-:-/ absolute / inch / decimal}
FMAT,2
INCH,TZ
T1C0.016
T2C0.024
T3C0.025
T4C0.026
T5C0.028
T6C0.030
T7C0.035
T8C0.039
T9C0.051
T10C0.039
%
G90
G05
M72
T1
X3.0197Y-3.0945
X3.0276Y-3.0276
X3.0512Y-2.5236
X3.1575Y-3.0197
X3.1614Y-2.7559
X3.2677Y-2.7559
X3.2717Y-3.122
X3.2817Y-3.0271
X3.315Y-3.126
X3.3174Y-3.0106
X3.378Y-3.2008
X3.3819Y-2.815
X3.3976Y-1.6969
X3.4488Y-2.4646
X3.4882Y-1.7283
X3.6378Y-3.0709
X3.6496Y-3.248
X3.7283Y-3.1535
X3.7362Y-2.3071
X3.7402Y-2.3465
X3.748Y-2.3858
X3.748Y-2.4291
X3.9094Y-2.8307
X3.9331Y-1.5787
X3.9331Y-3.3425
X3.9724Y-2.9764
X3.9724Y-3.0236
X4.0339Y-3.3633
X4.0354Y-1.5551
X4.0512Y-2.9094
X4.0512Y-2.9528
X4.0827Y-1.6339
X4.1614Y-2.9213
X4.1732Y-3.2756
X4.2323Y-3.378
X4.2756Y-1.5315
X4.2835Y-2.7953
X4.2835Y-2.9213
X4.2953Y-3.1535
X4.378Y-3.1535
X4.4803Y-3.122
X4.563Y-1.7598
X4.563Y-1.8071
X4.5669Y-2.3307
X4.5738Y-2.437
X4.5748Y-2.2874
X4.5906Y-2.3701
X4.6969Y-3.3228
X4.7126Y-1.7638
X4.7205Y-1.5787
X4.7244Y-1.8583
X4.7953Y-1.626
X4.815Y-3.3583
X4.8189Y-1.5551
X4.9173Y-1.6457
X4.9646Y-3.2795
X5.0197Y-1.5354
X5.0512Y-3.3819
X5.2756Y-3.189
X5.2756Y-3.0709
X5.3937Y-3.0709
X5.3937Y-3.189
X5.5079Y-3.3425
X5.5118Y-3.189
X5.5118Y-1.5748
X5.5118Y-3.0709
X5.5748Y-1.5591
X5.5984Y-3.2126
X5.6087Y-2.2936
X5.6087Y-3.3646
X5.6614Y-1.6417
X5.7087Y-2.185
X5.7087Y-2.2756
X5.7244Y-3.2126
X5.7953Y-3.311
X5.8087Y-2.2756
X5.8087Y-3.3835
X5.811Y-1.5354
X5.878Y-3.0591
X5.878Y-3.0984
X5.9016Y-2.2402
T2
X3.0827Y-2.9685
X3.748Y-2.5984
X3.9055Y-2.6339
X4.4843Y-2.8307
X4.5354Y-2.8307
X4.7087Y-2.8307
X4.7559Y-2.8307
T3
X3.0701Y-3.061
X3.0701Y-3.111
X3.0701Y-3.161
X3.0701Y-3.211
X3.0701Y-3.261
X3.1201Y-3.061
X3.1201Y-3.111
X3.1201Y-3.161
X3.1201Y-3.211
X3.1201Y-3.261
T5
X4.7213Y-1.4448
X4.7213Y-2.37
X4.8213Y-1.4448
X4.8213Y-2.37
X4.9213Y-1.4448
X4.9213Y-2.37
X5.0213Y-1.4448
X5.0213Y-2.37
X5.1213Y-1.4448
X5.1213Y-2.37
X3.1465Y-2.5471
X3.1465Y-3.4723
X3.2465Y-2.5471
X3.2465Y-3.4723
X3.3465Y-2.5471
X3.3465Y-3.4723
X3.4465Y-2.5471
X3.4465Y-3.4723
X3.5465Y-2.5471
X3.5465Y-3.4723
X5.5087Y-1.4448
X5.5087Y-2.37
X5.6087Y-1.4448
X5.6087Y-2.37
X5.7087Y-1.4448
X5.7087Y-2.37
X5.8087Y-1.4448
X5.8087Y-2.37
X5.9087Y-1.4448
X5.9087Y-2.37
X3.9339Y-1.4448
X3.9339Y-2.37
X4.0339Y-1.4448
X4.0339Y-2.37
X4.1339Y-1.4448
X4.1339Y-2.37
X4.2339Y-1.4448
X4.2339Y-2.37
X4.3339Y-1.4448
X4.3339Y-2.37
X4.7213Y-2.5471
X4.7213Y-3.4723
X4.8213Y-2.5471
X4.8213Y-3.4723
X4.9213Y-2.5471
X4.9213Y-3.4723
X5.0213Y-2.5471
X5.0213Y-3.4723
X5.1213Y-2.5471
X5.1213Y-3.4723
X3.9339Y-2.5471
X3.9339Y-3.4723
X4.0339Y-2.5471
X4.0339Y-3.4723
X4.1339Y-2.5471
X4.1339Y-3.4723
X4.2339Y-2.5471
X4.2339Y-3.4723
X4.3339Y-2.5471
X4.3339Y-3.4723
X3.1465Y-1.4448
X3.1465Y-2.37
X3.2465Y-1.4448
X3.2465Y-2.37
X3.3465Y-1.4448
X3.3465Y-2.37
X3.4465Y-1.4448
X3.4465Y-2.37
X3.5465Y-1.4448
X3.5465Y-2.37
X5.5087Y-2.5471
X5.5087Y-3.4723
X5.6087Y-2.5471
X5.6087Y-3.4723
X5.7087Y-2.5471
X5.7087Y-3.4723
X5.8087Y-2.5471
X5.8087Y-3.4723
X5.9087Y-2.5471
X5.9087Y-3.4723
T6
X3.9094Y-3.2795
X3.9252Y-3.1654
X3.8071Y-3.2795
T7
X3.6929Y-1.5354
X3.7929Y-1.5354
T8
X3.0512Y-1.6142
X3.0512Y-1.7913
X3.0512Y-1.998
X3.0512Y-2.1752
X3.7244Y-1.9724
X4.1181Y-1.9724
T9
X3.1496Y-1.565
X3.1496Y-1.8406
X3.1496Y-1.9488
X3.1496Y-2.2244
T10
X3.0448Y-2.9051
X3.0848Y-2.7051
X3.1248Y-2.9051
T2
X6.0364Y-2.9557G85X6.064Y-2.9557
G05
X6.0364Y-3.2844G85X6.064Y-3.2844
G05
T4
X5.9281Y-3.0325G85X5.936Y-3.0325
G05
X5.9281Y-3.2077G85X5.936Y-3.2077
G05
T0
M30
