G04 #@! TF.GenerationSoftware,KiCad,Pcbnew,(2017-07-16 revision e797af331)-makepkg*
G04 #@! TF.CreationDate,2017-08-01T20:13:45+01:00*
G04 #@! TF.ProjectId,smalltime,736D616C6C74696D652E6B696361645F,rev?*
G04 #@! TF.SameCoordinates,Original
G04 #@! TF.FileFunction,Soldermask,Top*
G04 #@! TF.FilePolarity,Negative*
%FSLAX46Y46*%
G04 Gerber Fmt 4.6, Leading zero omitted, Abs format (unit mm)*
G04 Created by KiCad (PCBNEW (2017-07-16 revision e797af331)-makepkg) date 08/01/17 20:13:45*
%MOMM*%
%LPD*%
G01*
G04 APERTURE LIST*
%ADD10C,1.524000*%
%ADD11C,1.700000*%
%ADD12C,1.016000*%
%ADD13C,2.000000*%
%ADD14R,1.000000X0.950000*%
%ADD15R,0.950000X1.000000*%
%ADD16R,1.200000X0.500000*%
%ADD17R,0.500000X1.200000*%
%ADD18R,1.550000X0.600000*%
%ADD19R,1.300000X2.400000*%
%ADD20R,3.800000X2.400000*%
%ADD21R,1.350000X0.400000*%
%ADD22O,1.250000X1.000000*%
%ADD23R,1.900000X1.800000*%
%ADD24R,1.900000X1.575000*%
%ADD25O,1.900000X1.000000*%
%ADD26C,0.787000*%
%ADD27C,1.000000*%
%ADD28R,1.800000X1.800000*%
%ADD29C,1.800000*%
%ADD30R,1.000000X0.600000*%
%ADD31R,0.600000X1.000000*%
G04 APERTURE END LIST*
D10*
X99300000Y-83300000D03*
X99700000Y-80400000D03*
X96700000Y-83300000D03*
D11*
X139920000Y-36697492D03*
X142460000Y-36697492D03*
X145000000Y-36697492D03*
X147540000Y-36697492D03*
X150080000Y-36697492D03*
X150080000Y-60197492D03*
X147540000Y-60197492D03*
X145000000Y-60197492D03*
X142460000Y-60197492D03*
X139920000Y-60197492D03*
X130080000Y-88197492D03*
X127540000Y-88197492D03*
X125000000Y-88197492D03*
X122460000Y-88197492D03*
X119920000Y-88197492D03*
X119920000Y-64697492D03*
X122460000Y-64697492D03*
X125000000Y-64697492D03*
X127540000Y-64697492D03*
X130080000Y-64697492D03*
X99920000Y-36697492D03*
X102460000Y-36697492D03*
X105000000Y-36697492D03*
X107540000Y-36697492D03*
X110080000Y-36697492D03*
X110080000Y-60197492D03*
X107540000Y-60197492D03*
X105000000Y-60197492D03*
X102460000Y-60197492D03*
X99920000Y-60197492D03*
X79920000Y-36697492D03*
X82460000Y-36697492D03*
X85000000Y-36697492D03*
X87540000Y-36697492D03*
X90080000Y-36697492D03*
X90080000Y-60197492D03*
X87540000Y-60197492D03*
X85000000Y-60197492D03*
X82460000Y-60197492D03*
X79920000Y-60197492D03*
X90080000Y-88197492D03*
X87540000Y-88197492D03*
X85000000Y-88197492D03*
X82460000Y-88197492D03*
X79920000Y-88197492D03*
X79920000Y-64697492D03*
X82460000Y-64697492D03*
X85000000Y-64697492D03*
X87540000Y-64697492D03*
X90080000Y-64697492D03*
X110080000Y-88197492D03*
X107540000Y-88197492D03*
X105000000Y-88197492D03*
X102460000Y-88197492D03*
X99920000Y-88197492D03*
X99920000Y-64697492D03*
X102460000Y-64697492D03*
X105000000Y-64697492D03*
X107540000Y-64697492D03*
X110080000Y-64697492D03*
X150080000Y-88197492D03*
X147540000Y-88197492D03*
X145000000Y-88197492D03*
X142460000Y-88197492D03*
X139920000Y-88197492D03*
X139920000Y-64697492D03*
X142460000Y-64697492D03*
X145000000Y-64697492D03*
X147540000Y-64697492D03*
X150080000Y-64697492D03*
X119920000Y-36697492D03*
X122460000Y-36697492D03*
X125000000Y-36697492D03*
X127540000Y-36697492D03*
X130080000Y-36697492D03*
X130080000Y-60197492D03*
X127540000Y-60197492D03*
X125000000Y-60197492D03*
X122460000Y-60197492D03*
X119920000Y-60197492D03*
D12*
X77980000Y-77750000D03*
X79250000Y-77750000D03*
X77980000Y-79020000D03*
X79250000Y-79020000D03*
X77980000Y-80290000D03*
X79250000Y-80290000D03*
X77980000Y-81560000D03*
X79250000Y-81560000D03*
X77980000Y-82830000D03*
X79250000Y-82830000D03*
D13*
X94600000Y-50100000D03*
X104600000Y-50100000D03*
D14*
X97800000Y-74800000D03*
X97800000Y-73200000D03*
X99300000Y-74800000D03*
X99300000Y-73200000D03*
X97900000Y-78900000D03*
X97900000Y-80500000D03*
X84300000Y-71600000D03*
X84300000Y-70000000D03*
X96400000Y-78900000D03*
X96400000Y-80500000D03*
X114750000Y-76550000D03*
X114750000Y-78150000D03*
D15*
X147050000Y-80500000D03*
X145450000Y-80500000D03*
X143800000Y-80500000D03*
X142200000Y-80500000D03*
D16*
X94450000Y-78550000D03*
X94450000Y-77750000D03*
X94450000Y-76950000D03*
X94450000Y-76150000D03*
X94450000Y-75350000D03*
X94450000Y-74550000D03*
X94450000Y-73750000D03*
X94450000Y-72950000D03*
D17*
X93050000Y-71550000D03*
X92250000Y-71550000D03*
X91450000Y-71550000D03*
X90650000Y-71550000D03*
X89850000Y-71550000D03*
X89050000Y-71550000D03*
X88250000Y-71550000D03*
X87450000Y-71550000D03*
D16*
X86050000Y-72950000D03*
X86050000Y-73750000D03*
X86050000Y-74550000D03*
X86050000Y-75350000D03*
X86050000Y-76150000D03*
X86050000Y-76950000D03*
X86050000Y-77750000D03*
X86050000Y-78550000D03*
D17*
X87450000Y-79950000D03*
X88250000Y-79950000D03*
X89050000Y-79950000D03*
X89850000Y-79950000D03*
X90650000Y-79950000D03*
X91450000Y-79950000D03*
X92250000Y-79950000D03*
X93050000Y-79950000D03*
D18*
X112450000Y-78005000D03*
X112450000Y-76735000D03*
X112450000Y-75465000D03*
X112450000Y-74195000D03*
X107050000Y-74195000D03*
X107050000Y-75465000D03*
X107050000Y-76735000D03*
X107050000Y-78005000D03*
D19*
X144500000Y-78100000D03*
X142200000Y-78100000D03*
X146800000Y-78100000D03*
D20*
X144500000Y-72000000D03*
D21*
X151000000Y-79250000D03*
X151000000Y-78600000D03*
X151000000Y-79900000D03*
X151000000Y-80550000D03*
X151000000Y-77950000D03*
D22*
X150675000Y-77025000D03*
X150675000Y-81475000D03*
D23*
X153675000Y-78100000D03*
X153675000Y-80400000D03*
D24*
X153675000Y-75862500D03*
D25*
X153675000Y-75075000D03*
D24*
X153675000Y-82637500D03*
D25*
X153675000Y-83425000D03*
D26*
X77720000Y-69980000D03*
X78990000Y-69980000D03*
X77720000Y-71250000D03*
X78990000Y-71250000D03*
X77720000Y-72520000D03*
X78990000Y-72520000D03*
D27*
X78355000Y-68710000D03*
X77339000Y-73790000D03*
X79371000Y-73790000D03*
D28*
X93800000Y-39000000D03*
D29*
X96340000Y-39000000D03*
D30*
X86450000Y-84550000D03*
X86450000Y-82650000D03*
X84150000Y-83600000D03*
X106000000Y-86450000D03*
X106000000Y-84550000D03*
X103700000Y-85500000D03*
X126150000Y-86450000D03*
X126150000Y-84550000D03*
X123850000Y-85500000D03*
X146000000Y-85950000D03*
X146000000Y-84050000D03*
X143700000Y-85000000D03*
D31*
X84050000Y-40950000D03*
X85950000Y-40950000D03*
X85000000Y-38650000D03*
D30*
X103700000Y-38550000D03*
X103700000Y-40450000D03*
X106000000Y-39500000D03*
X123850000Y-39550000D03*
X123850000Y-41450000D03*
X126150000Y-40500000D03*
X143850000Y-38800000D03*
X143850000Y-40700000D03*
X146150000Y-39750000D03*
D15*
X103200000Y-76350000D03*
X104800000Y-76350000D03*
X103200000Y-78000000D03*
X104800000Y-78000000D03*
X90900000Y-39300000D03*
X89300000Y-39300000D03*
D14*
X88400000Y-84200000D03*
X88400000Y-82600000D03*
X82900000Y-81900000D03*
X82900000Y-80300000D03*
X87800000Y-67600000D03*
X87800000Y-69200000D03*
X89300000Y-67600000D03*
X89300000Y-69200000D03*
X90800000Y-67600000D03*
X90800000Y-69200000D03*
X89900000Y-84200000D03*
X89900000Y-82600000D03*
X91400000Y-84200000D03*
X91400000Y-82600000D03*
X86300000Y-67600000D03*
X86300000Y-69200000D03*
D13*
X80000000Y-39750000D03*
X80000000Y-46750000D03*
D11*
X77500000Y-41000000D03*
X77500000Y-45500000D03*
D13*
X80000000Y-49500000D03*
X80000000Y-56500000D03*
D11*
X77500000Y-50750000D03*
X77500000Y-55250000D03*
M02*
