G04 #@! TF.GenerationSoftware,KiCad,Pcbnew,(2017-07-16 revision e797af331)-makepkg*
G04 #@! TF.CreationDate,2017-08-01T20:13:45+01:00*
G04 #@! TF.ProjectId,smalltime,736D616C6C74696D652E6B696361645F,rev?*
G04 #@! TF.SameCoordinates,Original
G04 #@! TF.FileFunction,Copper,L1,Top,Signal*
G04 #@! TF.FilePolarity,Positive*
%FSLAX46Y46*%
G04 Gerber Fmt 4.6, Leading zero omitted, Abs format (unit mm)*
G04 Created by KiCad (PCBNEW (2017-07-16 revision e797af331)-makepkg) date 08/01/17 20:13:45*
%MOMM*%
%LPD*%
G01*
G04 APERTURE LIST*
%ADD10C,1.524000*%
%ADD11C,1.700000*%
%ADD12C,1.016000*%
%ADD13C,2.000000*%
%ADD14R,1.000000X0.950000*%
%ADD15R,0.950000X1.000000*%
%ADD16R,1.200000X0.500000*%
%ADD17R,0.500000X1.200000*%
%ADD18R,1.550000X0.600000*%
%ADD19R,1.300000X2.400000*%
%ADD20R,3.800000X2.400000*%
%ADD21R,1.350000X0.400000*%
%ADD22O,1.250000X1.000000*%
%ADD23R,1.900000X1.800000*%
%ADD24R,1.900000X1.575000*%
%ADD25O,1.900000X1.000000*%
%ADD26C,0.787000*%
%ADD27R,1.800000X1.800000*%
%ADD28C,1.800000*%
%ADD29R,1.000000X0.600000*%
%ADD30R,0.600000X1.000000*%
%ADD31C,1.000000*%
%ADD32C,0.800000*%
%ADD33C,0.250000*%
%ADD34C,0.350000*%
%ADD35C,0.500000*%
%ADD36C,0.254000*%
G04 APERTURE END LIST*
D10*
X99300000Y-83300000D03*
X99700000Y-80400000D03*
X96700000Y-83300000D03*
D11*
X139920000Y-36697492D03*
X142460000Y-36697492D03*
X145000000Y-36697492D03*
X147540000Y-36697492D03*
X150080000Y-36697492D03*
X150080000Y-60197492D03*
X147540000Y-60197492D03*
X145000000Y-60197492D03*
X142460000Y-60197492D03*
X139920000Y-60197492D03*
X130080000Y-88197492D03*
X127540000Y-88197492D03*
X125000000Y-88197492D03*
X122460000Y-88197492D03*
X119920000Y-88197492D03*
X119920000Y-64697492D03*
X122460000Y-64697492D03*
X125000000Y-64697492D03*
X127540000Y-64697492D03*
X130080000Y-64697492D03*
X99920000Y-36697492D03*
X102460000Y-36697492D03*
X105000000Y-36697492D03*
X107540000Y-36697492D03*
X110080000Y-36697492D03*
X110080000Y-60197492D03*
X107540000Y-60197492D03*
X105000000Y-60197492D03*
X102460000Y-60197492D03*
X99920000Y-60197492D03*
X79920000Y-36697492D03*
X82460000Y-36697492D03*
X85000000Y-36697492D03*
X87540000Y-36697492D03*
X90080000Y-36697492D03*
X90080000Y-60197492D03*
X87540000Y-60197492D03*
X85000000Y-60197492D03*
X82460000Y-60197492D03*
X79920000Y-60197492D03*
X90080000Y-88197492D03*
X87540000Y-88197492D03*
X85000000Y-88197492D03*
X82460000Y-88197492D03*
X79920000Y-88197492D03*
X79920000Y-64697492D03*
X82460000Y-64697492D03*
X85000000Y-64697492D03*
X87540000Y-64697492D03*
X90080000Y-64697492D03*
X110080000Y-88197492D03*
X107540000Y-88197492D03*
X105000000Y-88197492D03*
X102460000Y-88197492D03*
X99920000Y-88197492D03*
X99920000Y-64697492D03*
X102460000Y-64697492D03*
X105000000Y-64697492D03*
X107540000Y-64697492D03*
X110080000Y-64697492D03*
X150080000Y-88197492D03*
X147540000Y-88197492D03*
X145000000Y-88197492D03*
X142460000Y-88197492D03*
X139920000Y-88197492D03*
X139920000Y-64697492D03*
X142460000Y-64697492D03*
X145000000Y-64697492D03*
X147540000Y-64697492D03*
X150080000Y-64697492D03*
X119920000Y-36697492D03*
X122460000Y-36697492D03*
X125000000Y-36697492D03*
X127540000Y-36697492D03*
X130080000Y-36697492D03*
X130080000Y-60197492D03*
X127540000Y-60197492D03*
X125000000Y-60197492D03*
X122460000Y-60197492D03*
X119920000Y-60197492D03*
D12*
X77980000Y-77750000D03*
X79250000Y-77750000D03*
X77980000Y-79020000D03*
X79250000Y-79020000D03*
X77980000Y-80290000D03*
X79250000Y-80290000D03*
X77980000Y-81560000D03*
X79250000Y-81560000D03*
X77980000Y-82830000D03*
X79250000Y-82830000D03*
D13*
X94600000Y-50100000D03*
X104600000Y-50100000D03*
D14*
X97800000Y-74800000D03*
X97800000Y-73200000D03*
X99300000Y-74800000D03*
X99300000Y-73200000D03*
X97900000Y-78900000D03*
X97900000Y-80500000D03*
X84300000Y-71600000D03*
X84300000Y-70000000D03*
X96400000Y-78900000D03*
X96400000Y-80500000D03*
X114750000Y-76550000D03*
X114750000Y-78150000D03*
D15*
X147050000Y-80500000D03*
X145450000Y-80500000D03*
X143800000Y-80500000D03*
X142200000Y-80500000D03*
D16*
X94450000Y-78550000D03*
X94450000Y-77750000D03*
X94450000Y-76950000D03*
X94450000Y-76150000D03*
X94450000Y-75350000D03*
X94450000Y-74550000D03*
X94450000Y-73750000D03*
X94450000Y-72950000D03*
D17*
X93050000Y-71550000D03*
X92250000Y-71550000D03*
X91450000Y-71550000D03*
X90650000Y-71550000D03*
X89850000Y-71550000D03*
X89050000Y-71550000D03*
X88250000Y-71550000D03*
X87450000Y-71550000D03*
D16*
X86050000Y-72950000D03*
X86050000Y-73750000D03*
X86050000Y-74550000D03*
X86050000Y-75350000D03*
X86050000Y-76150000D03*
X86050000Y-76950000D03*
X86050000Y-77750000D03*
X86050000Y-78550000D03*
D17*
X87450000Y-79950000D03*
X88250000Y-79950000D03*
X89050000Y-79950000D03*
X89850000Y-79950000D03*
X90650000Y-79950000D03*
X91450000Y-79950000D03*
X92250000Y-79950000D03*
X93050000Y-79950000D03*
D18*
X112450000Y-78005000D03*
X112450000Y-76735000D03*
X112450000Y-75465000D03*
X112450000Y-74195000D03*
X107050000Y-74195000D03*
X107050000Y-75465000D03*
X107050000Y-76735000D03*
X107050000Y-78005000D03*
D19*
X144500000Y-78100000D03*
X142200000Y-78100000D03*
X146800000Y-78100000D03*
D20*
X144500000Y-72000000D03*
D21*
X151000000Y-79250000D03*
X151000000Y-78600000D03*
X151000000Y-79900000D03*
X151000000Y-80550000D03*
X151000000Y-77950000D03*
D22*
X150675000Y-77025000D03*
X150675000Y-81475000D03*
D23*
X153675000Y-78100000D03*
X153675000Y-80400000D03*
D24*
X153675000Y-75862500D03*
D25*
X153675000Y-75075000D03*
D24*
X153675000Y-82637500D03*
D25*
X153675000Y-83425000D03*
D26*
X77720000Y-69980000D03*
X78990000Y-69980000D03*
X77720000Y-71250000D03*
X78990000Y-71250000D03*
X77720000Y-72520000D03*
X78990000Y-72520000D03*
D27*
X93800000Y-39000000D03*
D28*
X96340000Y-39000000D03*
D29*
X86450000Y-84550000D03*
X86450000Y-82650000D03*
X84150000Y-83600000D03*
X106000000Y-86450000D03*
X106000000Y-84550000D03*
X103700000Y-85500000D03*
X126150000Y-86450000D03*
X126150000Y-84550000D03*
X123850000Y-85500000D03*
X146000000Y-85950000D03*
X146000000Y-84050000D03*
X143700000Y-85000000D03*
D30*
X84050000Y-40950000D03*
X85950000Y-40950000D03*
X85000000Y-38650000D03*
D29*
X103700000Y-38550000D03*
X103700000Y-40450000D03*
X106000000Y-39500000D03*
X123850000Y-39550000D03*
X123850000Y-41450000D03*
X126150000Y-40500000D03*
X143850000Y-38800000D03*
X143850000Y-40700000D03*
X146150000Y-39750000D03*
D15*
X103200000Y-76350000D03*
X104800000Y-76350000D03*
X103200000Y-78000000D03*
X104800000Y-78000000D03*
X90900000Y-39300000D03*
X89300000Y-39300000D03*
D14*
X88400000Y-84200000D03*
X88400000Y-82600000D03*
X82900000Y-81900000D03*
X82900000Y-80300000D03*
X87800000Y-67600000D03*
X87800000Y-69200000D03*
X89300000Y-67600000D03*
X89300000Y-69200000D03*
X90800000Y-67600000D03*
X90800000Y-69200000D03*
X89900000Y-84200000D03*
X89900000Y-82600000D03*
X91400000Y-84200000D03*
X91400000Y-82600000D03*
X86300000Y-67600000D03*
X86300000Y-69200000D03*
D13*
X80000000Y-39750000D03*
X80000000Y-46750000D03*
D11*
X77500000Y-41000000D03*
X77500000Y-45500000D03*
D13*
X80000000Y-49500000D03*
X80000000Y-56500000D03*
D11*
X77500000Y-50750000D03*
X77500000Y-55250000D03*
D31*
X78300000Y-75400000D03*
D32*
X113800000Y-79300000D03*
X139999992Y-81000000D03*
X134000000Y-81000000D03*
X137000000Y-81000000D03*
X140000000Y-78000006D03*
X137000000Y-78000000D03*
X134000012Y-78000000D03*
X99300000Y-71900000D03*
X124900000Y-41800000D03*
X86300000Y-43100000D03*
X88600000Y-43900000D03*
X105700000Y-74200000D03*
X85900000Y-71500000D03*
X85800000Y-81300000D03*
X142200000Y-81600000D03*
X145400000Y-81600000D03*
X149300000Y-78700000D03*
X149300000Y-77700000D03*
X147200000Y-84100000D03*
X126100000Y-83300000D03*
X106000000Y-83200000D03*
X143800000Y-41700000D03*
X103700000Y-41500000D03*
X94700000Y-80100000D03*
X108800000Y-71000000D03*
X108800000Y-74200000D03*
D31*
X99200000Y-66900010D03*
X95200000Y-66000000D03*
X113900000Y-71900000D03*
X115200000Y-71900000D03*
X120800000Y-71899998D03*
X119599988Y-71900000D03*
D32*
X83000000Y-70000000D03*
X80300000Y-70000000D03*
X76700000Y-78600000D03*
X76900000Y-76900000D03*
X80200000Y-76700000D03*
X84262504Y-76469782D03*
X77500000Y-64100000D03*
X84200000Y-79400000D03*
X109100000Y-80100000D03*
X111200000Y-80100000D03*
X145000008Y-57800000D03*
X145000000Y-55500000D03*
X122300000Y-85300000D03*
X142460000Y-85460000D03*
X102461429Y-85428171D03*
X108600000Y-38900000D03*
X147600000Y-39000000D03*
X127500000Y-39000000D03*
X139900000Y-84900000D03*
X119300001Y-84400001D03*
X99900000Y-84900000D03*
X147540000Y-57799847D03*
X95000000Y-59600000D03*
X116000000Y-59200000D03*
X116174990Y-61900018D03*
X142460000Y-58257431D03*
X87600026Y-62600000D03*
X95200000Y-60599996D03*
X116600000Y-60200000D03*
X95200000Y-61700000D03*
X147540000Y-85940000D03*
X107500000Y-85800000D03*
X128300000Y-85900000D03*
X141600000Y-39600000D03*
X122400000Y-39500000D03*
X102500000Y-39500000D03*
X121800000Y-41300000D03*
X140000000Y-40000000D03*
X119900000Y-40100000D03*
X99900000Y-40100000D03*
X149900000Y-56900000D03*
X94900000Y-58600000D03*
X116200000Y-58100000D03*
X115900002Y-45900000D03*
X120000000Y-47200000D03*
X92400000Y-78000000D03*
X92700000Y-82500000D03*
X100900000Y-75600000D03*
X102900000Y-73900000D03*
X102900000Y-75000000D03*
X100900000Y-76800000D03*
X115900000Y-44699987D03*
X119700000Y-44800000D03*
X83100000Y-79300000D03*
X83354442Y-76888645D03*
D33*
X78300000Y-75000000D02*
X78300000Y-75400000D01*
X113800000Y-79075000D02*
X113800000Y-79300000D01*
X114725000Y-78150000D02*
X113800000Y-79075000D01*
X114750000Y-78150000D02*
X114725000Y-78150000D01*
D34*
X151000000Y-77950000D02*
X149800000Y-77950000D01*
X149800000Y-77950000D02*
X149550000Y-77950000D01*
X149300000Y-77700000D02*
X149550000Y-77700000D01*
X149550000Y-77700000D02*
X149800000Y-77950000D01*
X149300000Y-78000000D02*
X149500000Y-78200000D01*
X149300000Y-77700000D02*
X149300000Y-78000000D01*
X149300000Y-77700000D02*
X149300000Y-78700000D01*
X151000000Y-77950000D02*
X150050000Y-77950000D01*
X150050000Y-77950000D02*
X149300000Y-78700000D01*
X149550000Y-77950000D02*
X149300000Y-77700000D01*
X142200000Y-78100000D02*
X141800000Y-78100000D01*
X141800000Y-78100000D02*
X139999992Y-79900008D01*
X139999992Y-79900008D02*
X139999992Y-81000000D01*
X134565685Y-81000000D02*
X134000000Y-81000000D01*
X136234315Y-81000000D02*
X134565685Y-81000000D01*
X138434315Y-78800000D02*
X136234315Y-81000000D01*
X137000000Y-80234315D02*
X137000000Y-80434315D01*
X138434315Y-78800000D02*
X137000000Y-80234315D01*
X137000000Y-80434315D02*
X137000000Y-81000000D01*
X137600000Y-78700000D02*
X137700000Y-78800000D01*
X137700000Y-78800000D02*
X138434315Y-78800000D01*
X134000012Y-78000000D02*
X137000000Y-78000000D01*
D33*
X99300000Y-73200000D02*
X99300000Y-71900000D01*
X97800000Y-73200000D02*
X99300000Y-73200000D01*
X123850000Y-41450000D02*
X124550000Y-41450000D01*
X124550000Y-41450000D02*
X124900000Y-41800000D01*
X85950000Y-40950000D02*
X85950000Y-42750000D01*
X85950000Y-42750000D02*
X86300000Y-43100000D01*
X89300000Y-39300000D02*
X89300000Y-43200000D01*
X89300000Y-43200000D02*
X88600000Y-43900000D01*
X107050000Y-74195000D02*
X105705000Y-74195000D01*
X105705000Y-74195000D02*
X105700000Y-74200000D01*
X85950000Y-71550000D02*
X85900000Y-71500000D01*
X87450000Y-71550000D02*
X85950000Y-71550000D01*
X85825000Y-71500000D02*
X85900000Y-71500000D01*
X84300000Y-70000000D02*
X84325000Y-70000000D01*
X84325000Y-70000000D02*
X85825000Y-71500000D01*
X86450000Y-82650000D02*
X86450000Y-81950000D01*
X86450000Y-81950000D02*
X85800000Y-81300000D01*
D34*
X142200000Y-78100000D02*
X142200000Y-80500000D01*
X142200000Y-80500000D02*
X142200000Y-81600000D01*
X145450000Y-80500000D02*
X145450000Y-81550000D01*
X145450000Y-81550000D02*
X145400000Y-81600000D01*
D33*
X146000000Y-84050000D02*
X147150000Y-84050000D01*
X147150000Y-84050000D02*
X147200000Y-84100000D01*
X126150000Y-84550000D02*
X126150000Y-83350000D01*
X126150000Y-83350000D02*
X126100000Y-83300000D01*
X106000000Y-84550000D02*
X106000000Y-83200000D01*
X143850000Y-40700000D02*
X143850000Y-41650000D01*
X143850000Y-41650000D02*
X143800000Y-41700000D01*
X103700000Y-40450000D02*
X103700000Y-41500000D01*
X97900000Y-80500000D02*
X96400000Y-80500000D01*
X93050000Y-79950000D02*
X94550000Y-79950000D01*
X94550000Y-79950000D02*
X94700000Y-80100000D01*
X92250000Y-79950000D02*
X93050000Y-79950000D01*
X96400000Y-80500000D02*
X95100000Y-80500000D01*
X95100000Y-80500000D02*
X94700000Y-80100000D01*
X77720000Y-72520000D02*
X78300000Y-73100000D01*
X78300000Y-73100000D02*
X78300000Y-75000000D01*
X98744999Y-56100000D02*
X98744999Y-65261493D01*
X104600000Y-50100000D02*
X98744999Y-55955001D01*
X98744999Y-55955001D02*
X98744999Y-56100000D01*
X103874998Y-66074998D02*
X108400001Y-70600001D01*
X108400001Y-70600001D02*
X108800000Y-71000000D01*
X98744999Y-65261493D02*
X99558504Y-66074998D01*
X99558504Y-66074998D02*
X103874998Y-66074998D01*
X108335000Y-75465000D02*
X108800000Y-75000000D01*
X108800000Y-75000000D02*
X108800000Y-74200000D01*
X107050000Y-75465000D02*
X108335000Y-75465000D01*
X107050000Y-75465000D02*
X107525000Y-75465000D01*
D35*
X99200000Y-67607116D02*
X99200000Y-66900010D01*
X101900000Y-71900000D02*
X99200000Y-69200000D01*
X99200000Y-69200000D02*
X99200000Y-67607116D01*
X94492894Y-66000000D02*
X95200000Y-66000000D01*
X91700000Y-68400000D02*
X94100000Y-66000000D01*
X94100000Y-66000000D02*
X94492894Y-66000000D01*
X119599988Y-71900000D02*
X120900000Y-71900000D01*
X120900000Y-71900000D02*
X131800000Y-82800000D01*
X131800000Y-82800000D02*
X143100000Y-82800000D01*
X143100000Y-82800000D02*
X143800000Y-82100000D01*
X143800000Y-82100000D02*
X143800000Y-80500000D01*
D33*
X94450000Y-75350000D02*
X95850000Y-75350000D01*
X95850000Y-75350000D02*
X96400000Y-74800000D01*
X96400000Y-74800000D02*
X97800000Y-74800000D01*
D35*
X101900000Y-75700000D02*
X101900000Y-74900000D01*
X101900000Y-74900000D02*
X101900000Y-71900000D01*
D33*
X99300000Y-74800000D02*
X101800000Y-74800000D01*
X101800000Y-74800000D02*
X101900000Y-74900000D01*
X97800000Y-74800000D02*
X99300000Y-74800000D01*
X103200000Y-78000000D02*
X101900000Y-78000000D01*
D35*
X101900000Y-76600000D02*
X101900000Y-76400000D01*
X101900000Y-76400000D02*
X101900000Y-75700000D01*
D33*
X103200000Y-76350000D02*
X101950000Y-76350000D01*
X101950000Y-76350000D02*
X101900000Y-76400000D01*
D35*
X76500000Y-68700000D02*
X75900000Y-69300000D01*
X77800000Y-67400000D02*
X76500000Y-68700000D01*
X76500000Y-68700000D02*
X76500000Y-68760000D01*
X76500000Y-68760000D02*
X77720000Y-69980000D01*
X80300000Y-70000000D02*
X80300000Y-68200000D01*
X75900000Y-69300000D02*
X75900000Y-77200000D01*
X80300000Y-68200000D02*
X79500000Y-67400000D01*
X79500000Y-67400000D02*
X77800000Y-67400000D01*
X76450000Y-77750000D02*
X77980000Y-77750000D01*
X75900000Y-77200000D02*
X76450000Y-77750000D01*
X113900000Y-71900000D02*
X104958002Y-71900000D01*
X104958002Y-71900000D02*
X101900000Y-71900000D01*
X97900000Y-78900000D02*
X101000000Y-78900000D01*
X101000000Y-78900000D02*
X101900000Y-78000000D01*
X101900000Y-78000000D02*
X101900000Y-76600000D01*
D33*
X114750000Y-76550000D02*
X114775000Y-76550000D01*
D35*
X113900000Y-71900000D02*
X114200000Y-71900000D01*
X115200000Y-71900000D02*
X113900000Y-71900000D01*
D33*
X114750000Y-76550000D02*
X114750000Y-71950000D01*
X114700000Y-71900000D02*
X114200000Y-71900000D01*
X114750000Y-71950000D02*
X114700000Y-71900000D01*
D35*
X114200000Y-71900000D02*
X114800000Y-71900000D01*
X119599988Y-71900000D02*
X120200000Y-71900000D01*
X120200000Y-71900000D02*
X120799998Y-71900000D01*
X114200000Y-71900000D02*
X115200000Y-71900000D01*
D33*
X120900002Y-72000000D02*
X120800000Y-71899998D01*
D35*
X120799998Y-71900000D02*
X120800000Y-71899998D01*
X83000000Y-70000000D02*
X83000000Y-69500000D01*
X83000000Y-69500000D02*
X84100000Y-68400000D01*
X84100000Y-68400000D02*
X85300000Y-68400000D01*
X83000000Y-70325000D02*
X83000000Y-70000000D01*
X84275000Y-71600000D02*
X83000000Y-70325000D01*
X84300000Y-71600000D02*
X84275000Y-71600000D01*
D33*
X112450000Y-76735000D02*
X114565000Y-76735000D01*
X114565000Y-76735000D02*
X114750000Y-76550000D01*
X85300000Y-68400000D02*
X91700000Y-68400000D01*
D34*
X144500000Y-78100000D02*
X144500000Y-79800000D01*
X144500000Y-79800000D02*
X143800000Y-80500000D01*
D33*
X96400000Y-78900000D02*
X97900000Y-78900000D01*
X94450000Y-78550000D02*
X96050000Y-78550000D01*
X96050000Y-78550000D02*
X96400000Y-78900000D01*
X86050000Y-72950000D02*
X85650000Y-72950000D01*
X85650000Y-72950000D02*
X84300000Y-71600000D01*
D34*
X147050000Y-80500000D02*
X147050000Y-78350000D01*
X147050000Y-78350000D02*
X146800000Y-78100000D01*
X151000000Y-80550000D02*
X147100000Y-80550000D01*
X147100000Y-80550000D02*
X147050000Y-80500000D01*
D33*
X77720000Y-71250000D02*
X76950000Y-71250000D01*
X76950000Y-71250000D02*
X76513999Y-71686001D01*
X76513999Y-71686001D02*
X76513999Y-76513999D01*
X76513999Y-76513999D02*
X76900000Y-76900000D01*
X86910001Y-79125001D02*
X84998005Y-79125001D01*
X80974999Y-81105001D02*
X79757999Y-82322001D01*
X93300000Y-76450000D02*
X93300000Y-78600000D01*
X94450000Y-76150000D02*
X93600000Y-76150000D01*
X79757999Y-82322001D02*
X79250000Y-82830000D01*
X81752000Y-78574998D02*
X80974999Y-79351999D01*
X93300000Y-78600000D02*
X93000000Y-78900000D01*
X93600000Y-76150000D02*
X93300000Y-76450000D01*
X93000000Y-78900000D02*
X87135002Y-78900000D01*
X87135002Y-78900000D02*
X86910001Y-79125001D01*
X80974999Y-79351999D02*
X80974999Y-81105001D01*
X84448002Y-78574998D02*
X81752000Y-78574998D01*
X84998005Y-79125001D02*
X84448002Y-78574998D01*
X76700000Y-78600000D02*
X76700000Y-82782842D01*
X76700000Y-82782842D02*
X77580159Y-83663001D01*
X77580159Y-83663001D02*
X78416999Y-83663001D01*
X78416999Y-83663001D02*
X78742001Y-83337999D01*
X78742001Y-83337999D02*
X79250000Y-82830000D01*
X85124976Y-77674976D02*
X81300000Y-77674976D01*
X81300000Y-77674976D02*
X79325024Y-77674976D01*
X78990000Y-69980000D02*
X81300000Y-72290000D01*
X81300000Y-72290000D02*
X81300000Y-77674976D01*
X86050000Y-77750000D02*
X85200000Y-77750000D01*
X85200000Y-77750000D02*
X85124976Y-77674976D01*
X79325024Y-77674976D02*
X79250000Y-77750000D01*
X79300000Y-77700000D02*
X79250000Y-77750000D01*
X81565600Y-78124987D02*
X80670587Y-79020000D01*
X80670587Y-79020000D02*
X79968420Y-79020000D01*
X84774987Y-78124987D02*
X81565600Y-78124987D01*
X79968420Y-79020000D02*
X79250000Y-79020000D01*
X86050000Y-78550000D02*
X85200000Y-78550000D01*
X85200000Y-78550000D02*
X84774987Y-78124987D01*
X80200000Y-76134315D02*
X80200000Y-76700000D01*
X78990000Y-71250000D02*
X80200000Y-72460000D01*
X80200000Y-72460000D02*
X80200000Y-76134315D01*
X100200000Y-81600000D02*
X99700000Y-81600000D01*
X99700000Y-81600000D02*
X94500000Y-81600000D01*
X99700000Y-80400000D02*
X99700000Y-81477630D01*
X99700000Y-81477630D02*
X99700000Y-81600000D01*
X104800000Y-76350000D02*
X104000000Y-77150000D01*
X91450000Y-80800000D02*
X91450000Y-79950000D01*
X91850000Y-81200000D02*
X91450000Y-80800000D01*
X94500000Y-81600000D02*
X94100000Y-81200000D01*
X103700000Y-79100000D02*
X102700000Y-79100000D01*
X104000000Y-78800000D02*
X103700000Y-79100000D01*
X94100000Y-81200000D02*
X91850000Y-81200000D01*
X102700000Y-79100000D02*
X100200000Y-81600000D01*
X104000000Y-77150000D02*
X104000000Y-78800000D01*
X105985000Y-76735000D02*
X105600000Y-76350000D01*
X105600000Y-76350000D02*
X104800000Y-76350000D01*
X107050000Y-76735000D02*
X105985000Y-76735000D01*
X99300000Y-83300000D02*
X99300000Y-82100000D01*
X94300000Y-82100000D02*
X99300000Y-82100000D01*
X99300000Y-82100000D02*
X100500000Y-82100000D01*
X90650000Y-79950000D02*
X90650000Y-80800000D01*
X90650000Y-80800000D02*
X91550000Y-81700000D01*
X91550000Y-81700000D02*
X93900000Y-81700000D01*
X93900000Y-81700000D02*
X94300000Y-82100000D01*
X100500000Y-82100000D02*
X103000000Y-79600000D01*
X103000000Y-79600000D02*
X104700000Y-79600000D01*
X104700000Y-79600000D02*
X104800000Y-79500000D01*
X104800000Y-79500000D02*
X104800000Y-78000000D01*
X107050000Y-78005000D02*
X104805000Y-78005000D01*
X104805000Y-78005000D02*
X104800000Y-78000000D01*
X106575000Y-78005000D02*
X107050000Y-78005000D01*
X90900000Y-39300000D02*
X90900000Y-40050000D01*
X96494944Y-45644944D02*
X96494944Y-66562469D01*
X90900000Y-40050000D02*
X96494944Y-45644944D01*
X96494944Y-66562469D02*
X92250000Y-70807413D01*
X92250000Y-70807413D02*
X92250000Y-71550000D01*
X90900000Y-39300000D02*
X93500000Y-39300000D01*
X93500000Y-39300000D02*
X93800000Y-39000000D01*
X84262504Y-74462504D02*
X84262504Y-75904097D01*
X81025002Y-67525002D02*
X81025002Y-71225002D01*
X80300000Y-66800000D02*
X81025002Y-67525002D01*
X77500000Y-65700000D02*
X78600000Y-66800000D01*
X84262504Y-75904097D02*
X84262504Y-76469782D01*
X77500000Y-64100000D02*
X77500000Y-65700000D01*
X81025002Y-71225002D02*
X84262504Y-74462504D01*
X78600000Y-66800000D02*
X80300000Y-66800000D01*
X83900000Y-81100000D02*
X84200000Y-80800000D01*
X84200000Y-80800000D02*
X84200000Y-79400000D01*
X82100000Y-81100000D02*
X83900000Y-81100000D01*
X81700000Y-81500000D02*
X82100000Y-81100000D01*
X81700000Y-82965693D02*
X81700000Y-81500000D01*
X82334307Y-83600000D02*
X81700000Y-82965693D01*
X84150000Y-83600000D02*
X82334307Y-83600000D01*
X82334307Y-83600000D02*
X78744999Y-87189308D01*
X78744999Y-87189308D02*
X78744999Y-88761493D01*
X78744999Y-88761493D02*
X79483506Y-89500000D01*
X79483506Y-89500000D02*
X83697492Y-89500000D01*
X83697492Y-89500000D02*
X85000000Y-88197492D01*
X105000000Y-64697492D02*
X106497448Y-63200044D01*
X106497448Y-63200044D02*
X110245600Y-63200044D01*
X110245600Y-63200044D02*
X116200000Y-69154444D01*
X116200000Y-69154444D02*
X116200000Y-79073004D01*
X116200000Y-79073004D02*
X115173004Y-80100000D01*
X115173004Y-80100000D02*
X111200000Y-80100000D01*
X109100000Y-80100000D02*
X103300000Y-80100000D01*
X103300000Y-80100000D02*
X102600000Y-80800000D01*
X102600000Y-80800000D02*
X102600000Y-84400000D01*
X102600000Y-84400000D02*
X103700000Y-85500000D01*
X103700000Y-85500000D02*
X103700000Y-86897492D01*
X103700000Y-86897492D02*
X105000000Y-88197492D01*
X131300000Y-85173002D02*
X131300000Y-88716494D01*
X130516494Y-89500000D02*
X126302508Y-89500000D01*
X131300000Y-88716494D02*
X130516494Y-89500000D01*
X126302508Y-89500000D02*
X125849999Y-89047491D01*
X119600000Y-63200000D02*
X118674998Y-64125002D01*
X123502508Y-63200000D02*
X119600000Y-63200000D01*
X125000000Y-64697492D02*
X123502508Y-63200000D01*
X118674998Y-64125002D02*
X118674998Y-72548000D01*
X118674998Y-72548000D02*
X131300000Y-85173002D01*
X125849999Y-89047491D02*
X125000000Y-88197492D01*
X127200000Y-85800000D02*
X126900000Y-85500000D01*
X126900000Y-85500000D02*
X123850000Y-85500000D01*
X127200000Y-86700000D02*
X127200000Y-85800000D01*
X126552507Y-87347493D02*
X127200000Y-86700000D01*
X125000000Y-88197492D02*
X125849999Y-87347493D01*
X125849999Y-87347493D02*
X126552507Y-87347493D01*
X143700000Y-85000000D02*
X143700000Y-84450000D01*
X151300000Y-82900000D02*
X152200000Y-82000000D01*
X143700000Y-84450000D02*
X145250000Y-82900000D01*
X150800000Y-66100000D02*
X147100000Y-66100000D01*
X145250000Y-82900000D02*
X151300000Y-82900000D01*
X152200000Y-82000000D02*
X152200000Y-67500000D01*
X152200000Y-67500000D02*
X150800000Y-66100000D01*
X147100000Y-66100000D02*
X145697492Y-64697492D01*
X145697492Y-64697492D02*
X145000000Y-64697492D01*
X143700000Y-85000000D02*
X143700000Y-86897492D01*
X143700000Y-86897492D02*
X145000000Y-88197492D01*
X82900000Y-53700000D02*
X86150000Y-56950000D01*
X86150000Y-56950000D02*
X86150000Y-59047492D01*
X82900000Y-40000000D02*
X82900000Y-53700000D01*
X84250000Y-38650000D02*
X82900000Y-40000000D01*
X85000000Y-38650000D02*
X84250000Y-38650000D01*
X85000000Y-36697492D02*
X85000000Y-38650000D01*
X86150000Y-59047492D02*
X85000000Y-60197492D01*
X106750000Y-39500000D02*
X106000000Y-39500000D01*
X116944955Y-48252537D02*
X116944955Y-44344955D01*
X107650000Y-40400000D02*
X106750000Y-39500000D01*
X113000000Y-40400000D02*
X107650000Y-40400000D01*
X116944955Y-44344955D02*
X113000000Y-40400000D01*
X105000000Y-60197492D02*
X116944955Y-48252537D01*
X105000000Y-36697492D02*
X105000000Y-38700000D01*
X105000000Y-38700000D02*
X105800000Y-39500000D01*
X105800000Y-39500000D02*
X106000000Y-39500000D01*
X125000000Y-60197492D02*
X123302508Y-58500000D01*
X123302508Y-58500000D02*
X119600000Y-58500000D01*
X123300000Y-42800000D02*
X125300000Y-42800000D01*
X119600000Y-58500000D02*
X119200000Y-58100000D01*
X119200000Y-58100000D02*
X119200000Y-46900000D01*
X119200000Y-46900000D02*
X123300000Y-42800000D01*
X125300000Y-42800000D02*
X126150000Y-41950000D01*
X126150000Y-41950000D02*
X126150000Y-40500000D01*
X125000000Y-36697492D02*
X125000000Y-39550000D01*
X125000000Y-39550000D02*
X125950000Y-40500000D01*
X125950000Y-40500000D02*
X126150000Y-40500000D01*
X145000000Y-57800008D02*
X145000008Y-57800000D01*
X145000000Y-60197492D02*
X145000000Y-57800008D01*
X146150000Y-40300000D02*
X145700000Y-40750000D01*
X145000000Y-55500000D02*
X145000000Y-41450000D01*
X145000000Y-41450000D02*
X145700000Y-40750000D01*
X146150000Y-39750000D02*
X146150000Y-40300000D01*
X145000000Y-36697492D02*
X145000000Y-38800000D01*
X145000000Y-38800000D02*
X145950000Y-39750000D01*
X145950000Y-39750000D02*
X146150000Y-39750000D01*
X108600000Y-38900000D02*
X112836411Y-38900000D01*
X117844977Y-62800849D02*
X117200000Y-63445826D01*
X121800001Y-84800001D02*
X122300000Y-85300000D01*
X117200000Y-80200000D02*
X121800001Y-84800001D01*
X117200000Y-63445826D02*
X117200000Y-80200000D01*
X117844977Y-43908566D02*
X117844977Y-62800849D01*
X112836411Y-38900000D02*
X117844977Y-43908566D01*
X107540000Y-36697492D02*
X108600000Y-37757492D01*
X108600000Y-37757492D02*
X108600000Y-38900000D01*
X102460000Y-88197492D02*
X102460000Y-85429600D01*
X102460000Y-85429600D02*
X102461429Y-85428171D01*
X82460000Y-88197492D02*
X83202508Y-88197492D01*
X83202508Y-88197492D02*
X84700000Y-86700000D01*
X84700000Y-86700000D02*
X86900000Y-86700000D01*
X86900000Y-86700000D02*
X88400000Y-85200000D01*
X88400000Y-85200000D02*
X88400000Y-84200000D01*
X142400000Y-85400000D02*
X142460000Y-85460000D01*
X142460000Y-85460000D02*
X142460000Y-88197492D01*
X122300000Y-85300000D02*
X122460000Y-85460000D01*
X122460000Y-85460000D02*
X122460000Y-88197492D01*
X147600000Y-39000000D02*
X147540000Y-38940000D01*
X147540000Y-38940000D02*
X147540000Y-36697492D01*
X127500000Y-39000000D02*
X127540000Y-38960000D01*
X127540000Y-38960000D02*
X127540000Y-36697492D01*
X87540000Y-36697492D02*
X87797492Y-36697492D01*
X119920000Y-85020000D02*
X119300001Y-84400001D01*
X116700000Y-81800000D02*
X119300001Y-84400001D01*
X116700000Y-63309415D02*
X116700000Y-81800000D01*
X117394966Y-44094966D02*
X117394966Y-62614449D01*
X106200000Y-37900000D02*
X108100000Y-39800000D01*
X108882508Y-35500000D02*
X106900000Y-35500000D01*
X110080000Y-36697492D02*
X108882508Y-35500000D01*
X117394966Y-62614449D02*
X116700000Y-63309415D01*
X113100000Y-39800000D02*
X117394966Y-44094966D01*
X106900000Y-35500000D02*
X106200000Y-36200000D01*
X108100000Y-39800000D02*
X113100000Y-39800000D01*
X106200000Y-36200000D02*
X106200000Y-37900000D01*
X119300001Y-84400001D02*
X119800000Y-84900000D01*
X85400000Y-82700000D02*
X84600000Y-81900000D01*
X84600000Y-81900000D02*
X82900000Y-81900000D01*
X85400000Y-84200000D02*
X85400000Y-82700000D01*
X84200000Y-85400000D02*
X85400000Y-84200000D01*
X82717492Y-85400000D02*
X84200000Y-85400000D01*
X79920000Y-88197492D02*
X82717492Y-85400000D01*
X139900000Y-84900000D02*
X139920000Y-84920000D01*
X139920000Y-84920000D02*
X139920000Y-88197492D01*
X119800000Y-84900000D02*
X119920000Y-85020000D01*
X119920000Y-85020000D02*
X119920000Y-88197492D01*
X99900000Y-84900000D02*
X99920000Y-84920000D01*
X99920000Y-84920000D02*
X99920000Y-88197492D01*
X142460000Y-64697492D02*
X141062508Y-63300000D01*
X141062508Y-63300000D02*
X134300000Y-63300000D01*
X134300000Y-63300000D02*
X131100000Y-66500000D01*
X131100000Y-66500000D02*
X124262508Y-66500000D01*
X124262508Y-66500000D02*
X123309999Y-65547491D01*
X123309999Y-65547491D02*
X122460000Y-64697492D01*
X94826998Y-59600000D02*
X95000000Y-59600000D01*
X87540000Y-60197492D02*
X89742508Y-62400000D01*
X92026998Y-62400000D02*
X94826998Y-59600000D01*
X89742508Y-62400000D02*
X92026998Y-62400000D01*
X108742508Y-61400000D02*
X113800000Y-61400000D01*
X107540000Y-60197492D02*
X108742508Y-61400000D01*
X113800000Y-61400000D02*
X115600001Y-59599999D01*
X115600001Y-59599999D02*
X116000000Y-59200000D01*
X146690001Y-61047491D02*
X147540000Y-60197492D01*
X145787525Y-61949967D02*
X146690001Y-61047491D01*
X129292475Y-61949967D02*
X145787525Y-61949967D01*
X127540000Y-60197492D02*
X129292475Y-61949967D01*
X147540000Y-60197492D02*
X147540000Y-57799847D01*
X147540000Y-57799847D02*
X147614837Y-57725010D01*
X83309999Y-65547491D02*
X82460000Y-64697492D01*
X86975000Y-66800000D02*
X84562508Y-66800000D01*
X87775000Y-67600000D02*
X86975000Y-66800000D01*
X87800000Y-67600000D02*
X87775000Y-67600000D01*
X84562508Y-66800000D02*
X83309999Y-65547491D01*
X102460000Y-60197492D02*
X104262508Y-62000000D01*
X104262508Y-62000000D02*
X116075008Y-62000000D01*
X116075008Y-62000000D02*
X116174990Y-61900018D01*
X142460000Y-60197492D02*
X142460000Y-58257431D01*
X84862508Y-62600000D02*
X87034341Y-62600000D01*
X82460000Y-60197492D02*
X84862508Y-62600000D01*
X88000025Y-62999999D02*
X87600026Y-62600000D01*
X92799997Y-62999999D02*
X88000025Y-62999999D01*
X87034341Y-62600000D02*
X87600026Y-62600000D01*
X95200000Y-60599996D02*
X92799997Y-62999999D01*
X127540000Y-64697492D02*
X128842508Y-66000000D01*
X130963589Y-66000000D02*
X134113600Y-62849989D01*
X134113600Y-62849989D02*
X145692497Y-62849989D01*
X128842508Y-66000000D02*
X130963589Y-66000000D01*
X145692497Y-62849989D02*
X146690001Y-63847493D01*
X146690001Y-63847493D02*
X147540000Y-64697492D01*
X122460000Y-60197492D02*
X126960000Y-64697492D01*
X126960000Y-64697492D02*
X127540000Y-64697492D01*
X89300000Y-67600000D02*
X89300000Y-66457492D01*
X89300000Y-66457492D02*
X87540000Y-64697492D01*
X99920000Y-60197492D02*
X102422508Y-62700000D01*
X102422508Y-62700000D02*
X116500000Y-62700000D01*
X116500000Y-62700000D02*
X116899999Y-62300001D01*
X116899999Y-62300001D02*
X116899999Y-60599999D01*
X116899999Y-60599999D02*
X116600000Y-60300000D01*
X116600000Y-60300000D02*
X116600000Y-60200000D01*
X90100000Y-63500000D02*
X93400000Y-63500000D01*
X80800000Y-63500000D02*
X90100000Y-63500000D01*
X90100000Y-63500000D02*
X90100000Y-64677492D01*
X90100000Y-64677492D02*
X90080000Y-64697492D01*
X93400000Y-63500000D02*
X95200000Y-61700000D01*
X79920000Y-62620000D02*
X80800000Y-63500000D01*
X79920000Y-60197492D02*
X79920000Y-62620000D01*
X119920000Y-60197492D02*
X121117492Y-59000000D01*
X121117492Y-59000000D02*
X123000000Y-59000000D01*
X123000000Y-59000000D02*
X123700000Y-59700000D01*
X123700000Y-59700000D02*
X123700000Y-60800000D01*
X123700000Y-60800000D02*
X125800000Y-62900000D01*
X125800000Y-62900000D02*
X128282508Y-62900000D01*
X128282508Y-62900000D02*
X130080000Y-64697492D01*
X130080000Y-64697492D02*
X132377514Y-62399978D01*
X149230001Y-63847493D02*
X150080000Y-64697492D01*
X147782486Y-62399978D02*
X149230001Y-63847493D01*
X132377514Y-62399978D02*
X147782486Y-62399978D01*
X90800000Y-67600000D02*
X90800000Y-65417492D01*
X90800000Y-65417492D02*
X90080000Y-64697492D01*
X79920000Y-60197492D02*
X80002508Y-60197492D01*
X107540000Y-85960000D02*
X107540000Y-85840000D01*
X107540000Y-85840000D02*
X107500000Y-85800000D01*
X117700000Y-73500000D02*
X128800000Y-84600000D01*
X118294988Y-43605012D02*
X118294988Y-62987249D01*
X117700000Y-63582237D02*
X117700000Y-73500000D01*
X122400000Y-39500000D02*
X118294988Y-43605012D01*
X128800000Y-84600000D02*
X128800000Y-85800000D01*
X118294988Y-62987249D02*
X117700000Y-63582237D01*
X128800000Y-85800000D02*
X128400000Y-85800000D01*
X128400000Y-85800000D02*
X128300000Y-85900000D01*
X128800000Y-86507106D02*
X128800000Y-85800000D01*
X128800000Y-86937492D02*
X128800000Y-86507106D01*
X127540000Y-88197492D02*
X128800000Y-86937492D01*
X142099999Y-39100001D02*
X141600000Y-39600000D01*
X142460000Y-38740000D02*
X142099999Y-39100001D01*
X142460000Y-36697492D02*
X142460000Y-38740000D01*
X87540000Y-88197492D02*
X89900000Y-85837492D01*
X89900000Y-85837492D02*
X89900000Y-84200000D01*
X147500000Y-85900000D02*
X147540000Y-85940000D01*
X147540000Y-85940000D02*
X147540000Y-88197492D01*
X107540000Y-85960000D02*
X107540000Y-88197492D01*
X122400000Y-39500000D02*
X122460000Y-39440000D01*
X122460000Y-39440000D02*
X122460000Y-36697492D01*
X102500000Y-39500000D02*
X102460000Y-39460000D01*
X102460000Y-39460000D02*
X102460000Y-36697492D01*
X118200000Y-73136411D02*
X130080000Y-85016411D01*
X121800000Y-41300000D02*
X118744999Y-44355001D01*
X130080000Y-85016411D02*
X130080000Y-86995411D01*
X118744999Y-44355001D02*
X118744999Y-63355001D01*
X118744999Y-63355001D02*
X118200000Y-63900000D01*
X118200000Y-63900000D02*
X118200000Y-73136411D01*
X130080000Y-86995411D02*
X130080000Y-88197492D01*
X90080000Y-88197492D02*
X91400000Y-86877492D01*
X91400000Y-86877492D02*
X91400000Y-84200000D01*
X140000000Y-40000000D02*
X139920000Y-39920000D01*
X139920000Y-39920000D02*
X139920000Y-36697492D01*
X119900000Y-40100000D02*
X119920000Y-40080000D01*
X119920000Y-40080000D02*
X119920000Y-36697492D01*
X99900000Y-40100000D02*
X99920000Y-40080000D01*
X99920000Y-40080000D02*
X99920000Y-36697492D01*
X150080000Y-57080000D02*
X149900000Y-56900000D01*
X149900000Y-56900000D02*
X149400001Y-56400001D01*
X150080000Y-60197492D02*
X150080000Y-57080000D01*
X149400001Y-56400001D02*
X133877491Y-56400001D01*
X133877491Y-56400001D02*
X130929999Y-59347493D01*
X130929999Y-59347493D02*
X130080000Y-60197492D01*
X119920000Y-64697492D02*
X119920000Y-64720000D01*
X119920000Y-64720000D02*
X122200000Y-67000000D01*
X122200000Y-67000000D02*
X131400000Y-67000000D01*
X131400000Y-67000000D02*
X134500000Y-63900000D01*
X134500000Y-63900000D02*
X139122508Y-63900000D01*
X139122508Y-63900000D02*
X139920000Y-64697492D01*
X90080000Y-60197492D02*
X93302508Y-60197492D01*
X93302508Y-60197492D02*
X94900000Y-58600000D01*
X113402508Y-60197492D02*
X115500000Y-58100000D01*
X115500000Y-58100000D02*
X116200000Y-58100000D01*
X110080000Y-60197492D02*
X113402508Y-60197492D01*
X80106725Y-64697492D02*
X83009233Y-67600000D01*
X79920000Y-64697492D02*
X80106725Y-64697492D01*
X83009233Y-67600000D02*
X85550000Y-67600000D01*
X85550000Y-67600000D02*
X86300000Y-67600000D01*
X80849991Y-58750009D02*
X79686402Y-58750009D01*
X82250011Y-70986402D02*
X85013609Y-73750000D01*
X85200000Y-73750000D02*
X86050000Y-73750000D01*
X80672800Y-65899978D02*
X82250011Y-67477189D01*
X78675013Y-65475013D02*
X79099978Y-65899978D01*
X82250011Y-67477189D02*
X82250011Y-70986402D01*
X78675013Y-59761398D02*
X78675013Y-65475013D01*
X79686402Y-58750009D02*
X78675013Y-59761398D01*
X82300000Y-57300000D02*
X80849991Y-58750009D01*
X82300000Y-45800000D02*
X82300000Y-57300000D01*
X79099978Y-65899978D02*
X80672800Y-65899978D01*
X77500000Y-41000000D02*
X82300000Y-45800000D01*
X85013609Y-73750000D02*
X85200000Y-73750000D01*
X78225002Y-59474998D02*
X78225002Y-65688591D01*
X84986410Y-74550000D02*
X85200000Y-74550000D01*
X77500000Y-50750000D02*
X81700000Y-54950000D01*
X80600000Y-58200000D02*
X79500000Y-58200000D01*
X85200000Y-74550000D02*
X86050000Y-74550000D01*
X81700000Y-71263590D02*
X84986410Y-74550000D01*
X81700000Y-67563589D02*
X81700000Y-71263590D01*
X79500000Y-58200000D02*
X78225002Y-59474998D01*
X81700000Y-57100000D02*
X80600000Y-58200000D01*
X81700000Y-54950000D02*
X81700000Y-57100000D01*
X80486400Y-66349989D02*
X81700000Y-67563589D01*
X78886400Y-66349989D02*
X80486400Y-66349989D01*
X78225002Y-65688591D02*
X78886400Y-66349989D01*
X98294988Y-49368601D02*
X98294988Y-70755012D01*
X95300000Y-73750000D02*
X94450000Y-73750000D01*
X101763589Y-45900000D02*
X98294988Y-49368601D01*
X98294988Y-70755012D02*
X95300000Y-73750000D01*
X115900002Y-45900000D02*
X101763589Y-45900000D01*
X136200000Y-46200000D02*
X135200000Y-47200000D01*
X135200000Y-47200000D02*
X120000000Y-47200000D01*
X143600000Y-38800000D02*
X136200000Y-46200000D01*
X143850000Y-38800000D02*
X143600000Y-38800000D01*
X87450000Y-79950000D02*
X87450000Y-83750000D01*
X87450000Y-83750000D02*
X86650000Y-84550000D01*
X86650000Y-84550000D02*
X86450000Y-84550000D01*
X92400000Y-75500000D02*
X93350000Y-74550000D01*
X93350000Y-74550000D02*
X94450000Y-74550000D01*
X92400000Y-78000000D02*
X92400000Y-75500000D01*
X99300000Y-89700000D02*
X92700000Y-83100000D01*
X92700000Y-83100000D02*
X92700000Y-82500000D01*
X105500000Y-89700000D02*
X99300000Y-89700000D01*
X106175001Y-89024999D02*
X105500000Y-89700000D01*
X106000000Y-86450000D02*
X106000000Y-87000000D01*
X106000000Y-87000000D02*
X106175001Y-87175001D01*
X106175001Y-87175001D02*
X106175001Y-89024999D01*
X126150000Y-86450000D02*
X124450000Y-86450000D01*
X123700000Y-88700000D02*
X123000000Y-89400000D01*
X124450000Y-86450000D02*
X123700000Y-87200000D01*
X123700000Y-87200000D02*
X123700000Y-88700000D01*
X110400000Y-73700000D02*
X109500000Y-72800000D01*
X123000000Y-89400000D02*
X119300000Y-89400000D01*
X119300000Y-89400000D02*
X110400000Y-80500000D01*
X110400000Y-80500000D02*
X110400000Y-73700000D01*
X109500000Y-72800000D02*
X104000000Y-72800000D01*
X104000000Y-72800000D02*
X102900000Y-73900000D01*
X96500000Y-75900000D02*
X100600000Y-75900000D01*
X100600000Y-75900000D02*
X100900000Y-75600000D01*
X95450000Y-76950000D02*
X96500000Y-75900000D01*
X94450000Y-76950000D02*
X95450000Y-76950000D01*
X146000000Y-85950000D02*
X146300000Y-86250000D01*
X146300000Y-86250000D02*
X146300000Y-88700000D01*
X94450000Y-77750000D02*
X95650000Y-77750000D01*
X96600000Y-76800000D02*
X100900000Y-76800000D01*
X95650000Y-77750000D02*
X96600000Y-76800000D01*
X104600000Y-73300000D02*
X102900000Y-75000000D01*
X119200000Y-90000000D02*
X109900000Y-80700000D01*
X109900000Y-74000000D02*
X109200000Y-73300000D01*
X130800000Y-90000000D02*
X119200000Y-90000000D01*
X131300000Y-89500000D02*
X130800000Y-90000000D01*
X109900000Y-80700000D02*
X109900000Y-74000000D01*
X145500000Y-89500000D02*
X131300000Y-89500000D01*
X109200000Y-73300000D02*
X104600000Y-73300000D01*
X146300000Y-88700000D02*
X145500000Y-89500000D01*
X84050000Y-42050000D02*
X84050000Y-41700000D01*
X84050000Y-41700000D02*
X84050000Y-40950000D01*
X91450000Y-71550000D02*
X91450000Y-70971002D01*
X96044933Y-54044933D02*
X84050000Y-42050000D01*
X91450000Y-70971002D02*
X96044933Y-66376071D01*
X96044933Y-66376071D02*
X96044933Y-54044933D01*
X103700000Y-39100000D02*
X104900000Y-40300000D01*
X86900000Y-75350000D02*
X86050000Y-75350000D01*
X97394966Y-68640036D02*
X90685002Y-75350000D01*
X104900000Y-40300000D02*
X104900000Y-41400000D01*
X103700000Y-38550000D02*
X103700000Y-39100000D01*
X90685002Y-75350000D02*
X86900000Y-75350000D01*
X97394966Y-48905034D02*
X97394966Y-68640036D01*
X104900000Y-41400000D02*
X97394966Y-48905034D01*
X94450000Y-72450000D02*
X94450000Y-72950000D01*
X97844977Y-49182201D02*
X97844977Y-69055023D01*
X97844977Y-69055023D02*
X94450000Y-72450000D01*
X102327191Y-44699987D02*
X97844977Y-49182201D01*
X115900000Y-44699987D02*
X102327191Y-44699987D01*
X122700000Y-40500000D02*
X122700000Y-41800000D01*
X122700000Y-41800000D02*
X119700000Y-44800000D01*
X123850000Y-39550000D02*
X123650000Y-39550000D01*
X123650000Y-39550000D02*
X122700000Y-40500000D01*
X90650000Y-71550000D02*
X90650000Y-69350000D01*
X90650000Y-69350000D02*
X90800000Y-69200000D01*
X89300000Y-70150000D02*
X89300000Y-69200000D01*
X89850000Y-71550000D02*
X89850000Y-70700000D01*
X89850000Y-70700000D02*
X89300000Y-70150000D01*
X88450000Y-70100000D02*
X87975000Y-70100000D01*
X87975000Y-70100000D02*
X87800000Y-69925000D01*
X87800000Y-69925000D02*
X87800000Y-69200000D01*
X89050000Y-71550000D02*
X89050000Y-70700000D01*
X89050000Y-70700000D02*
X88450000Y-70100000D01*
X86800000Y-70600000D02*
X86300000Y-70100000D01*
X86300000Y-70100000D02*
X86300000Y-69200000D01*
X88150000Y-70600000D02*
X86800000Y-70600000D01*
X88250000Y-71550000D02*
X88250000Y-70700000D01*
X88250000Y-70700000D02*
X88150000Y-70600000D01*
X82900000Y-80300000D02*
X82900000Y-79500000D01*
X82900000Y-79500000D02*
X83100000Y-79300000D01*
X84925035Y-77224965D02*
X83690762Y-77224965D01*
X83690762Y-77224965D02*
X83354442Y-76888645D01*
X85200000Y-76950000D02*
X84925035Y-77224965D01*
X86050000Y-76950000D02*
X85200000Y-76950000D01*
X88250000Y-79950000D02*
X88250000Y-82450000D01*
X88250000Y-82450000D02*
X88400000Y-82600000D01*
X89900000Y-82600000D02*
X89900000Y-81875000D01*
X89050000Y-80800000D02*
X89050000Y-79950000D01*
X89900000Y-81875000D02*
X89050000Y-81025000D01*
X89050000Y-81025000D02*
X89050000Y-80800000D01*
X91400000Y-82600000D02*
X91375000Y-82600000D01*
X91375000Y-82600000D02*
X89850000Y-81075000D01*
X89850000Y-81075000D02*
X89850000Y-80800000D01*
X89850000Y-80800000D02*
X89850000Y-79950000D01*
X96340000Y-40272792D02*
X96944955Y-40877747D01*
X93050000Y-70700000D02*
X93050000Y-71550000D01*
X96944955Y-66805045D02*
X93050000Y-70700000D01*
X96340000Y-39000000D02*
X96340000Y-40272792D01*
X96944955Y-40877747D02*
X96944955Y-66805045D01*
D36*
G36*
X142673000Y-79173000D02*
X141100000Y-79173000D01*
X141051399Y-79182667D01*
X141010197Y-79210197D01*
X140982667Y-79251399D01*
X140973000Y-79300000D01*
X140973000Y-81873000D01*
X133127000Y-81873000D01*
X133127000Y-77127000D01*
X142673000Y-77127000D01*
X142673000Y-79173000D01*
X142673000Y-79173000D01*
G37*
X142673000Y-79173000D02*
X141100000Y-79173000D01*
X141051399Y-79182667D01*
X141010197Y-79210197D01*
X140982667Y-79251399D01*
X140973000Y-79300000D01*
X140973000Y-81873000D01*
X133127000Y-81873000D01*
X133127000Y-77127000D01*
X142673000Y-77127000D01*
X142673000Y-79173000D01*
G36*
X148873000Y-75873000D02*
X145200000Y-75873000D01*
X145151399Y-75882667D01*
X145110197Y-75910197D01*
X145082667Y-75951399D01*
X145073000Y-76000000D01*
X145073000Y-79173000D01*
X143927000Y-79173000D01*
X143927000Y-76100000D01*
X143917333Y-76051399D01*
X143889803Y-76010197D01*
X143848601Y-75982667D01*
X143800000Y-75973000D01*
X133127000Y-75973000D01*
X133127000Y-68127000D01*
X148873000Y-68127000D01*
X148873000Y-75873000D01*
X148873000Y-75873000D01*
G37*
X148873000Y-75873000D02*
X145200000Y-75873000D01*
X145151399Y-75882667D01*
X145110197Y-75910197D01*
X145082667Y-75951399D01*
X145073000Y-76000000D01*
X145073000Y-79173000D01*
X143927000Y-79173000D01*
X143927000Y-76100000D01*
X143917333Y-76051399D01*
X143889803Y-76010197D01*
X143848601Y-75982667D01*
X143800000Y-75973000D01*
X133127000Y-75973000D01*
X133127000Y-68127000D01*
X148873000Y-68127000D01*
X148873000Y-75873000D01*
M02*
