G04 #@! TF.GenerationSoftware,KiCad,Pcbnew,(2017-07-16 revision e797af331)-makepkg*
G04 #@! TF.CreationDate,2017-08-01T20:13:45+01:00*
G04 #@! TF.ProjectId,smalltime,736D616C6C74696D652E6B696361645F,rev?*
G04 #@! TF.SameCoordinates,Original
G04 #@! TF.FileFunction,Copper,L2,Bot,Signal*
G04 #@! TF.FilePolarity,Positive*
%FSLAX46Y46*%
G04 Gerber Fmt 4.6, Leading zero omitted, Abs format (unit mm)*
G04 Created by KiCad (PCBNEW (2017-07-16 revision e797af331)-makepkg) date 08/01/17 20:13:45*
%MOMM*%
%LPD*%
G01*
G04 APERTURE LIST*
%ADD10C,1.524000*%
%ADD11C,1.700000*%
%ADD12C,1.016000*%
%ADD13C,2.000000*%
%ADD14O,1.250000X1.000000*%
%ADD15O,1.900000X1.000000*%
%ADD16R,1.800000X1.800000*%
%ADD17C,1.800000*%
%ADD18C,1.000000*%
%ADD19C,0.800000*%
%ADD20C,0.250000*%
%ADD21C,0.350000*%
%ADD22C,0.500000*%
%ADD23C,0.254000*%
G04 APERTURE END LIST*
D10*
X99300000Y-83300000D03*
X99700000Y-80400000D03*
X96700000Y-83300000D03*
D11*
X139920000Y-36697492D03*
X142460000Y-36697492D03*
X145000000Y-36697492D03*
X147540000Y-36697492D03*
X150080000Y-36697492D03*
X150080000Y-60197492D03*
X147540000Y-60197492D03*
X145000000Y-60197492D03*
X142460000Y-60197492D03*
X139920000Y-60197492D03*
X130080000Y-88197492D03*
X127540000Y-88197492D03*
X125000000Y-88197492D03*
X122460000Y-88197492D03*
X119920000Y-88197492D03*
X119920000Y-64697492D03*
X122460000Y-64697492D03*
X125000000Y-64697492D03*
X127540000Y-64697492D03*
X130080000Y-64697492D03*
X99920000Y-36697492D03*
X102460000Y-36697492D03*
X105000000Y-36697492D03*
X107540000Y-36697492D03*
X110080000Y-36697492D03*
X110080000Y-60197492D03*
X107540000Y-60197492D03*
X105000000Y-60197492D03*
X102460000Y-60197492D03*
X99920000Y-60197492D03*
X79920000Y-36697492D03*
X82460000Y-36697492D03*
X85000000Y-36697492D03*
X87540000Y-36697492D03*
X90080000Y-36697492D03*
X90080000Y-60197492D03*
X87540000Y-60197492D03*
X85000000Y-60197492D03*
X82460000Y-60197492D03*
X79920000Y-60197492D03*
X90080000Y-88197492D03*
X87540000Y-88197492D03*
X85000000Y-88197492D03*
X82460000Y-88197492D03*
X79920000Y-88197492D03*
X79920000Y-64697492D03*
X82460000Y-64697492D03*
X85000000Y-64697492D03*
X87540000Y-64697492D03*
X90080000Y-64697492D03*
X110080000Y-88197492D03*
X107540000Y-88197492D03*
X105000000Y-88197492D03*
X102460000Y-88197492D03*
X99920000Y-88197492D03*
X99920000Y-64697492D03*
X102460000Y-64697492D03*
X105000000Y-64697492D03*
X107540000Y-64697492D03*
X110080000Y-64697492D03*
X150080000Y-88197492D03*
X147540000Y-88197492D03*
X145000000Y-88197492D03*
X142460000Y-88197492D03*
X139920000Y-88197492D03*
X139920000Y-64697492D03*
X142460000Y-64697492D03*
X145000000Y-64697492D03*
X147540000Y-64697492D03*
X150080000Y-64697492D03*
X119920000Y-36697492D03*
X122460000Y-36697492D03*
X125000000Y-36697492D03*
X127540000Y-36697492D03*
X130080000Y-36697492D03*
X130080000Y-60197492D03*
X127540000Y-60197492D03*
X125000000Y-60197492D03*
X122460000Y-60197492D03*
X119920000Y-60197492D03*
D12*
X77980000Y-77750000D03*
X79250000Y-77750000D03*
X77980000Y-79020000D03*
X79250000Y-79020000D03*
X77980000Y-80290000D03*
X79250000Y-80290000D03*
X77980000Y-81560000D03*
X79250000Y-81560000D03*
X77980000Y-82830000D03*
X79250000Y-82830000D03*
D13*
X94600000Y-50100000D03*
X104600000Y-50100000D03*
D14*
X150675000Y-77025000D03*
X150675000Y-81475000D03*
D15*
X153675000Y-75075000D03*
X153675000Y-83425000D03*
D16*
X93800000Y-39000000D03*
D17*
X96340000Y-39000000D03*
D13*
X80000000Y-39750000D03*
X80000000Y-46750000D03*
D11*
X77500000Y-41000000D03*
X77500000Y-45500000D03*
D13*
X80000000Y-49500000D03*
X80000000Y-56500000D03*
D11*
X77500000Y-50750000D03*
X77500000Y-55250000D03*
D18*
X78300000Y-75400000D03*
D19*
X113800000Y-79300000D03*
X139999992Y-81000000D03*
X134000000Y-81000000D03*
X137000000Y-81000000D03*
X140000000Y-78000006D03*
X137000000Y-78000000D03*
X134000012Y-78000000D03*
X99300000Y-71900000D03*
X124900000Y-41800000D03*
X86300000Y-43100000D03*
X88600000Y-43900000D03*
X105700000Y-74200000D03*
X85900000Y-71500000D03*
X85800000Y-81300000D03*
X142200000Y-81600000D03*
X145400000Y-81600000D03*
X149300000Y-78700000D03*
X149300000Y-77700000D03*
X147200000Y-84100000D03*
X126100000Y-83300000D03*
X106000000Y-83200000D03*
X143800000Y-41700000D03*
X103700000Y-41500000D03*
X94700000Y-80100000D03*
X108800000Y-71000000D03*
X108800000Y-74200000D03*
D18*
X99200000Y-66900010D03*
X95200000Y-66000000D03*
X113900000Y-71900000D03*
X115200000Y-71900000D03*
X120800000Y-71899998D03*
X119599988Y-71900000D03*
D19*
X83000000Y-70000000D03*
X80300000Y-70000000D03*
X76700000Y-78600000D03*
X76900000Y-76900000D03*
X80200000Y-76700000D03*
X84262504Y-76469782D03*
X77500000Y-64100000D03*
X84200000Y-79400000D03*
X109100000Y-80100000D03*
X111200000Y-80100000D03*
X145000008Y-57800000D03*
X145000000Y-55500000D03*
X122300000Y-85300000D03*
X142460000Y-85460000D03*
X102461429Y-85428171D03*
X108600000Y-38900000D03*
X147600000Y-39000000D03*
X127500000Y-39000000D03*
X139900000Y-84900000D03*
X119300001Y-84400001D03*
X99900000Y-84900000D03*
X147540000Y-57799847D03*
X95000000Y-59600000D03*
X116000000Y-59200000D03*
X116174990Y-61900018D03*
X142460000Y-58257431D03*
X87600026Y-62600000D03*
X95200000Y-60599996D03*
X116600000Y-60200000D03*
X95200000Y-61700000D03*
X147540000Y-85940000D03*
X107500000Y-85800000D03*
X128300000Y-85900000D03*
X141600000Y-39600000D03*
X122400000Y-39500000D03*
X102500000Y-39500000D03*
X121800000Y-41300000D03*
X140000000Y-40000000D03*
X119900000Y-40100000D03*
X99900000Y-40100000D03*
X149900000Y-56900000D03*
X94900000Y-58600000D03*
X116200000Y-58100000D03*
X115900002Y-45900000D03*
X120000000Y-47200000D03*
X92400000Y-78000000D03*
X92700000Y-82500000D03*
X100900000Y-75600000D03*
X102900000Y-73900000D03*
X102900000Y-75000000D03*
X100900000Y-76800000D03*
X115900000Y-44699987D03*
X119700000Y-44800000D03*
X83100000Y-79300000D03*
X83354442Y-76888645D03*
D20*
X77980000Y-79020000D02*
X77780000Y-79020000D01*
X77780000Y-79020000D02*
X76500000Y-80300000D01*
X76500000Y-80300000D02*
X76400000Y-80300000D01*
D21*
X137000000Y-81000000D02*
X139999992Y-81000000D01*
X134000012Y-80999988D02*
X134000000Y-81000000D01*
X134000012Y-78000000D02*
X134000012Y-80999988D01*
X139999994Y-78000000D02*
X140000000Y-78000006D01*
X137000000Y-78000000D02*
X139999994Y-78000000D01*
D20*
X76700000Y-83600000D02*
X77210000Y-83600000D01*
X77210000Y-83600000D02*
X77980000Y-82830000D01*
X76400000Y-83300000D02*
X76700000Y-83600000D01*
X76400000Y-80300000D02*
X76400000Y-83300000D01*
X76400000Y-80300000D02*
X76410000Y-80290000D01*
X76410000Y-80290000D02*
X77980000Y-80290000D01*
D21*
X140600000Y-75800000D02*
X139000000Y-75800000D01*
D20*
X108800000Y-74200000D02*
X108800000Y-71000000D01*
D22*
X95907106Y-66000000D02*
X95200000Y-66000000D01*
X98299990Y-66000000D02*
X95907106Y-66000000D01*
X99200000Y-66900010D02*
X98299990Y-66000000D01*
X119599988Y-71900000D02*
X120799998Y-71900000D01*
X119599988Y-71900000D02*
X120100000Y-71900000D01*
X120100000Y-71900000D02*
X120799998Y-71900000D01*
X114200000Y-71900000D02*
X115200000Y-71900000D01*
X115200000Y-71900000D02*
X115500000Y-71900000D01*
X119599988Y-71900000D02*
X115500000Y-71900000D01*
X120799998Y-71900000D02*
X120800000Y-71899998D01*
X80300000Y-70000000D02*
X83000000Y-70000000D01*
D20*
X76900000Y-76900000D02*
X76900000Y-78400000D01*
X76900000Y-78400000D02*
X76700000Y-78600000D01*
X80200000Y-77265685D02*
X80200000Y-76700000D01*
X80200000Y-78070000D02*
X80200000Y-77265685D01*
X79250000Y-79020000D02*
X80200000Y-78070000D01*
X84200000Y-79400000D02*
X84200000Y-76532286D01*
X84200000Y-76532286D02*
X84262504Y-76469782D01*
X78200000Y-63400000D02*
X83702508Y-63400000D01*
X83702508Y-63400000D02*
X85000000Y-64697492D01*
X77500000Y-64100000D02*
X78200000Y-63400000D01*
X111200000Y-80100000D02*
X109100000Y-80100000D01*
X145000000Y-57600000D02*
X145000000Y-57799992D01*
X145000000Y-57799992D02*
X145000008Y-57800000D01*
X145000000Y-55500000D02*
X145000000Y-57600000D01*
X142400000Y-85400000D02*
X142460000Y-85460000D01*
X127100000Y-38600000D02*
X127125001Y-38574999D01*
X127125001Y-38574999D02*
X147174999Y-38574999D01*
X147174999Y-38574999D02*
X147300000Y-38700000D01*
X147300000Y-38700000D02*
X147600000Y-39000000D01*
X87540000Y-36697492D02*
X87597492Y-36697492D01*
X87597492Y-36697492D02*
X91800000Y-40900000D01*
X91800000Y-40900000D02*
X97200000Y-40900000D01*
X97200000Y-40900000D02*
X99500000Y-38600000D01*
X99500000Y-38600000D02*
X108200000Y-38600000D01*
X130021004Y-85800000D02*
X141292894Y-85800000D01*
X129096002Y-84874998D02*
X130021004Y-85800000D01*
X141292894Y-85800000D02*
X141692894Y-85400000D01*
X121800000Y-85800000D02*
X122725002Y-84874998D01*
X141692894Y-85400000D02*
X142400000Y-85400000D01*
X122725002Y-84874998D02*
X129096002Y-84874998D01*
X108200000Y-38600000D02*
X108900000Y-38600000D01*
X127100000Y-38600000D02*
X108900000Y-38600000D01*
X108900000Y-38600000D02*
X108600000Y-38900000D01*
X82460000Y-88197492D02*
X82502508Y-88197492D01*
X82502508Y-88197492D02*
X84900000Y-85800000D01*
X84900000Y-85800000D02*
X102100000Y-85800000D01*
X102461429Y-85438571D02*
X102461429Y-85428171D01*
X102100000Y-85800000D02*
X102461429Y-85438571D01*
X108600000Y-38900000D02*
X108500000Y-38900000D01*
X108500000Y-38900000D02*
X108200000Y-38600000D01*
X108800000Y-85800000D02*
X121800000Y-85800000D01*
X121800000Y-85800000D02*
X122300000Y-85300000D01*
X108000000Y-85000000D02*
X108800000Y-85800000D01*
X107000000Y-85000000D02*
X108000000Y-85000000D01*
X106200000Y-85800000D02*
X107000000Y-85000000D01*
X102100000Y-85800000D02*
X106200000Y-85800000D01*
X127100000Y-38600000D02*
X127500000Y-39000000D01*
X100399999Y-84400001D02*
X118600000Y-84400001D01*
X118600000Y-84400001D02*
X139400001Y-84400001D01*
X119300001Y-84400001D02*
X118600000Y-84400001D01*
X139400001Y-84400001D02*
X139900000Y-84900000D01*
X99500000Y-85300000D02*
X100399999Y-84400001D01*
X99400000Y-37900000D02*
X110100000Y-37900000D01*
X110100000Y-37900000D02*
X130100000Y-37900000D01*
X110080000Y-36697492D02*
X110080000Y-37899573D01*
X110080000Y-37899573D02*
X110080427Y-37900000D01*
X110080427Y-37900000D02*
X110100000Y-37900000D01*
X130100000Y-37900000D02*
X148877492Y-37900000D01*
X130080000Y-36697492D02*
X130080000Y-37899573D01*
X130080000Y-37899573D02*
X130080427Y-37900000D01*
X130080427Y-37900000D02*
X130100000Y-37900000D01*
X90080000Y-36697492D02*
X90080000Y-37899573D01*
X90080000Y-37899573D02*
X92580427Y-40400000D01*
X92580427Y-40400000D02*
X96900000Y-40400000D01*
X96900000Y-40400000D02*
X99400000Y-37900000D01*
X148877492Y-37900000D02*
X150080000Y-36697492D01*
X99500000Y-85300000D02*
X82800000Y-85300000D01*
X82800000Y-85300000D02*
X79920000Y-88180000D01*
X79920000Y-88180000D02*
X79920000Y-88197492D01*
X99500000Y-85300000D02*
X99900000Y-84900000D01*
X142460000Y-64697492D02*
X144262508Y-66500000D01*
X151000000Y-66500000D02*
X152400000Y-65100000D01*
X144262508Y-66500000D02*
X151000000Y-66500000D01*
X147614837Y-57725010D02*
X147540000Y-57799847D01*
X152400000Y-65100000D02*
X152400000Y-59200000D01*
X152400000Y-59200000D02*
X150925010Y-57725010D01*
X150925010Y-57725010D02*
X147614837Y-57725010D01*
X127540000Y-60197492D02*
X126292519Y-58950011D01*
X126292519Y-58950011D02*
X116349989Y-58950011D01*
X116100000Y-59200000D02*
X116000000Y-59200000D01*
X116349989Y-58950011D02*
X116100000Y-59200000D01*
X82460000Y-64697492D02*
X83762508Y-66000000D01*
X83762508Y-66000000D02*
X85600000Y-66000000D01*
X85600000Y-66000000D02*
X86300000Y-65300000D01*
X86300000Y-65300000D02*
X86300000Y-61437492D01*
X86300000Y-61437492D02*
X87540000Y-60197492D01*
X107540000Y-60197492D02*
X107737492Y-60000000D01*
X107737492Y-60000000D02*
X108000000Y-60000000D01*
X108000000Y-60000000D02*
X108000000Y-60063589D01*
X110886400Y-66550011D02*
X104312519Y-66550011D01*
X108000000Y-60063589D02*
X111850011Y-63913600D01*
X111850011Y-63913600D02*
X111850011Y-65586400D01*
X111850011Y-65586400D02*
X110886400Y-66550011D01*
X104312519Y-66550011D02*
X103309999Y-65547491D01*
X103309999Y-65547491D02*
X102460000Y-64697492D01*
X107540000Y-60197492D02*
X105742508Y-58400000D01*
X105742508Y-58400000D02*
X96200000Y-58400000D01*
X96200000Y-58400000D02*
X95399999Y-59200001D01*
X95399999Y-59200001D02*
X95000000Y-59600000D01*
X127540000Y-60197492D02*
X127397492Y-60197492D01*
X147540000Y-64697492D02*
X148842508Y-66000000D01*
X151900000Y-64700000D02*
X151900000Y-59400000D01*
X148842508Y-66000000D02*
X150600000Y-66000000D01*
X142752580Y-58550011D02*
X142460000Y-58257431D01*
X150600000Y-66000000D02*
X151900000Y-64700000D01*
X151900000Y-59400000D02*
X151050011Y-58550011D01*
X151050011Y-58550011D02*
X142752580Y-58550011D01*
X122460000Y-60197492D02*
X121257492Y-61400000D01*
X116199982Y-61900018D02*
X116174990Y-61900018D01*
X116700000Y-61400000D02*
X116199982Y-61900018D01*
X121257492Y-61400000D02*
X116700000Y-61400000D01*
X87540000Y-62660026D02*
X87600026Y-62600000D01*
X87540000Y-64697492D02*
X87540000Y-62660026D01*
X110700000Y-66100000D02*
X108942508Y-66100000D01*
X108942508Y-66100000D02*
X107540000Y-64697492D01*
X111400000Y-65400000D02*
X110700000Y-66100000D01*
X111400000Y-64100000D02*
X111400000Y-65400000D01*
X108800000Y-61500000D02*
X111400000Y-64100000D01*
X103762508Y-61500000D02*
X108800000Y-61500000D01*
X102460000Y-60197492D02*
X103762508Y-61500000D01*
X95599999Y-60199997D02*
X95200000Y-60599996D01*
X96899996Y-58900000D02*
X95599999Y-60199997D01*
X101162508Y-58900000D02*
X96899996Y-58900000D01*
X102460000Y-60197492D02*
X101162508Y-58900000D01*
X141095001Y-59022491D02*
X150822491Y-59022491D01*
X151400000Y-59600000D02*
X151400000Y-63377492D01*
X150929999Y-63847493D02*
X150080000Y-64697492D01*
X139920000Y-60197492D02*
X141095001Y-59022491D01*
X151400000Y-63377492D02*
X150929999Y-63847493D01*
X150822491Y-59022491D02*
X151400000Y-59600000D01*
X119920000Y-60197492D02*
X116602508Y-60197492D01*
X116602508Y-60197492D02*
X116600000Y-60200000D01*
X99920000Y-60197492D02*
X102222508Y-62500000D01*
X102222508Y-62500000D02*
X107882508Y-62500000D01*
X109230001Y-63847493D02*
X110080000Y-64697492D01*
X107882508Y-62500000D02*
X109230001Y-63847493D01*
X95599999Y-61300001D02*
X95200000Y-61700000D01*
X96702508Y-60197492D02*
X95599999Y-61300001D01*
X99920000Y-60197492D02*
X96702508Y-60197492D01*
X147500000Y-85900000D02*
X147540000Y-85940000D01*
X107200000Y-86300000D02*
X107500000Y-86300000D01*
X107500000Y-86300000D02*
X127100000Y-86300000D01*
X107500000Y-85800000D02*
X107500000Y-86300000D01*
X127100000Y-86300000D02*
X128400000Y-86300000D01*
X128400000Y-86300000D02*
X147100000Y-86300000D01*
X128300000Y-85900000D02*
X128400000Y-86000000D01*
X128400000Y-86000000D02*
X128400000Y-86300000D01*
X128699999Y-39100001D02*
X141100001Y-39100001D01*
X141100001Y-39100001D02*
X141600000Y-39600000D01*
X127900000Y-39900000D02*
X128699999Y-39100001D01*
X122600000Y-39900000D02*
X127900000Y-39900000D01*
X121900000Y-39200000D02*
X122600000Y-39900000D01*
X82460000Y-36697492D02*
X87162508Y-41400000D01*
X87162508Y-41400000D02*
X97400000Y-41400000D01*
X97400000Y-41400000D02*
X99700000Y-39100000D01*
X99700000Y-39100000D02*
X102100000Y-39100000D01*
X102100000Y-39100000D02*
X102725001Y-39725001D01*
X102725001Y-39725001D02*
X108996001Y-39725001D01*
X108996001Y-39725001D02*
X109521002Y-39200000D01*
X109521002Y-39200000D02*
X121900000Y-39200000D01*
X147100000Y-86300000D02*
X147500000Y-85900000D01*
X89437492Y-86300000D02*
X107200000Y-86300000D01*
X87540000Y-88197492D02*
X89437492Y-86300000D01*
X121900000Y-39200000D02*
X122100000Y-39200000D01*
X122100000Y-39200000D02*
X122400000Y-39500000D01*
X102100000Y-39100000D02*
X102500000Y-39500000D01*
X100200000Y-40400000D02*
X99900000Y-40100000D01*
X79920000Y-36697492D02*
X85122508Y-41900000D01*
X85122508Y-41900000D02*
X98100000Y-41900000D01*
X98100000Y-41900000D02*
X99900000Y-40100000D01*
X110100000Y-86800000D02*
X130100000Y-86800000D01*
X130100000Y-86800000D02*
X148682508Y-86800000D01*
X130080000Y-88197492D02*
X130080000Y-86820000D01*
X130080000Y-86820000D02*
X130100000Y-86800000D01*
X91477492Y-86800000D02*
X110100000Y-86800000D01*
X110080000Y-88197492D02*
X110080000Y-86995411D01*
X110080000Y-86995411D02*
X110100000Y-86975411D01*
X110100000Y-86975411D02*
X110100000Y-86800000D01*
X121800000Y-41300000D02*
X121800000Y-40734315D01*
X121800000Y-40734315D02*
X121800000Y-40400000D01*
X118800000Y-40400000D02*
X119500000Y-39700000D01*
X100200000Y-40400000D02*
X118800000Y-40400000D01*
X148682508Y-86800000D02*
X150080000Y-88197492D01*
X90080000Y-88197492D02*
X91477492Y-86800000D01*
X128900000Y-39600000D02*
X139600000Y-39600000D01*
X139600000Y-39600000D02*
X140000000Y-40000000D01*
X128100000Y-40400000D02*
X128900000Y-39600000D01*
X121800000Y-40400000D02*
X128100000Y-40400000D01*
X121100000Y-39700000D02*
X121800000Y-40400000D01*
X119500000Y-39700000D02*
X121100000Y-39700000D01*
X119500000Y-39700000D02*
X119900000Y-40100000D01*
X79920000Y-36697492D02*
X80552508Y-36697492D01*
X150800000Y-56900000D02*
X149900000Y-56900000D01*
X130080000Y-60197492D02*
X128382508Y-58500000D01*
X128382508Y-58500000D02*
X116700000Y-58500000D01*
X116700000Y-58500000D02*
X116300000Y-58100000D01*
X116300000Y-58100000D02*
X116200000Y-58100000D01*
X110080000Y-60197492D02*
X110080000Y-61380000D01*
X110080000Y-61380000D02*
X112300022Y-63600022D01*
X100769999Y-65547491D02*
X99920000Y-64697492D01*
X112300022Y-63600022D02*
X112300022Y-65772800D01*
X112300022Y-65772800D02*
X111072800Y-67000022D01*
X111072800Y-67000022D02*
X102222530Y-67000022D01*
X102222530Y-67000022D02*
X100769999Y-65547491D01*
X94900000Y-58600000D02*
X95600000Y-57900000D01*
X95600000Y-57900000D02*
X107782508Y-57900000D01*
X107782508Y-57900000D02*
X110080000Y-60197492D01*
X87600000Y-66600000D02*
X81822508Y-66600000D01*
X81822508Y-66600000D02*
X79920000Y-64697492D01*
X88800000Y-65400000D02*
X87600000Y-66600000D01*
X88800000Y-61477492D02*
X88800000Y-65400000D01*
X90080000Y-60197492D02*
X88800000Y-61477492D01*
X152900000Y-59000000D02*
X152900000Y-65500000D01*
X142222508Y-67000000D02*
X151400000Y-67000000D01*
X151400000Y-67000000D02*
X152900000Y-65500000D01*
X139920000Y-64697492D02*
X142222508Y-67000000D01*
X129997492Y-60197492D02*
X130080000Y-60197492D01*
X150800000Y-56900000D02*
X152900000Y-59000000D01*
X120000000Y-47200000D02*
X118700000Y-45900000D01*
X116465687Y-45900000D02*
X115900002Y-45900000D01*
X118700000Y-45900000D02*
X116465687Y-45900000D01*
X92700000Y-82500000D02*
X92700000Y-78300000D01*
X92700000Y-78300000D02*
X92400000Y-78000000D01*
X100900000Y-75600000D02*
X101000000Y-75600000D01*
X101000000Y-75600000D02*
X102700000Y-73900000D01*
X102700000Y-73900000D02*
X102900000Y-73900000D01*
X101100000Y-76800000D02*
X102900000Y-75000000D01*
X100900000Y-76800000D02*
X101100000Y-76800000D01*
X116000013Y-44800000D02*
X115900000Y-44699987D01*
X119700000Y-44800000D02*
X116000013Y-44800000D01*
X83354442Y-79045558D02*
X83100000Y-79300000D01*
X83354442Y-76888645D02*
X83354442Y-79045558D01*
D23*
G36*
X154315000Y-73971617D02*
X154156052Y-73940000D01*
X153193948Y-73940000D01*
X152759602Y-74026397D01*
X152391382Y-74272434D01*
X152145345Y-74640654D01*
X152058948Y-75075000D01*
X152145345Y-75509346D01*
X152391382Y-75877566D01*
X152759602Y-76123603D01*
X153193948Y-76210000D01*
X154156052Y-76210000D01*
X154315000Y-76178383D01*
X154315000Y-82321617D01*
X154156052Y-82290000D01*
X153193948Y-82290000D01*
X152759602Y-82376397D01*
X152391382Y-82622434D01*
X152145345Y-82990654D01*
X152058948Y-83425000D01*
X152145345Y-83859346D01*
X152391382Y-84227566D01*
X152759602Y-84473603D01*
X153193948Y-84560000D01*
X154156052Y-84560000D01*
X154315000Y-84528383D01*
X154315000Y-87873000D01*
X151552695Y-87873000D01*
X151339656Y-87357406D01*
X150922283Y-86939304D01*
X150376681Y-86712750D01*
X149785911Y-86712235D01*
X149703568Y-86746258D01*
X149219909Y-86262599D01*
X148973347Y-86097852D01*
X148682508Y-86040000D01*
X148574913Y-86040000D01*
X148575179Y-85735029D01*
X148417942Y-85354485D01*
X148127046Y-85063081D01*
X147746777Y-84905180D01*
X147335029Y-84904821D01*
X146954485Y-85062058D01*
X146663081Y-85352954D01*
X146585413Y-85540000D01*
X143494931Y-85540000D01*
X143495179Y-85255029D01*
X143337942Y-84874485D01*
X143047046Y-84583081D01*
X142666777Y-84425180D01*
X142255029Y-84424821D01*
X141874485Y-84582058D01*
X141816442Y-84640000D01*
X141692894Y-84640000D01*
X141450308Y-84688254D01*
X141402054Y-84697852D01*
X141155493Y-84862599D01*
X140978092Y-85040000D01*
X140934878Y-85040000D01*
X140935179Y-84695029D01*
X140777942Y-84314485D01*
X140487046Y-84023081D01*
X140106777Y-83865180D01*
X139939836Y-83865034D01*
X139937402Y-83862600D01*
X139690840Y-83697853D01*
X139400001Y-83640001D01*
X120003762Y-83640001D01*
X119887047Y-83523082D01*
X119506778Y-83365181D01*
X119095030Y-83364822D01*
X118714486Y-83522059D01*
X118596338Y-83640001D01*
X100671469Y-83640001D01*
X100696757Y-83579100D01*
X100697242Y-83023339D01*
X100485010Y-82509697D01*
X100092370Y-82116371D01*
X99579100Y-81903243D01*
X99023339Y-81902758D01*
X98509697Y-82114990D01*
X98116371Y-82507630D01*
X98006568Y-82772064D01*
X97922397Y-82568857D01*
X97680213Y-82499392D01*
X96879605Y-83300000D01*
X97680213Y-84100608D01*
X97922397Y-84031143D01*
X98000310Y-83812756D01*
X98114990Y-84090303D01*
X98507630Y-84483629D01*
X98643387Y-84540000D01*
X97388646Y-84540000D01*
X97431143Y-84522397D01*
X97500608Y-84280213D01*
X96700000Y-83479605D01*
X95899392Y-84280213D01*
X95968857Y-84522397D01*
X96018198Y-84540000D01*
X82800000Y-84540000D01*
X82509161Y-84597852D01*
X82262599Y-84762599D01*
X80284350Y-86740848D01*
X80216681Y-86712750D01*
X79625911Y-86712235D01*
X79079914Y-86937836D01*
X78661812Y-87355209D01*
X78446806Y-87873000D01*
X75685000Y-87873000D01*
X75685000Y-78853808D01*
X75822058Y-79185515D01*
X76112954Y-79476919D01*
X76493223Y-79634820D01*
X76904971Y-79635179D01*
X76986626Y-79601440D01*
X77138689Y-79628297D01*
X77165392Y-79655000D01*
X77138689Y-79681703D01*
X76968144Y-79711824D01*
X76823909Y-80143055D01*
X76855678Y-80596657D01*
X76968144Y-80868176D01*
X77042091Y-80881236D01*
X77011577Y-80911697D01*
X76837199Y-81331646D01*
X76836802Y-81786359D01*
X77010446Y-82206612D01*
X77042474Y-82238696D01*
X76968144Y-82251824D01*
X76823909Y-82683055D01*
X76855678Y-83136657D01*
X76968144Y-83408176D01*
X77184081Y-83446314D01*
X77800395Y-82830000D01*
X77786253Y-82815858D01*
X77899180Y-82702930D01*
X78060961Y-82703071D01*
X78107070Y-82749180D01*
X78106929Y-82910961D01*
X77994143Y-83023748D01*
X77980000Y-83009605D01*
X77363686Y-83625919D01*
X77401824Y-83841856D01*
X77833055Y-83986091D01*
X78286657Y-83954322D01*
X78558176Y-83841856D01*
X78571236Y-83767909D01*
X78601697Y-83798423D01*
X79021646Y-83972801D01*
X79476359Y-83973198D01*
X79896612Y-83799554D01*
X80218423Y-83478303D01*
X80392801Y-83058354D01*
X80393198Y-82603641D01*
X80224150Y-82194511D01*
X80392801Y-81788354D01*
X80393198Y-81333641D01*
X80224150Y-80924511D01*
X80392801Y-80518354D01*
X80393198Y-80063641D01*
X80224150Y-79654511D01*
X80286244Y-79504971D01*
X82064821Y-79504971D01*
X82222058Y-79885515D01*
X82512954Y-80176919D01*
X82893223Y-80334820D01*
X83304971Y-80335179D01*
X83564192Y-80228072D01*
X83612954Y-80276919D01*
X83993223Y-80434820D01*
X84404971Y-80435179D01*
X84785515Y-80277942D01*
X85076919Y-79987046D01*
X85234820Y-79606777D01*
X85235179Y-79195029D01*
X85077942Y-78814485D01*
X84960000Y-78696337D01*
X84960000Y-78204971D01*
X91364821Y-78204971D01*
X91522058Y-78585515D01*
X91812954Y-78876919D01*
X91940000Y-78929673D01*
X91940000Y-81796239D01*
X91823081Y-81912954D01*
X91665180Y-82293223D01*
X91664821Y-82704971D01*
X91822058Y-83085515D01*
X92112954Y-83376919D01*
X92493223Y-83534820D01*
X92904971Y-83535179D01*
X93285515Y-83377942D01*
X93571653Y-83092302D01*
X95290856Y-83092302D01*
X95318638Y-83647368D01*
X95477603Y-84031143D01*
X95719787Y-84100608D01*
X96520395Y-83300000D01*
X95719787Y-82499392D01*
X95477603Y-82568857D01*
X95290856Y-83092302D01*
X93571653Y-83092302D01*
X93576919Y-83087046D01*
X93734820Y-82706777D01*
X93735157Y-82319787D01*
X95899392Y-82319787D01*
X96700000Y-83120395D01*
X97500608Y-82319787D01*
X97431143Y-82077603D01*
X96907698Y-81890856D01*
X96352632Y-81918638D01*
X95968857Y-82077603D01*
X95899392Y-82319787D01*
X93735157Y-82319787D01*
X93735179Y-82295029D01*
X93577942Y-81914485D01*
X93460000Y-81796337D01*
X93460000Y-80676661D01*
X98302758Y-80676661D01*
X98514990Y-81190303D01*
X98907630Y-81583629D01*
X99420900Y-81796757D01*
X99976661Y-81797242D01*
X100490303Y-81585010D01*
X100600505Y-81475000D01*
X149390315Y-81475000D01*
X149476712Y-81909346D01*
X149722749Y-82277566D01*
X150090969Y-82523603D01*
X150525315Y-82610000D01*
X150824685Y-82610000D01*
X151259031Y-82523603D01*
X151627251Y-82277566D01*
X151873288Y-81909346D01*
X151959685Y-81475000D01*
X151873288Y-81040654D01*
X151627251Y-80672434D01*
X151259031Y-80426397D01*
X150824685Y-80340000D01*
X150525315Y-80340000D01*
X150090969Y-80426397D01*
X149722749Y-80672434D01*
X149476712Y-81040654D01*
X149390315Y-81475000D01*
X100600505Y-81475000D01*
X100883629Y-81192370D01*
X101096757Y-80679100D01*
X101097083Y-80304971D01*
X108064821Y-80304971D01*
X108222058Y-80685515D01*
X108512954Y-80976919D01*
X108893223Y-81134820D01*
X109304971Y-81135179D01*
X109685515Y-80977942D01*
X109803663Y-80860000D01*
X110496239Y-80860000D01*
X110612954Y-80976919D01*
X110993223Y-81134820D01*
X111404971Y-81135179D01*
X111785515Y-80977942D01*
X112076919Y-80687046D01*
X112234820Y-80306777D01*
X112235179Y-79895029D01*
X112077942Y-79514485D01*
X111787046Y-79223081D01*
X111406777Y-79065180D01*
X110995029Y-79064821D01*
X110614485Y-79222058D01*
X110496337Y-79340000D01*
X109803761Y-79340000D01*
X109687046Y-79223081D01*
X109306777Y-79065180D01*
X108895029Y-79064821D01*
X108514485Y-79222058D01*
X108223081Y-79512954D01*
X108065180Y-79893223D01*
X108064821Y-80304971D01*
X101097083Y-80304971D01*
X101097242Y-80123339D01*
X100885010Y-79609697D01*
X100492370Y-79216371D01*
X99979100Y-79003243D01*
X99423339Y-79002758D01*
X98909697Y-79214990D01*
X98516371Y-79607630D01*
X98303243Y-80120900D01*
X98302758Y-80676661D01*
X93460000Y-80676661D01*
X93460000Y-78300000D01*
X93434849Y-78173558D01*
X93435179Y-77795029D01*
X93277942Y-77414485D01*
X92987046Y-77123081D01*
X92606777Y-76965180D01*
X92195029Y-76964821D01*
X91814485Y-77122058D01*
X91523081Y-77412954D01*
X91365180Y-77793223D01*
X91364821Y-78204971D01*
X84960000Y-78204971D01*
X84960000Y-77235938D01*
X85139423Y-77056828D01*
X85297324Y-76676559D01*
X85297683Y-76264811D01*
X85140446Y-75884267D01*
X85061289Y-75804971D01*
X99864821Y-75804971D01*
X100022058Y-76185515D01*
X100036288Y-76199770D01*
X100023081Y-76212954D01*
X99865180Y-76593223D01*
X99864821Y-77004971D01*
X100022058Y-77385515D01*
X100312954Y-77676919D01*
X100693223Y-77834820D01*
X101104971Y-77835179D01*
X101485515Y-77677942D01*
X101776919Y-77387046D01*
X101911242Y-77063560D01*
X101949802Y-77025000D01*
X149390315Y-77025000D01*
X149476712Y-77459346D01*
X149722749Y-77827566D01*
X150090969Y-78073603D01*
X150525315Y-78160000D01*
X150824685Y-78160000D01*
X151259031Y-78073603D01*
X151627251Y-77827566D01*
X151873288Y-77459346D01*
X151959685Y-77025000D01*
X151873288Y-76590654D01*
X151627251Y-76222434D01*
X151259031Y-75976397D01*
X150824685Y-75890000D01*
X150525315Y-75890000D01*
X150090969Y-75976397D01*
X149722749Y-76222434D01*
X149476712Y-76590654D01*
X149390315Y-77025000D01*
X101949802Y-77025000D01*
X102939767Y-76035035D01*
X103104971Y-76035179D01*
X103485515Y-75877942D01*
X103776919Y-75587046D01*
X103934820Y-75206777D01*
X103935179Y-74795029D01*
X103792460Y-74449620D01*
X103934820Y-74106777D01*
X103935179Y-73695029D01*
X103777942Y-73314485D01*
X103487046Y-73023081D01*
X103106777Y-72865180D01*
X102695029Y-72864821D01*
X102314485Y-73022058D01*
X102023081Y-73312954D01*
X101888758Y-73636440D01*
X100960146Y-74565052D01*
X100695029Y-74564821D01*
X100314485Y-74722058D01*
X100023081Y-75012954D01*
X99865180Y-75393223D01*
X99864821Y-75804971D01*
X85061289Y-75804971D01*
X84849550Y-75592863D01*
X84469281Y-75434962D01*
X84057533Y-75434603D01*
X83676989Y-75591840D01*
X83414674Y-75853697D01*
X83149471Y-75853466D01*
X82768927Y-76010703D01*
X82477523Y-76301599D01*
X82319622Y-76681868D01*
X82319263Y-77093616D01*
X82476500Y-77474160D01*
X82594442Y-77592308D01*
X82594442Y-78389021D01*
X82514485Y-78422058D01*
X82223081Y-78712954D01*
X82065180Y-79093223D01*
X82064821Y-79504971D01*
X80286244Y-79504971D01*
X80392801Y-79248354D01*
X80393060Y-78951742D01*
X80737401Y-78607401D01*
X80902148Y-78360839D01*
X80960000Y-78070000D01*
X80960000Y-77403761D01*
X81076919Y-77287046D01*
X81234820Y-76906777D01*
X81235179Y-76495029D01*
X81077942Y-76114485D01*
X80787046Y-75823081D01*
X80406777Y-75665180D01*
X79995029Y-75664821D01*
X79614485Y-75822058D01*
X79323081Y-76112954D01*
X79165180Y-76493223D01*
X79165081Y-76606925D01*
X79023641Y-76606802D01*
X78614511Y-76775850D01*
X78208354Y-76607199D01*
X77898777Y-76606929D01*
X77777942Y-76314485D01*
X77487046Y-76023081D01*
X77106777Y-75865180D01*
X76695029Y-75864821D01*
X76314485Y-76022058D01*
X76023081Y-76312954D01*
X75865180Y-76693223D01*
X75864821Y-77104971D01*
X76022058Y-77485515D01*
X76140000Y-77603663D01*
X76140000Y-77711515D01*
X76114485Y-77722058D01*
X75823081Y-78012954D01*
X75685000Y-78345491D01*
X75685000Y-74014775D01*
X76203803Y-74014775D01*
X76376233Y-74432086D01*
X76695235Y-74751645D01*
X77112244Y-74924803D01*
X77563775Y-74925197D01*
X77981086Y-74752767D01*
X78300645Y-74433765D01*
X78354920Y-74303058D01*
X78408233Y-74432086D01*
X78727235Y-74751645D01*
X79144244Y-74924803D01*
X79595775Y-74925197D01*
X80013086Y-74752767D01*
X80332645Y-74433765D01*
X80505803Y-74016756D01*
X80506197Y-73565225D01*
X80333767Y-73147914D01*
X80014765Y-72828355D01*
X79597756Y-72655197D01*
X79146225Y-72654803D01*
X78728914Y-72827233D01*
X78409355Y-73146235D01*
X78355080Y-73276942D01*
X78301767Y-73147914D01*
X77982765Y-72828355D01*
X77565756Y-72655197D01*
X77114225Y-72654803D01*
X76696914Y-72827233D01*
X76377355Y-73146235D01*
X76204197Y-73563244D01*
X76203803Y-74014775D01*
X75685000Y-74014775D01*
X75685000Y-71204971D01*
X107764821Y-71204971D01*
X107922058Y-71585515D01*
X108040000Y-71703663D01*
X108040000Y-73496239D01*
X107923081Y-73612954D01*
X107765180Y-73993223D01*
X107764821Y-74404971D01*
X107922058Y-74785515D01*
X108212954Y-75076919D01*
X108593223Y-75234820D01*
X109004971Y-75235179D01*
X109385515Y-75077942D01*
X109676919Y-74787046D01*
X109834820Y-74406777D01*
X109835179Y-73995029D01*
X109677942Y-73614485D01*
X109560000Y-73496337D01*
X109560000Y-72124775D01*
X112764803Y-72124775D01*
X112937233Y-72542086D01*
X113256235Y-72861645D01*
X113673244Y-73034803D01*
X114124775Y-73035197D01*
X114542086Y-72862767D01*
X114549734Y-72855132D01*
X114556235Y-72861645D01*
X114973244Y-73034803D01*
X115424775Y-73035197D01*
X115842086Y-72862767D01*
X115919989Y-72785000D01*
X118879712Y-72785000D01*
X118956223Y-72861645D01*
X119373232Y-73034803D01*
X119824763Y-73035197D01*
X120200405Y-72879984D01*
X120573244Y-73034801D01*
X121024775Y-73035195D01*
X121442086Y-72862765D01*
X121761645Y-72543763D01*
X121934803Y-72126754D01*
X121935197Y-71675223D01*
X121762767Y-71257912D01*
X121443765Y-70938353D01*
X121026756Y-70765195D01*
X120575225Y-70764801D01*
X120199583Y-70920014D01*
X119826744Y-70765197D01*
X119375213Y-70764803D01*
X118957902Y-70937233D01*
X118879999Y-71015000D01*
X115920276Y-71015000D01*
X115843765Y-70938355D01*
X115426756Y-70765197D01*
X114975225Y-70764803D01*
X114557914Y-70937233D01*
X114550266Y-70944868D01*
X114543765Y-70938355D01*
X114126756Y-70765197D01*
X113675225Y-70764803D01*
X113257914Y-70937233D01*
X112938355Y-71256235D01*
X112765197Y-71673244D01*
X112764803Y-72124775D01*
X109560000Y-72124775D01*
X109560000Y-71703761D01*
X109676919Y-71587046D01*
X109834820Y-71206777D01*
X109835179Y-70795029D01*
X109677942Y-70414485D01*
X109387046Y-70123081D01*
X109006777Y-69965180D01*
X108595029Y-69964821D01*
X108214485Y-70122058D01*
X107923081Y-70412954D01*
X107765180Y-70793223D01*
X107764821Y-71204971D01*
X75685000Y-71204971D01*
X75685000Y-70204971D01*
X79264821Y-70204971D01*
X79422058Y-70585515D01*
X79712954Y-70876919D01*
X80093223Y-71034820D01*
X80504971Y-71035179D01*
X80868433Y-70885000D01*
X82432415Y-70885000D01*
X82793223Y-71034820D01*
X83204971Y-71035179D01*
X83585515Y-70877942D01*
X83876919Y-70587046D01*
X84034820Y-70206777D01*
X84035179Y-69795029D01*
X83877942Y-69414485D01*
X83587046Y-69123081D01*
X83206777Y-68965180D01*
X82795029Y-68964821D01*
X82431567Y-69115000D01*
X80867585Y-69115000D01*
X80506777Y-68965180D01*
X80095029Y-68964821D01*
X79714485Y-69122058D01*
X79423081Y-69412954D01*
X79265180Y-69793223D01*
X79264821Y-70204971D01*
X75685000Y-70204971D01*
X75685000Y-68934775D01*
X77219803Y-68934775D01*
X77392233Y-69352086D01*
X77711235Y-69671645D01*
X78128244Y-69844803D01*
X78579775Y-69845197D01*
X78997086Y-69672767D01*
X79316645Y-69353765D01*
X79489803Y-68936756D01*
X79490197Y-68485225D01*
X79317767Y-68067914D01*
X78998765Y-67748355D01*
X78581756Y-67575197D01*
X78130225Y-67574803D01*
X77712914Y-67747233D01*
X77393355Y-68066235D01*
X77220197Y-68483244D01*
X77219803Y-68934775D01*
X75685000Y-68934775D01*
X75685000Y-64304971D01*
X76464821Y-64304971D01*
X76622058Y-64685515D01*
X76912954Y-64976919D01*
X77293223Y-65134820D01*
X77704971Y-65135179D01*
X78085515Y-64977942D01*
X78376919Y-64687046D01*
X78435131Y-64546856D01*
X78434743Y-64991581D01*
X78660344Y-65537578D01*
X79077717Y-65955680D01*
X79623319Y-66182234D01*
X80214089Y-66182749D01*
X80296432Y-66148726D01*
X81285107Y-67137401D01*
X81531669Y-67302148D01*
X81822508Y-67360000D01*
X87600000Y-67360000D01*
X87890839Y-67302148D01*
X88137401Y-67137401D01*
X89295237Y-65979565D01*
X89783319Y-66182234D01*
X90374089Y-66182749D01*
X90920086Y-65957148D01*
X91338188Y-65539775D01*
X91564742Y-64994173D01*
X91565257Y-64403403D01*
X91339656Y-63857406D01*
X90922283Y-63439304D01*
X90376681Y-63212750D01*
X89785911Y-63212235D01*
X89560000Y-63305579D01*
X89560000Y-61792294D01*
X89703291Y-61649003D01*
X89783319Y-61682234D01*
X90374089Y-61682749D01*
X90920086Y-61457148D01*
X91338188Y-61039775D01*
X91564742Y-60494173D01*
X91565257Y-59903403D01*
X91339656Y-59357406D01*
X90922283Y-58939304D01*
X90598774Y-58804971D01*
X93864821Y-58804971D01*
X94022058Y-59185515D01*
X94042800Y-59206293D01*
X93965180Y-59393223D01*
X93964821Y-59804971D01*
X94122058Y-60185515D01*
X94213422Y-60277039D01*
X94165180Y-60393219D01*
X94164821Y-60804967D01*
X94307541Y-61150378D01*
X94165180Y-61493223D01*
X94164821Y-61904971D01*
X94322058Y-62285515D01*
X94612954Y-62576919D01*
X94993223Y-62734820D01*
X95404971Y-62735179D01*
X95785515Y-62577942D01*
X96076919Y-62287046D01*
X96234820Y-61906777D01*
X96234966Y-61739836D01*
X97017310Y-60957492D01*
X98627253Y-60957492D01*
X98660344Y-61037578D01*
X99077717Y-61455680D01*
X99623319Y-61682234D01*
X100214089Y-61682749D01*
X100296432Y-61648726D01*
X101685107Y-63037401D01*
X101931669Y-63202148D01*
X102106269Y-63236878D01*
X101619914Y-63437836D01*
X101201812Y-63855209D01*
X101190252Y-63883049D01*
X101179656Y-63857406D01*
X100762283Y-63439304D01*
X100216681Y-63212750D01*
X99625911Y-63212235D01*
X99079914Y-63437836D01*
X98661812Y-63855209D01*
X98435258Y-64400811D01*
X98434743Y-64991581D01*
X98502372Y-65155256D01*
X98299990Y-65114999D01*
X98299985Y-65115000D01*
X95920276Y-65115000D01*
X95843765Y-65038355D01*
X95426756Y-64865197D01*
X94975225Y-64864803D01*
X94557914Y-65037233D01*
X94238355Y-65356235D01*
X94065197Y-65773244D01*
X94064803Y-66224775D01*
X94237233Y-66642086D01*
X94556235Y-66961645D01*
X94973244Y-67134803D01*
X95424775Y-67135197D01*
X95842086Y-66962767D01*
X95919989Y-66885000D01*
X97933410Y-66885000D01*
X98064897Y-67016487D01*
X98064803Y-67124785D01*
X98237233Y-67542096D01*
X98556235Y-67861655D01*
X98973244Y-68034813D01*
X99424775Y-68035207D01*
X99842086Y-67862777D01*
X100161645Y-67543775D01*
X100334803Y-67126766D01*
X100335197Y-66675235D01*
X100162767Y-66257924D01*
X100087613Y-66182639D01*
X100214089Y-66182749D01*
X100296432Y-66148726D01*
X101685129Y-67537423D01*
X101931691Y-67702170D01*
X102222530Y-67760022D01*
X111072800Y-67760022D01*
X111363639Y-67702170D01*
X111610201Y-67537423D01*
X112837423Y-66310201D01*
X113002170Y-66063639D01*
X113060022Y-65772800D01*
X113060022Y-64991581D01*
X118434743Y-64991581D01*
X118660344Y-65537578D01*
X119077717Y-65955680D01*
X119623319Y-66182234D01*
X120214089Y-66182749D01*
X120760086Y-65957148D01*
X121178188Y-65539775D01*
X121189748Y-65511935D01*
X121200344Y-65537578D01*
X121617717Y-65955680D01*
X122163319Y-66182234D01*
X122754089Y-66182749D01*
X123300086Y-65957148D01*
X123718188Y-65539775D01*
X123729748Y-65511935D01*
X123740344Y-65537578D01*
X124157717Y-65955680D01*
X124703319Y-66182234D01*
X125294089Y-66182749D01*
X125840086Y-65957148D01*
X126258188Y-65539775D01*
X126269748Y-65511935D01*
X126280344Y-65537578D01*
X126697717Y-65955680D01*
X127243319Y-66182234D01*
X127834089Y-66182749D01*
X128380086Y-65957148D01*
X128798188Y-65539775D01*
X128809748Y-65511935D01*
X128820344Y-65537578D01*
X129237717Y-65955680D01*
X129783319Y-66182234D01*
X130374089Y-66182749D01*
X130920086Y-65957148D01*
X131338188Y-65539775D01*
X131564742Y-64994173D01*
X131565257Y-64403403D01*
X131339656Y-63857406D01*
X130922283Y-63439304D01*
X130376681Y-63212750D01*
X129785911Y-63212235D01*
X129239914Y-63437836D01*
X128821812Y-63855209D01*
X128810252Y-63883049D01*
X128799656Y-63857406D01*
X128382283Y-63439304D01*
X127836681Y-63212750D01*
X127245911Y-63212235D01*
X126699914Y-63437836D01*
X126281812Y-63855209D01*
X126270252Y-63883049D01*
X126259656Y-63857406D01*
X125842283Y-63439304D01*
X125296681Y-63212750D01*
X124705911Y-63212235D01*
X124159914Y-63437836D01*
X123741812Y-63855209D01*
X123730252Y-63883049D01*
X123719656Y-63857406D01*
X123302283Y-63439304D01*
X122756681Y-63212750D01*
X122165911Y-63212235D01*
X121619914Y-63437836D01*
X121201812Y-63855209D01*
X121190252Y-63883049D01*
X121179656Y-63857406D01*
X120762283Y-63439304D01*
X120216681Y-63212750D01*
X119625911Y-63212235D01*
X119079914Y-63437836D01*
X118661812Y-63855209D01*
X118435258Y-64400811D01*
X118434743Y-64991581D01*
X113060022Y-64991581D01*
X113060022Y-63600022D01*
X113052578Y-63562599D01*
X113002170Y-63309182D01*
X112837423Y-63062621D01*
X111076154Y-61301352D01*
X111338188Y-61039775D01*
X111564742Y-60494173D01*
X111565257Y-59903403D01*
X111359310Y-59404971D01*
X114964821Y-59404971D01*
X115122058Y-59785515D01*
X115412954Y-60076919D01*
X115565052Y-60140075D01*
X115564821Y-60404971D01*
X115722058Y-60785515D01*
X115850530Y-60914211D01*
X115589475Y-61022076D01*
X115298071Y-61312972D01*
X115140170Y-61693241D01*
X115139811Y-62104989D01*
X115297048Y-62485533D01*
X115587944Y-62776937D01*
X115968213Y-62934838D01*
X116379961Y-62935197D01*
X116760505Y-62777960D01*
X117051909Y-62487064D01*
X117187717Y-62160000D01*
X121257492Y-62160000D01*
X121548331Y-62102148D01*
X121794893Y-61937401D01*
X122083291Y-61649003D01*
X122163319Y-61682234D01*
X122754089Y-61682749D01*
X123300086Y-61457148D01*
X123718188Y-61039775D01*
X123729748Y-61011935D01*
X123740344Y-61037578D01*
X124157717Y-61455680D01*
X124703319Y-61682234D01*
X125294089Y-61682749D01*
X125840086Y-61457148D01*
X126258188Y-61039775D01*
X126269748Y-61011935D01*
X126280344Y-61037578D01*
X126697717Y-61455680D01*
X127243319Y-61682234D01*
X127834089Y-61682749D01*
X128380086Y-61457148D01*
X128798188Y-61039775D01*
X128809748Y-61011935D01*
X128820344Y-61037578D01*
X129237717Y-61455680D01*
X129783319Y-61682234D01*
X130374089Y-61682749D01*
X130920086Y-61457148D01*
X131338188Y-61039775D01*
X131564742Y-60494173D01*
X131564744Y-60491581D01*
X138434743Y-60491581D01*
X138660344Y-61037578D01*
X139077717Y-61455680D01*
X139623319Y-61682234D01*
X140214089Y-61682749D01*
X140760086Y-61457148D01*
X141178188Y-61039775D01*
X141189748Y-61011935D01*
X141200344Y-61037578D01*
X141617717Y-61455680D01*
X142163319Y-61682234D01*
X142754089Y-61682749D01*
X143300086Y-61457148D01*
X143718188Y-61039775D01*
X143729748Y-61011935D01*
X143740344Y-61037578D01*
X144157717Y-61455680D01*
X144703319Y-61682234D01*
X145294089Y-61682749D01*
X145840086Y-61457148D01*
X146258188Y-61039775D01*
X146269748Y-61011935D01*
X146280344Y-61037578D01*
X146697717Y-61455680D01*
X147243319Y-61682234D01*
X147834089Y-61682749D01*
X148380086Y-61457148D01*
X148798188Y-61039775D01*
X148809748Y-61011935D01*
X148820344Y-61037578D01*
X149237717Y-61455680D01*
X149783319Y-61682234D01*
X150374089Y-61682749D01*
X150640000Y-61572877D01*
X150640000Y-63062690D01*
X150456709Y-63245981D01*
X150376681Y-63212750D01*
X149785911Y-63212235D01*
X149239914Y-63437836D01*
X148821812Y-63855209D01*
X148810252Y-63883049D01*
X148799656Y-63857406D01*
X148382283Y-63439304D01*
X147836681Y-63212750D01*
X147245911Y-63212235D01*
X146699914Y-63437836D01*
X146281812Y-63855209D01*
X146270252Y-63883049D01*
X146259656Y-63857406D01*
X145842283Y-63439304D01*
X145296681Y-63212750D01*
X144705911Y-63212235D01*
X144159914Y-63437836D01*
X143741812Y-63855209D01*
X143730252Y-63883049D01*
X143719656Y-63857406D01*
X143302283Y-63439304D01*
X142756681Y-63212750D01*
X142165911Y-63212235D01*
X141619914Y-63437836D01*
X141201812Y-63855209D01*
X141190252Y-63883049D01*
X141179656Y-63857406D01*
X140762283Y-63439304D01*
X140216681Y-63212750D01*
X139625911Y-63212235D01*
X139079914Y-63437836D01*
X138661812Y-63855209D01*
X138435258Y-64400811D01*
X138434743Y-64991581D01*
X138660344Y-65537578D01*
X139077717Y-65955680D01*
X139623319Y-66182234D01*
X140214089Y-66182749D01*
X140296432Y-66148726D01*
X141685107Y-67537401D01*
X141931669Y-67702148D01*
X142222508Y-67760000D01*
X151400000Y-67760000D01*
X151690839Y-67702148D01*
X151937401Y-67537401D01*
X153437401Y-66037401D01*
X153602148Y-65790840D01*
X153660000Y-65500000D01*
X153660000Y-59000000D01*
X153604917Y-58723081D01*
X153602148Y-58709160D01*
X153437401Y-58462599D01*
X151337401Y-56362599D01*
X151090839Y-56197852D01*
X150800000Y-56140000D01*
X150603761Y-56140000D01*
X150487046Y-56023081D01*
X150106777Y-55865180D01*
X149695029Y-55864821D01*
X149314485Y-56022058D01*
X149023081Y-56312954D01*
X148865180Y-56693223D01*
X148864943Y-56965010D01*
X148169055Y-56965010D01*
X148127046Y-56922928D01*
X147746777Y-56765027D01*
X147335029Y-56764668D01*
X146954485Y-56921905D01*
X146663081Y-57212801D01*
X146505180Y-57593070D01*
X146505008Y-57790011D01*
X146035017Y-57790011D01*
X146035187Y-57595029D01*
X145877950Y-57214485D01*
X145760000Y-57096329D01*
X145760000Y-56203761D01*
X145876919Y-56087046D01*
X146034820Y-55706777D01*
X146035179Y-55295029D01*
X145877942Y-54914485D01*
X145587046Y-54623081D01*
X145206777Y-54465180D01*
X144795029Y-54464821D01*
X144414485Y-54622058D01*
X144123081Y-54912954D01*
X143965180Y-55293223D01*
X143964821Y-55704971D01*
X144122058Y-56085515D01*
X144240000Y-56203663D01*
X144240000Y-57096247D01*
X144123089Y-57212954D01*
X143965188Y-57593223D01*
X143965016Y-57790011D01*
X143386738Y-57790011D01*
X143337942Y-57671916D01*
X143047046Y-57380512D01*
X142666777Y-57222611D01*
X142255029Y-57222252D01*
X141874485Y-57379489D01*
X141583081Y-57670385D01*
X141425180Y-58050654D01*
X141424995Y-58262491D01*
X141095001Y-58262491D01*
X140804161Y-58320343D01*
X140557600Y-58485090D01*
X140296709Y-58745981D01*
X140216681Y-58712750D01*
X139625911Y-58712235D01*
X139079914Y-58937836D01*
X138661812Y-59355209D01*
X138435258Y-59900811D01*
X138434743Y-60491581D01*
X131564744Y-60491581D01*
X131565257Y-59903403D01*
X131339656Y-59357406D01*
X130922283Y-58939304D01*
X130376681Y-58712750D01*
X129785911Y-58712235D01*
X129703568Y-58746258D01*
X128919909Y-57962599D01*
X128673347Y-57797852D01*
X128382508Y-57740000D01*
X117171123Y-57740000D01*
X117077942Y-57514485D01*
X116787046Y-57223081D01*
X116406777Y-57065180D01*
X115995029Y-57064821D01*
X115614485Y-57222058D01*
X115323081Y-57512954D01*
X115165180Y-57893223D01*
X115164821Y-58304971D01*
X115242726Y-58493517D01*
X115123081Y-58612954D01*
X114965180Y-58993223D01*
X114964821Y-59404971D01*
X111359310Y-59404971D01*
X111339656Y-59357406D01*
X110922283Y-58939304D01*
X110376681Y-58712750D01*
X109785911Y-58712235D01*
X109703568Y-58746258D01*
X108319909Y-57362599D01*
X108073347Y-57197852D01*
X107782508Y-57140000D01*
X95600000Y-57140000D01*
X95309161Y-57197852D01*
X95271403Y-57223081D01*
X95062598Y-57362599D01*
X94860232Y-57564965D01*
X94695029Y-57564821D01*
X94314485Y-57722058D01*
X94023081Y-58012954D01*
X93865180Y-58393223D01*
X93864821Y-58804971D01*
X90598774Y-58804971D01*
X90376681Y-58712750D01*
X89785911Y-58712235D01*
X89239914Y-58937836D01*
X88821812Y-59355209D01*
X88810252Y-59383049D01*
X88799656Y-59357406D01*
X88382283Y-58939304D01*
X87836681Y-58712750D01*
X87245911Y-58712235D01*
X86699914Y-58937836D01*
X86281812Y-59355209D01*
X86270252Y-59383049D01*
X86259656Y-59357406D01*
X85842283Y-58939304D01*
X85296681Y-58712750D01*
X84705911Y-58712235D01*
X84159914Y-58937836D01*
X83741812Y-59355209D01*
X83730252Y-59383049D01*
X83719656Y-59357406D01*
X83302283Y-58939304D01*
X82756681Y-58712750D01*
X82165911Y-58712235D01*
X81619914Y-58937836D01*
X81201812Y-59355209D01*
X81190252Y-59383049D01*
X81179656Y-59357406D01*
X80762283Y-58939304D01*
X80216681Y-58712750D01*
X79625911Y-58712235D01*
X79079914Y-58937836D01*
X78661812Y-59355209D01*
X78435258Y-59900811D01*
X78434743Y-60491581D01*
X78660344Y-61037578D01*
X79077717Y-61455680D01*
X79623319Y-61682234D01*
X80214089Y-61682749D01*
X80760086Y-61457148D01*
X81178188Y-61039775D01*
X81189748Y-61011935D01*
X81200344Y-61037578D01*
X81617717Y-61455680D01*
X82163319Y-61682234D01*
X82754089Y-61682749D01*
X83300086Y-61457148D01*
X83718188Y-61039775D01*
X83729748Y-61011935D01*
X83740344Y-61037578D01*
X84157717Y-61455680D01*
X84703319Y-61682234D01*
X85294089Y-61682749D01*
X85540000Y-61581141D01*
X85540000Y-63313785D01*
X85296681Y-63212750D01*
X84705911Y-63212235D01*
X84623568Y-63246258D01*
X84239909Y-62862599D01*
X83993347Y-62697852D01*
X83702508Y-62640000D01*
X78200000Y-62640000D01*
X77909161Y-62697852D01*
X77909159Y-62697853D01*
X77909160Y-62697853D01*
X77662598Y-62862599D01*
X77460232Y-63064965D01*
X77295029Y-63064821D01*
X76914485Y-63222058D01*
X76623081Y-63512954D01*
X76465180Y-63893223D01*
X76464821Y-64304971D01*
X75685000Y-64304971D01*
X75685000Y-56293958D01*
X76635647Y-56293958D01*
X76715920Y-56545259D01*
X77271279Y-56746718D01*
X77861458Y-56720315D01*
X78284080Y-56545259D01*
X78364352Y-56293960D01*
X78365178Y-56294786D01*
X78364716Y-56823795D01*
X78613106Y-57424943D01*
X79072637Y-57885278D01*
X79673352Y-58134716D01*
X80323795Y-58135284D01*
X80924943Y-57886894D01*
X81385278Y-57427363D01*
X81634716Y-56826648D01*
X81635284Y-56176205D01*
X81386894Y-55575057D01*
X80927363Y-55114722D01*
X80326648Y-54865284D01*
X79676205Y-54864716D01*
X79075057Y-55113106D01*
X78984410Y-55203595D01*
X78970315Y-54888542D01*
X78795259Y-54465920D01*
X78543958Y-54385647D01*
X77679605Y-55250000D01*
X77693748Y-55264143D01*
X77514143Y-55443748D01*
X77500000Y-55429605D01*
X76635647Y-56293958D01*
X75685000Y-56293958D01*
X75685000Y-55021279D01*
X76003282Y-55021279D01*
X76029685Y-55611458D01*
X76204741Y-56034080D01*
X76456042Y-56114353D01*
X77320395Y-55250000D01*
X76456042Y-54385647D01*
X76204741Y-54465920D01*
X76003282Y-55021279D01*
X75685000Y-55021279D01*
X75685000Y-54206042D01*
X76635647Y-54206042D01*
X77500000Y-55070395D01*
X78364353Y-54206042D01*
X78284080Y-53954741D01*
X77728721Y-53753282D01*
X77138542Y-53779685D01*
X76715920Y-53954741D01*
X76635647Y-54206042D01*
X75685000Y-54206042D01*
X75685000Y-51044089D01*
X76014743Y-51044089D01*
X76240344Y-51590086D01*
X76657717Y-52008188D01*
X77203319Y-52234742D01*
X77794089Y-52235257D01*
X78340086Y-52009656D01*
X78758188Y-51592283D01*
X78899265Y-51252532D01*
X93627073Y-51252532D01*
X93725736Y-51519387D01*
X94335461Y-51745908D01*
X94985460Y-51721856D01*
X95474264Y-51519387D01*
X95572927Y-51252532D01*
X94600000Y-50279605D01*
X93627073Y-51252532D01*
X78899265Y-51252532D01*
X78984742Y-51046681D01*
X78984959Y-50797447D01*
X79072637Y-50885278D01*
X79673352Y-51134716D01*
X80323795Y-51135284D01*
X80924943Y-50886894D01*
X81385278Y-50427363D01*
X81631056Y-49835461D01*
X92954092Y-49835461D01*
X92978144Y-50485460D01*
X93180613Y-50974264D01*
X93447468Y-51072927D01*
X94420395Y-50100000D01*
X94779605Y-50100000D01*
X95752532Y-51072927D01*
X96019387Y-50974264D01*
X96223893Y-50423795D01*
X102964716Y-50423795D01*
X103213106Y-51024943D01*
X103672637Y-51485278D01*
X104273352Y-51734716D01*
X104923795Y-51735284D01*
X105524943Y-51486894D01*
X105985278Y-51027363D01*
X106234716Y-50426648D01*
X106235284Y-49776205D01*
X105986894Y-49175057D01*
X105527363Y-48714722D01*
X104926648Y-48465284D01*
X104276205Y-48464716D01*
X103675057Y-48713106D01*
X103214722Y-49172637D01*
X102965284Y-49773352D01*
X102964716Y-50423795D01*
X96223893Y-50423795D01*
X96245908Y-50364539D01*
X96221856Y-49714540D01*
X96019387Y-49225736D01*
X95752532Y-49127073D01*
X94779605Y-50100000D01*
X94420395Y-50100000D01*
X93447468Y-49127073D01*
X93180613Y-49225736D01*
X92954092Y-49835461D01*
X81631056Y-49835461D01*
X81634716Y-49826648D01*
X81635284Y-49176205D01*
X81540772Y-48947468D01*
X93627073Y-48947468D01*
X94600000Y-49920395D01*
X95572927Y-48947468D01*
X95474264Y-48680613D01*
X94864539Y-48454092D01*
X94214540Y-48478144D01*
X93725736Y-48680613D01*
X93627073Y-48947468D01*
X81540772Y-48947468D01*
X81386894Y-48575057D01*
X80937241Y-48124617D01*
X81385278Y-47677363D01*
X81634716Y-47076648D01*
X81635284Y-46426205D01*
X81386894Y-45825057D01*
X80927363Y-45364722D01*
X80326648Y-45115284D01*
X79676205Y-45114716D01*
X79075057Y-45363106D01*
X78984410Y-45453595D01*
X78970315Y-45138542D01*
X78873562Y-44904958D01*
X114864821Y-44904958D01*
X115022058Y-45285502D01*
X115036296Y-45299764D01*
X115023083Y-45312954D01*
X114865182Y-45693223D01*
X114864823Y-46104971D01*
X115022060Y-46485515D01*
X115312956Y-46776919D01*
X115693225Y-46934820D01*
X116104973Y-46935179D01*
X116485517Y-46777942D01*
X116603665Y-46660000D01*
X118385198Y-46660000D01*
X118964965Y-47239767D01*
X118964821Y-47404971D01*
X119122058Y-47785515D01*
X119412954Y-48076919D01*
X119793223Y-48234820D01*
X120204971Y-48235179D01*
X120585515Y-48077942D01*
X120876919Y-47787046D01*
X121034820Y-47406777D01*
X121035179Y-46995029D01*
X120877942Y-46614485D01*
X120587046Y-46323081D01*
X120206777Y-46165180D01*
X120039836Y-46165034D01*
X119709811Y-45835009D01*
X119904971Y-45835179D01*
X120285515Y-45677942D01*
X120576919Y-45387046D01*
X120734820Y-45006777D01*
X120735179Y-44595029D01*
X120577942Y-44214485D01*
X120287046Y-43923081D01*
X119906777Y-43765180D01*
X119495029Y-43764821D01*
X119114485Y-43922058D01*
X118996337Y-44040000D01*
X116703600Y-44040000D01*
X116487046Y-43823068D01*
X116106777Y-43665167D01*
X115695029Y-43664808D01*
X115314485Y-43822045D01*
X115023081Y-44112941D01*
X114865180Y-44493210D01*
X114864821Y-44904958D01*
X78873562Y-44904958D01*
X78795259Y-44715920D01*
X78543958Y-44635647D01*
X77679605Y-45500000D01*
X77693748Y-45514143D01*
X77514143Y-45693748D01*
X77500000Y-45679605D01*
X76635647Y-46543958D01*
X76715920Y-46795259D01*
X77271279Y-46996718D01*
X77861458Y-46970315D01*
X78284080Y-46795259D01*
X78364352Y-46543960D01*
X78365178Y-46544786D01*
X78364716Y-47073795D01*
X78613106Y-47674943D01*
X79062759Y-48125383D01*
X78614722Y-48572637D01*
X78365284Y-49173352D01*
X78364986Y-49514555D01*
X78342283Y-49491812D01*
X77796681Y-49265258D01*
X77205911Y-49264743D01*
X76659914Y-49490344D01*
X76241812Y-49907717D01*
X76015258Y-50453319D01*
X76014743Y-51044089D01*
X75685000Y-51044089D01*
X75685000Y-45271279D01*
X76003282Y-45271279D01*
X76029685Y-45861458D01*
X76204741Y-46284080D01*
X76456042Y-46364353D01*
X77320395Y-45500000D01*
X76456042Y-44635647D01*
X76204741Y-44715920D01*
X76003282Y-45271279D01*
X75685000Y-45271279D01*
X75685000Y-44456042D01*
X76635647Y-44456042D01*
X77500000Y-45320395D01*
X78364353Y-44456042D01*
X78284080Y-44204741D01*
X77728721Y-44003282D01*
X77138542Y-44029685D01*
X76715920Y-44204741D01*
X76635647Y-44456042D01*
X75685000Y-44456042D01*
X75685000Y-41127000D01*
X76014889Y-41127000D01*
X76014743Y-41294089D01*
X76240344Y-41840086D01*
X76657717Y-42258188D01*
X77203319Y-42484742D01*
X77794089Y-42485257D01*
X78340086Y-42259656D01*
X78758188Y-41842283D01*
X78984742Y-41296681D01*
X78984890Y-41127000D01*
X79000000Y-41127000D01*
X79048601Y-41117333D01*
X79052274Y-41114879D01*
X79072637Y-41135278D01*
X79673352Y-41384716D01*
X80323795Y-41385284D01*
X80924943Y-41136894D01*
X81385278Y-40677363D01*
X81634716Y-40076648D01*
X81635230Y-39487524D01*
X84585107Y-42437401D01*
X84831668Y-42602148D01*
X85122508Y-42660000D01*
X98100000Y-42660000D01*
X98390839Y-42602148D01*
X98637401Y-42437401D01*
X99939767Y-41135035D01*
X100075087Y-41135153D01*
X100200000Y-41160000D01*
X118800000Y-41160000D01*
X119090839Y-41102148D01*
X119299071Y-40963012D01*
X119312954Y-40976919D01*
X119693223Y-41134820D01*
X120104971Y-41135179D01*
X120485515Y-40977942D01*
X120776919Y-40687046D01*
X120845964Y-40520766D01*
X120980666Y-40655469D01*
X120923081Y-40712954D01*
X120765180Y-41093223D01*
X120764821Y-41504971D01*
X120922058Y-41885515D01*
X121212954Y-42176919D01*
X121593223Y-42334820D01*
X122004971Y-42335179D01*
X122385515Y-42177942D01*
X122676919Y-41887046D01*
X122834820Y-41506777D01*
X122835122Y-41160000D01*
X128100000Y-41160000D01*
X128390839Y-41102148D01*
X128637401Y-40937401D01*
X129214802Y-40360000D01*
X139028877Y-40360000D01*
X139122058Y-40585515D01*
X139412954Y-40876919D01*
X139793223Y-41034820D01*
X140204971Y-41035179D01*
X140585515Y-40877942D01*
X140876919Y-40587046D01*
X140949176Y-40413030D01*
X141012954Y-40476919D01*
X141393223Y-40634820D01*
X141804971Y-40635179D01*
X142185515Y-40477942D01*
X142476919Y-40187046D01*
X142634820Y-39806777D01*
X142635179Y-39395029D01*
X142610375Y-39334999D01*
X146618547Y-39334999D01*
X146722058Y-39585515D01*
X147012954Y-39876919D01*
X147393223Y-40034820D01*
X147804971Y-40035179D01*
X148185515Y-39877942D01*
X148476919Y-39587046D01*
X148634820Y-39206777D01*
X148635179Y-38795029D01*
X148579386Y-38660000D01*
X148877492Y-38660000D01*
X149168331Y-38602148D01*
X149414893Y-38437401D01*
X149703291Y-38149003D01*
X149783319Y-38182234D01*
X150374089Y-38182749D01*
X150920086Y-37957148D01*
X151338188Y-37539775D01*
X151564742Y-36994173D01*
X151565257Y-36403403D01*
X151451050Y-36127000D01*
X154315000Y-36127000D01*
X154315000Y-73971617D01*
X154315000Y-73971617D01*
G37*
X154315000Y-73971617D02*
X154156052Y-73940000D01*
X153193948Y-73940000D01*
X152759602Y-74026397D01*
X152391382Y-74272434D01*
X152145345Y-74640654D01*
X152058948Y-75075000D01*
X152145345Y-75509346D01*
X152391382Y-75877566D01*
X152759602Y-76123603D01*
X153193948Y-76210000D01*
X154156052Y-76210000D01*
X154315000Y-76178383D01*
X154315000Y-82321617D01*
X154156052Y-82290000D01*
X153193948Y-82290000D01*
X152759602Y-82376397D01*
X152391382Y-82622434D01*
X152145345Y-82990654D01*
X152058948Y-83425000D01*
X152145345Y-83859346D01*
X152391382Y-84227566D01*
X152759602Y-84473603D01*
X153193948Y-84560000D01*
X154156052Y-84560000D01*
X154315000Y-84528383D01*
X154315000Y-87873000D01*
X151552695Y-87873000D01*
X151339656Y-87357406D01*
X150922283Y-86939304D01*
X150376681Y-86712750D01*
X149785911Y-86712235D01*
X149703568Y-86746258D01*
X149219909Y-86262599D01*
X148973347Y-86097852D01*
X148682508Y-86040000D01*
X148574913Y-86040000D01*
X148575179Y-85735029D01*
X148417942Y-85354485D01*
X148127046Y-85063081D01*
X147746777Y-84905180D01*
X147335029Y-84904821D01*
X146954485Y-85062058D01*
X146663081Y-85352954D01*
X146585413Y-85540000D01*
X143494931Y-85540000D01*
X143495179Y-85255029D01*
X143337942Y-84874485D01*
X143047046Y-84583081D01*
X142666777Y-84425180D01*
X142255029Y-84424821D01*
X141874485Y-84582058D01*
X141816442Y-84640000D01*
X141692894Y-84640000D01*
X141450308Y-84688254D01*
X141402054Y-84697852D01*
X141155493Y-84862599D01*
X140978092Y-85040000D01*
X140934878Y-85040000D01*
X140935179Y-84695029D01*
X140777942Y-84314485D01*
X140487046Y-84023081D01*
X140106777Y-83865180D01*
X139939836Y-83865034D01*
X139937402Y-83862600D01*
X139690840Y-83697853D01*
X139400001Y-83640001D01*
X120003762Y-83640001D01*
X119887047Y-83523082D01*
X119506778Y-83365181D01*
X119095030Y-83364822D01*
X118714486Y-83522059D01*
X118596338Y-83640001D01*
X100671469Y-83640001D01*
X100696757Y-83579100D01*
X100697242Y-83023339D01*
X100485010Y-82509697D01*
X100092370Y-82116371D01*
X99579100Y-81903243D01*
X99023339Y-81902758D01*
X98509697Y-82114990D01*
X98116371Y-82507630D01*
X98006568Y-82772064D01*
X97922397Y-82568857D01*
X97680213Y-82499392D01*
X96879605Y-83300000D01*
X97680213Y-84100608D01*
X97922397Y-84031143D01*
X98000310Y-83812756D01*
X98114990Y-84090303D01*
X98507630Y-84483629D01*
X98643387Y-84540000D01*
X97388646Y-84540000D01*
X97431143Y-84522397D01*
X97500608Y-84280213D01*
X96700000Y-83479605D01*
X95899392Y-84280213D01*
X95968857Y-84522397D01*
X96018198Y-84540000D01*
X82800000Y-84540000D01*
X82509161Y-84597852D01*
X82262599Y-84762599D01*
X80284350Y-86740848D01*
X80216681Y-86712750D01*
X79625911Y-86712235D01*
X79079914Y-86937836D01*
X78661812Y-87355209D01*
X78446806Y-87873000D01*
X75685000Y-87873000D01*
X75685000Y-78853808D01*
X75822058Y-79185515D01*
X76112954Y-79476919D01*
X76493223Y-79634820D01*
X76904971Y-79635179D01*
X76986626Y-79601440D01*
X77138689Y-79628297D01*
X77165392Y-79655000D01*
X77138689Y-79681703D01*
X76968144Y-79711824D01*
X76823909Y-80143055D01*
X76855678Y-80596657D01*
X76968144Y-80868176D01*
X77042091Y-80881236D01*
X77011577Y-80911697D01*
X76837199Y-81331646D01*
X76836802Y-81786359D01*
X77010446Y-82206612D01*
X77042474Y-82238696D01*
X76968144Y-82251824D01*
X76823909Y-82683055D01*
X76855678Y-83136657D01*
X76968144Y-83408176D01*
X77184081Y-83446314D01*
X77800395Y-82830000D01*
X77786253Y-82815858D01*
X77899180Y-82702930D01*
X78060961Y-82703071D01*
X78107070Y-82749180D01*
X78106929Y-82910961D01*
X77994143Y-83023748D01*
X77980000Y-83009605D01*
X77363686Y-83625919D01*
X77401824Y-83841856D01*
X77833055Y-83986091D01*
X78286657Y-83954322D01*
X78558176Y-83841856D01*
X78571236Y-83767909D01*
X78601697Y-83798423D01*
X79021646Y-83972801D01*
X79476359Y-83973198D01*
X79896612Y-83799554D01*
X80218423Y-83478303D01*
X80392801Y-83058354D01*
X80393198Y-82603641D01*
X80224150Y-82194511D01*
X80392801Y-81788354D01*
X80393198Y-81333641D01*
X80224150Y-80924511D01*
X80392801Y-80518354D01*
X80393198Y-80063641D01*
X80224150Y-79654511D01*
X80286244Y-79504971D01*
X82064821Y-79504971D01*
X82222058Y-79885515D01*
X82512954Y-80176919D01*
X82893223Y-80334820D01*
X83304971Y-80335179D01*
X83564192Y-80228072D01*
X83612954Y-80276919D01*
X83993223Y-80434820D01*
X84404971Y-80435179D01*
X84785515Y-80277942D01*
X85076919Y-79987046D01*
X85234820Y-79606777D01*
X85235179Y-79195029D01*
X85077942Y-78814485D01*
X84960000Y-78696337D01*
X84960000Y-78204971D01*
X91364821Y-78204971D01*
X91522058Y-78585515D01*
X91812954Y-78876919D01*
X91940000Y-78929673D01*
X91940000Y-81796239D01*
X91823081Y-81912954D01*
X91665180Y-82293223D01*
X91664821Y-82704971D01*
X91822058Y-83085515D01*
X92112954Y-83376919D01*
X92493223Y-83534820D01*
X92904971Y-83535179D01*
X93285515Y-83377942D01*
X93571653Y-83092302D01*
X95290856Y-83092302D01*
X95318638Y-83647368D01*
X95477603Y-84031143D01*
X95719787Y-84100608D01*
X96520395Y-83300000D01*
X95719787Y-82499392D01*
X95477603Y-82568857D01*
X95290856Y-83092302D01*
X93571653Y-83092302D01*
X93576919Y-83087046D01*
X93734820Y-82706777D01*
X93735157Y-82319787D01*
X95899392Y-82319787D01*
X96700000Y-83120395D01*
X97500608Y-82319787D01*
X97431143Y-82077603D01*
X96907698Y-81890856D01*
X96352632Y-81918638D01*
X95968857Y-82077603D01*
X95899392Y-82319787D01*
X93735157Y-82319787D01*
X93735179Y-82295029D01*
X93577942Y-81914485D01*
X93460000Y-81796337D01*
X93460000Y-80676661D01*
X98302758Y-80676661D01*
X98514990Y-81190303D01*
X98907630Y-81583629D01*
X99420900Y-81796757D01*
X99976661Y-81797242D01*
X100490303Y-81585010D01*
X100600505Y-81475000D01*
X149390315Y-81475000D01*
X149476712Y-81909346D01*
X149722749Y-82277566D01*
X150090969Y-82523603D01*
X150525315Y-82610000D01*
X150824685Y-82610000D01*
X151259031Y-82523603D01*
X151627251Y-82277566D01*
X151873288Y-81909346D01*
X151959685Y-81475000D01*
X151873288Y-81040654D01*
X151627251Y-80672434D01*
X151259031Y-80426397D01*
X150824685Y-80340000D01*
X150525315Y-80340000D01*
X150090969Y-80426397D01*
X149722749Y-80672434D01*
X149476712Y-81040654D01*
X149390315Y-81475000D01*
X100600505Y-81475000D01*
X100883629Y-81192370D01*
X101096757Y-80679100D01*
X101097083Y-80304971D01*
X108064821Y-80304971D01*
X108222058Y-80685515D01*
X108512954Y-80976919D01*
X108893223Y-81134820D01*
X109304971Y-81135179D01*
X109685515Y-80977942D01*
X109803663Y-80860000D01*
X110496239Y-80860000D01*
X110612954Y-80976919D01*
X110993223Y-81134820D01*
X111404971Y-81135179D01*
X111785515Y-80977942D01*
X112076919Y-80687046D01*
X112234820Y-80306777D01*
X112235179Y-79895029D01*
X112077942Y-79514485D01*
X111787046Y-79223081D01*
X111406777Y-79065180D01*
X110995029Y-79064821D01*
X110614485Y-79222058D01*
X110496337Y-79340000D01*
X109803761Y-79340000D01*
X109687046Y-79223081D01*
X109306777Y-79065180D01*
X108895029Y-79064821D01*
X108514485Y-79222058D01*
X108223081Y-79512954D01*
X108065180Y-79893223D01*
X108064821Y-80304971D01*
X101097083Y-80304971D01*
X101097242Y-80123339D01*
X100885010Y-79609697D01*
X100492370Y-79216371D01*
X99979100Y-79003243D01*
X99423339Y-79002758D01*
X98909697Y-79214990D01*
X98516371Y-79607630D01*
X98303243Y-80120900D01*
X98302758Y-80676661D01*
X93460000Y-80676661D01*
X93460000Y-78300000D01*
X93434849Y-78173558D01*
X93435179Y-77795029D01*
X93277942Y-77414485D01*
X92987046Y-77123081D01*
X92606777Y-76965180D01*
X92195029Y-76964821D01*
X91814485Y-77122058D01*
X91523081Y-77412954D01*
X91365180Y-77793223D01*
X91364821Y-78204971D01*
X84960000Y-78204971D01*
X84960000Y-77235938D01*
X85139423Y-77056828D01*
X85297324Y-76676559D01*
X85297683Y-76264811D01*
X85140446Y-75884267D01*
X85061289Y-75804971D01*
X99864821Y-75804971D01*
X100022058Y-76185515D01*
X100036288Y-76199770D01*
X100023081Y-76212954D01*
X99865180Y-76593223D01*
X99864821Y-77004971D01*
X100022058Y-77385515D01*
X100312954Y-77676919D01*
X100693223Y-77834820D01*
X101104971Y-77835179D01*
X101485515Y-77677942D01*
X101776919Y-77387046D01*
X101911242Y-77063560D01*
X101949802Y-77025000D01*
X149390315Y-77025000D01*
X149476712Y-77459346D01*
X149722749Y-77827566D01*
X150090969Y-78073603D01*
X150525315Y-78160000D01*
X150824685Y-78160000D01*
X151259031Y-78073603D01*
X151627251Y-77827566D01*
X151873288Y-77459346D01*
X151959685Y-77025000D01*
X151873288Y-76590654D01*
X151627251Y-76222434D01*
X151259031Y-75976397D01*
X150824685Y-75890000D01*
X150525315Y-75890000D01*
X150090969Y-75976397D01*
X149722749Y-76222434D01*
X149476712Y-76590654D01*
X149390315Y-77025000D01*
X101949802Y-77025000D01*
X102939767Y-76035035D01*
X103104971Y-76035179D01*
X103485515Y-75877942D01*
X103776919Y-75587046D01*
X103934820Y-75206777D01*
X103935179Y-74795029D01*
X103792460Y-74449620D01*
X103934820Y-74106777D01*
X103935179Y-73695029D01*
X103777942Y-73314485D01*
X103487046Y-73023081D01*
X103106777Y-72865180D01*
X102695029Y-72864821D01*
X102314485Y-73022058D01*
X102023081Y-73312954D01*
X101888758Y-73636440D01*
X100960146Y-74565052D01*
X100695029Y-74564821D01*
X100314485Y-74722058D01*
X100023081Y-75012954D01*
X99865180Y-75393223D01*
X99864821Y-75804971D01*
X85061289Y-75804971D01*
X84849550Y-75592863D01*
X84469281Y-75434962D01*
X84057533Y-75434603D01*
X83676989Y-75591840D01*
X83414674Y-75853697D01*
X83149471Y-75853466D01*
X82768927Y-76010703D01*
X82477523Y-76301599D01*
X82319622Y-76681868D01*
X82319263Y-77093616D01*
X82476500Y-77474160D01*
X82594442Y-77592308D01*
X82594442Y-78389021D01*
X82514485Y-78422058D01*
X82223081Y-78712954D01*
X82065180Y-79093223D01*
X82064821Y-79504971D01*
X80286244Y-79504971D01*
X80392801Y-79248354D01*
X80393060Y-78951742D01*
X80737401Y-78607401D01*
X80902148Y-78360839D01*
X80960000Y-78070000D01*
X80960000Y-77403761D01*
X81076919Y-77287046D01*
X81234820Y-76906777D01*
X81235179Y-76495029D01*
X81077942Y-76114485D01*
X80787046Y-75823081D01*
X80406777Y-75665180D01*
X79995029Y-75664821D01*
X79614485Y-75822058D01*
X79323081Y-76112954D01*
X79165180Y-76493223D01*
X79165081Y-76606925D01*
X79023641Y-76606802D01*
X78614511Y-76775850D01*
X78208354Y-76607199D01*
X77898777Y-76606929D01*
X77777942Y-76314485D01*
X77487046Y-76023081D01*
X77106777Y-75865180D01*
X76695029Y-75864821D01*
X76314485Y-76022058D01*
X76023081Y-76312954D01*
X75865180Y-76693223D01*
X75864821Y-77104971D01*
X76022058Y-77485515D01*
X76140000Y-77603663D01*
X76140000Y-77711515D01*
X76114485Y-77722058D01*
X75823081Y-78012954D01*
X75685000Y-78345491D01*
X75685000Y-74014775D01*
X76203803Y-74014775D01*
X76376233Y-74432086D01*
X76695235Y-74751645D01*
X77112244Y-74924803D01*
X77563775Y-74925197D01*
X77981086Y-74752767D01*
X78300645Y-74433765D01*
X78354920Y-74303058D01*
X78408233Y-74432086D01*
X78727235Y-74751645D01*
X79144244Y-74924803D01*
X79595775Y-74925197D01*
X80013086Y-74752767D01*
X80332645Y-74433765D01*
X80505803Y-74016756D01*
X80506197Y-73565225D01*
X80333767Y-73147914D01*
X80014765Y-72828355D01*
X79597756Y-72655197D01*
X79146225Y-72654803D01*
X78728914Y-72827233D01*
X78409355Y-73146235D01*
X78355080Y-73276942D01*
X78301767Y-73147914D01*
X77982765Y-72828355D01*
X77565756Y-72655197D01*
X77114225Y-72654803D01*
X76696914Y-72827233D01*
X76377355Y-73146235D01*
X76204197Y-73563244D01*
X76203803Y-74014775D01*
X75685000Y-74014775D01*
X75685000Y-71204971D01*
X107764821Y-71204971D01*
X107922058Y-71585515D01*
X108040000Y-71703663D01*
X108040000Y-73496239D01*
X107923081Y-73612954D01*
X107765180Y-73993223D01*
X107764821Y-74404971D01*
X107922058Y-74785515D01*
X108212954Y-75076919D01*
X108593223Y-75234820D01*
X109004971Y-75235179D01*
X109385515Y-75077942D01*
X109676919Y-74787046D01*
X109834820Y-74406777D01*
X109835179Y-73995029D01*
X109677942Y-73614485D01*
X109560000Y-73496337D01*
X109560000Y-72124775D01*
X112764803Y-72124775D01*
X112937233Y-72542086D01*
X113256235Y-72861645D01*
X113673244Y-73034803D01*
X114124775Y-73035197D01*
X114542086Y-72862767D01*
X114549734Y-72855132D01*
X114556235Y-72861645D01*
X114973244Y-73034803D01*
X115424775Y-73035197D01*
X115842086Y-72862767D01*
X115919989Y-72785000D01*
X118879712Y-72785000D01*
X118956223Y-72861645D01*
X119373232Y-73034803D01*
X119824763Y-73035197D01*
X120200405Y-72879984D01*
X120573244Y-73034801D01*
X121024775Y-73035195D01*
X121442086Y-72862765D01*
X121761645Y-72543763D01*
X121934803Y-72126754D01*
X121935197Y-71675223D01*
X121762767Y-71257912D01*
X121443765Y-70938353D01*
X121026756Y-70765195D01*
X120575225Y-70764801D01*
X120199583Y-70920014D01*
X119826744Y-70765197D01*
X119375213Y-70764803D01*
X118957902Y-70937233D01*
X118879999Y-71015000D01*
X115920276Y-71015000D01*
X115843765Y-70938355D01*
X115426756Y-70765197D01*
X114975225Y-70764803D01*
X114557914Y-70937233D01*
X114550266Y-70944868D01*
X114543765Y-70938355D01*
X114126756Y-70765197D01*
X113675225Y-70764803D01*
X113257914Y-70937233D01*
X112938355Y-71256235D01*
X112765197Y-71673244D01*
X112764803Y-72124775D01*
X109560000Y-72124775D01*
X109560000Y-71703761D01*
X109676919Y-71587046D01*
X109834820Y-71206777D01*
X109835179Y-70795029D01*
X109677942Y-70414485D01*
X109387046Y-70123081D01*
X109006777Y-69965180D01*
X108595029Y-69964821D01*
X108214485Y-70122058D01*
X107923081Y-70412954D01*
X107765180Y-70793223D01*
X107764821Y-71204971D01*
X75685000Y-71204971D01*
X75685000Y-70204971D01*
X79264821Y-70204971D01*
X79422058Y-70585515D01*
X79712954Y-70876919D01*
X80093223Y-71034820D01*
X80504971Y-71035179D01*
X80868433Y-70885000D01*
X82432415Y-70885000D01*
X82793223Y-71034820D01*
X83204971Y-71035179D01*
X83585515Y-70877942D01*
X83876919Y-70587046D01*
X84034820Y-70206777D01*
X84035179Y-69795029D01*
X83877942Y-69414485D01*
X83587046Y-69123081D01*
X83206777Y-68965180D01*
X82795029Y-68964821D01*
X82431567Y-69115000D01*
X80867585Y-69115000D01*
X80506777Y-68965180D01*
X80095029Y-68964821D01*
X79714485Y-69122058D01*
X79423081Y-69412954D01*
X79265180Y-69793223D01*
X79264821Y-70204971D01*
X75685000Y-70204971D01*
X75685000Y-68934775D01*
X77219803Y-68934775D01*
X77392233Y-69352086D01*
X77711235Y-69671645D01*
X78128244Y-69844803D01*
X78579775Y-69845197D01*
X78997086Y-69672767D01*
X79316645Y-69353765D01*
X79489803Y-68936756D01*
X79490197Y-68485225D01*
X79317767Y-68067914D01*
X78998765Y-67748355D01*
X78581756Y-67575197D01*
X78130225Y-67574803D01*
X77712914Y-67747233D01*
X77393355Y-68066235D01*
X77220197Y-68483244D01*
X77219803Y-68934775D01*
X75685000Y-68934775D01*
X75685000Y-64304971D01*
X76464821Y-64304971D01*
X76622058Y-64685515D01*
X76912954Y-64976919D01*
X77293223Y-65134820D01*
X77704971Y-65135179D01*
X78085515Y-64977942D01*
X78376919Y-64687046D01*
X78435131Y-64546856D01*
X78434743Y-64991581D01*
X78660344Y-65537578D01*
X79077717Y-65955680D01*
X79623319Y-66182234D01*
X80214089Y-66182749D01*
X80296432Y-66148726D01*
X81285107Y-67137401D01*
X81531669Y-67302148D01*
X81822508Y-67360000D01*
X87600000Y-67360000D01*
X87890839Y-67302148D01*
X88137401Y-67137401D01*
X89295237Y-65979565D01*
X89783319Y-66182234D01*
X90374089Y-66182749D01*
X90920086Y-65957148D01*
X91338188Y-65539775D01*
X91564742Y-64994173D01*
X91565257Y-64403403D01*
X91339656Y-63857406D01*
X90922283Y-63439304D01*
X90376681Y-63212750D01*
X89785911Y-63212235D01*
X89560000Y-63305579D01*
X89560000Y-61792294D01*
X89703291Y-61649003D01*
X89783319Y-61682234D01*
X90374089Y-61682749D01*
X90920086Y-61457148D01*
X91338188Y-61039775D01*
X91564742Y-60494173D01*
X91565257Y-59903403D01*
X91339656Y-59357406D01*
X90922283Y-58939304D01*
X90598774Y-58804971D01*
X93864821Y-58804971D01*
X94022058Y-59185515D01*
X94042800Y-59206293D01*
X93965180Y-59393223D01*
X93964821Y-59804971D01*
X94122058Y-60185515D01*
X94213422Y-60277039D01*
X94165180Y-60393219D01*
X94164821Y-60804967D01*
X94307541Y-61150378D01*
X94165180Y-61493223D01*
X94164821Y-61904971D01*
X94322058Y-62285515D01*
X94612954Y-62576919D01*
X94993223Y-62734820D01*
X95404971Y-62735179D01*
X95785515Y-62577942D01*
X96076919Y-62287046D01*
X96234820Y-61906777D01*
X96234966Y-61739836D01*
X97017310Y-60957492D01*
X98627253Y-60957492D01*
X98660344Y-61037578D01*
X99077717Y-61455680D01*
X99623319Y-61682234D01*
X100214089Y-61682749D01*
X100296432Y-61648726D01*
X101685107Y-63037401D01*
X101931669Y-63202148D01*
X102106269Y-63236878D01*
X101619914Y-63437836D01*
X101201812Y-63855209D01*
X101190252Y-63883049D01*
X101179656Y-63857406D01*
X100762283Y-63439304D01*
X100216681Y-63212750D01*
X99625911Y-63212235D01*
X99079914Y-63437836D01*
X98661812Y-63855209D01*
X98435258Y-64400811D01*
X98434743Y-64991581D01*
X98502372Y-65155256D01*
X98299990Y-65114999D01*
X98299985Y-65115000D01*
X95920276Y-65115000D01*
X95843765Y-65038355D01*
X95426756Y-64865197D01*
X94975225Y-64864803D01*
X94557914Y-65037233D01*
X94238355Y-65356235D01*
X94065197Y-65773244D01*
X94064803Y-66224775D01*
X94237233Y-66642086D01*
X94556235Y-66961645D01*
X94973244Y-67134803D01*
X95424775Y-67135197D01*
X95842086Y-66962767D01*
X95919989Y-66885000D01*
X97933410Y-66885000D01*
X98064897Y-67016487D01*
X98064803Y-67124785D01*
X98237233Y-67542096D01*
X98556235Y-67861655D01*
X98973244Y-68034813D01*
X99424775Y-68035207D01*
X99842086Y-67862777D01*
X100161645Y-67543775D01*
X100334803Y-67126766D01*
X100335197Y-66675235D01*
X100162767Y-66257924D01*
X100087613Y-66182639D01*
X100214089Y-66182749D01*
X100296432Y-66148726D01*
X101685129Y-67537423D01*
X101931691Y-67702170D01*
X102222530Y-67760022D01*
X111072800Y-67760022D01*
X111363639Y-67702170D01*
X111610201Y-67537423D01*
X112837423Y-66310201D01*
X113002170Y-66063639D01*
X113060022Y-65772800D01*
X113060022Y-64991581D01*
X118434743Y-64991581D01*
X118660344Y-65537578D01*
X119077717Y-65955680D01*
X119623319Y-66182234D01*
X120214089Y-66182749D01*
X120760086Y-65957148D01*
X121178188Y-65539775D01*
X121189748Y-65511935D01*
X121200344Y-65537578D01*
X121617717Y-65955680D01*
X122163319Y-66182234D01*
X122754089Y-66182749D01*
X123300086Y-65957148D01*
X123718188Y-65539775D01*
X123729748Y-65511935D01*
X123740344Y-65537578D01*
X124157717Y-65955680D01*
X124703319Y-66182234D01*
X125294089Y-66182749D01*
X125840086Y-65957148D01*
X126258188Y-65539775D01*
X126269748Y-65511935D01*
X126280344Y-65537578D01*
X126697717Y-65955680D01*
X127243319Y-66182234D01*
X127834089Y-66182749D01*
X128380086Y-65957148D01*
X128798188Y-65539775D01*
X128809748Y-65511935D01*
X128820344Y-65537578D01*
X129237717Y-65955680D01*
X129783319Y-66182234D01*
X130374089Y-66182749D01*
X130920086Y-65957148D01*
X131338188Y-65539775D01*
X131564742Y-64994173D01*
X131565257Y-64403403D01*
X131339656Y-63857406D01*
X130922283Y-63439304D01*
X130376681Y-63212750D01*
X129785911Y-63212235D01*
X129239914Y-63437836D01*
X128821812Y-63855209D01*
X128810252Y-63883049D01*
X128799656Y-63857406D01*
X128382283Y-63439304D01*
X127836681Y-63212750D01*
X127245911Y-63212235D01*
X126699914Y-63437836D01*
X126281812Y-63855209D01*
X126270252Y-63883049D01*
X126259656Y-63857406D01*
X125842283Y-63439304D01*
X125296681Y-63212750D01*
X124705911Y-63212235D01*
X124159914Y-63437836D01*
X123741812Y-63855209D01*
X123730252Y-63883049D01*
X123719656Y-63857406D01*
X123302283Y-63439304D01*
X122756681Y-63212750D01*
X122165911Y-63212235D01*
X121619914Y-63437836D01*
X121201812Y-63855209D01*
X121190252Y-63883049D01*
X121179656Y-63857406D01*
X120762283Y-63439304D01*
X120216681Y-63212750D01*
X119625911Y-63212235D01*
X119079914Y-63437836D01*
X118661812Y-63855209D01*
X118435258Y-64400811D01*
X118434743Y-64991581D01*
X113060022Y-64991581D01*
X113060022Y-63600022D01*
X113052578Y-63562599D01*
X113002170Y-63309182D01*
X112837423Y-63062621D01*
X111076154Y-61301352D01*
X111338188Y-61039775D01*
X111564742Y-60494173D01*
X111565257Y-59903403D01*
X111359310Y-59404971D01*
X114964821Y-59404971D01*
X115122058Y-59785515D01*
X115412954Y-60076919D01*
X115565052Y-60140075D01*
X115564821Y-60404971D01*
X115722058Y-60785515D01*
X115850530Y-60914211D01*
X115589475Y-61022076D01*
X115298071Y-61312972D01*
X115140170Y-61693241D01*
X115139811Y-62104989D01*
X115297048Y-62485533D01*
X115587944Y-62776937D01*
X115968213Y-62934838D01*
X116379961Y-62935197D01*
X116760505Y-62777960D01*
X117051909Y-62487064D01*
X117187717Y-62160000D01*
X121257492Y-62160000D01*
X121548331Y-62102148D01*
X121794893Y-61937401D01*
X122083291Y-61649003D01*
X122163319Y-61682234D01*
X122754089Y-61682749D01*
X123300086Y-61457148D01*
X123718188Y-61039775D01*
X123729748Y-61011935D01*
X123740344Y-61037578D01*
X124157717Y-61455680D01*
X124703319Y-61682234D01*
X125294089Y-61682749D01*
X125840086Y-61457148D01*
X126258188Y-61039775D01*
X126269748Y-61011935D01*
X126280344Y-61037578D01*
X126697717Y-61455680D01*
X127243319Y-61682234D01*
X127834089Y-61682749D01*
X128380086Y-61457148D01*
X128798188Y-61039775D01*
X128809748Y-61011935D01*
X128820344Y-61037578D01*
X129237717Y-61455680D01*
X129783319Y-61682234D01*
X130374089Y-61682749D01*
X130920086Y-61457148D01*
X131338188Y-61039775D01*
X131564742Y-60494173D01*
X131564744Y-60491581D01*
X138434743Y-60491581D01*
X138660344Y-61037578D01*
X139077717Y-61455680D01*
X139623319Y-61682234D01*
X140214089Y-61682749D01*
X140760086Y-61457148D01*
X141178188Y-61039775D01*
X141189748Y-61011935D01*
X141200344Y-61037578D01*
X141617717Y-61455680D01*
X142163319Y-61682234D01*
X142754089Y-61682749D01*
X143300086Y-61457148D01*
X143718188Y-61039775D01*
X143729748Y-61011935D01*
X143740344Y-61037578D01*
X144157717Y-61455680D01*
X144703319Y-61682234D01*
X145294089Y-61682749D01*
X145840086Y-61457148D01*
X146258188Y-61039775D01*
X146269748Y-61011935D01*
X146280344Y-61037578D01*
X146697717Y-61455680D01*
X147243319Y-61682234D01*
X147834089Y-61682749D01*
X148380086Y-61457148D01*
X148798188Y-61039775D01*
X148809748Y-61011935D01*
X148820344Y-61037578D01*
X149237717Y-61455680D01*
X149783319Y-61682234D01*
X150374089Y-61682749D01*
X150640000Y-61572877D01*
X150640000Y-63062690D01*
X150456709Y-63245981D01*
X150376681Y-63212750D01*
X149785911Y-63212235D01*
X149239914Y-63437836D01*
X148821812Y-63855209D01*
X148810252Y-63883049D01*
X148799656Y-63857406D01*
X148382283Y-63439304D01*
X147836681Y-63212750D01*
X147245911Y-63212235D01*
X146699914Y-63437836D01*
X146281812Y-63855209D01*
X146270252Y-63883049D01*
X146259656Y-63857406D01*
X145842283Y-63439304D01*
X145296681Y-63212750D01*
X144705911Y-63212235D01*
X144159914Y-63437836D01*
X143741812Y-63855209D01*
X143730252Y-63883049D01*
X143719656Y-63857406D01*
X143302283Y-63439304D01*
X142756681Y-63212750D01*
X142165911Y-63212235D01*
X141619914Y-63437836D01*
X141201812Y-63855209D01*
X141190252Y-63883049D01*
X141179656Y-63857406D01*
X140762283Y-63439304D01*
X140216681Y-63212750D01*
X139625911Y-63212235D01*
X139079914Y-63437836D01*
X138661812Y-63855209D01*
X138435258Y-64400811D01*
X138434743Y-64991581D01*
X138660344Y-65537578D01*
X139077717Y-65955680D01*
X139623319Y-66182234D01*
X140214089Y-66182749D01*
X140296432Y-66148726D01*
X141685107Y-67537401D01*
X141931669Y-67702148D01*
X142222508Y-67760000D01*
X151400000Y-67760000D01*
X151690839Y-67702148D01*
X151937401Y-67537401D01*
X153437401Y-66037401D01*
X153602148Y-65790840D01*
X153660000Y-65500000D01*
X153660000Y-59000000D01*
X153604917Y-58723081D01*
X153602148Y-58709160D01*
X153437401Y-58462599D01*
X151337401Y-56362599D01*
X151090839Y-56197852D01*
X150800000Y-56140000D01*
X150603761Y-56140000D01*
X150487046Y-56023081D01*
X150106777Y-55865180D01*
X149695029Y-55864821D01*
X149314485Y-56022058D01*
X149023081Y-56312954D01*
X148865180Y-56693223D01*
X148864943Y-56965010D01*
X148169055Y-56965010D01*
X148127046Y-56922928D01*
X147746777Y-56765027D01*
X147335029Y-56764668D01*
X146954485Y-56921905D01*
X146663081Y-57212801D01*
X146505180Y-57593070D01*
X146505008Y-57790011D01*
X146035017Y-57790011D01*
X146035187Y-57595029D01*
X145877950Y-57214485D01*
X145760000Y-57096329D01*
X145760000Y-56203761D01*
X145876919Y-56087046D01*
X146034820Y-55706777D01*
X146035179Y-55295029D01*
X145877942Y-54914485D01*
X145587046Y-54623081D01*
X145206777Y-54465180D01*
X144795029Y-54464821D01*
X144414485Y-54622058D01*
X144123081Y-54912954D01*
X143965180Y-55293223D01*
X143964821Y-55704971D01*
X144122058Y-56085515D01*
X144240000Y-56203663D01*
X144240000Y-57096247D01*
X144123089Y-57212954D01*
X143965188Y-57593223D01*
X143965016Y-57790011D01*
X143386738Y-57790011D01*
X143337942Y-57671916D01*
X143047046Y-57380512D01*
X142666777Y-57222611D01*
X142255029Y-57222252D01*
X141874485Y-57379489D01*
X141583081Y-57670385D01*
X141425180Y-58050654D01*
X141424995Y-58262491D01*
X141095001Y-58262491D01*
X140804161Y-58320343D01*
X140557600Y-58485090D01*
X140296709Y-58745981D01*
X140216681Y-58712750D01*
X139625911Y-58712235D01*
X139079914Y-58937836D01*
X138661812Y-59355209D01*
X138435258Y-59900811D01*
X138434743Y-60491581D01*
X131564744Y-60491581D01*
X131565257Y-59903403D01*
X131339656Y-59357406D01*
X130922283Y-58939304D01*
X130376681Y-58712750D01*
X129785911Y-58712235D01*
X129703568Y-58746258D01*
X128919909Y-57962599D01*
X128673347Y-57797852D01*
X128382508Y-57740000D01*
X117171123Y-57740000D01*
X117077942Y-57514485D01*
X116787046Y-57223081D01*
X116406777Y-57065180D01*
X115995029Y-57064821D01*
X115614485Y-57222058D01*
X115323081Y-57512954D01*
X115165180Y-57893223D01*
X115164821Y-58304971D01*
X115242726Y-58493517D01*
X115123081Y-58612954D01*
X114965180Y-58993223D01*
X114964821Y-59404971D01*
X111359310Y-59404971D01*
X111339656Y-59357406D01*
X110922283Y-58939304D01*
X110376681Y-58712750D01*
X109785911Y-58712235D01*
X109703568Y-58746258D01*
X108319909Y-57362599D01*
X108073347Y-57197852D01*
X107782508Y-57140000D01*
X95600000Y-57140000D01*
X95309161Y-57197852D01*
X95271403Y-57223081D01*
X95062598Y-57362599D01*
X94860232Y-57564965D01*
X94695029Y-57564821D01*
X94314485Y-57722058D01*
X94023081Y-58012954D01*
X93865180Y-58393223D01*
X93864821Y-58804971D01*
X90598774Y-58804971D01*
X90376681Y-58712750D01*
X89785911Y-58712235D01*
X89239914Y-58937836D01*
X88821812Y-59355209D01*
X88810252Y-59383049D01*
X88799656Y-59357406D01*
X88382283Y-58939304D01*
X87836681Y-58712750D01*
X87245911Y-58712235D01*
X86699914Y-58937836D01*
X86281812Y-59355209D01*
X86270252Y-59383049D01*
X86259656Y-59357406D01*
X85842283Y-58939304D01*
X85296681Y-58712750D01*
X84705911Y-58712235D01*
X84159914Y-58937836D01*
X83741812Y-59355209D01*
X83730252Y-59383049D01*
X83719656Y-59357406D01*
X83302283Y-58939304D01*
X82756681Y-58712750D01*
X82165911Y-58712235D01*
X81619914Y-58937836D01*
X81201812Y-59355209D01*
X81190252Y-59383049D01*
X81179656Y-59357406D01*
X80762283Y-58939304D01*
X80216681Y-58712750D01*
X79625911Y-58712235D01*
X79079914Y-58937836D01*
X78661812Y-59355209D01*
X78435258Y-59900811D01*
X78434743Y-60491581D01*
X78660344Y-61037578D01*
X79077717Y-61455680D01*
X79623319Y-61682234D01*
X80214089Y-61682749D01*
X80760086Y-61457148D01*
X81178188Y-61039775D01*
X81189748Y-61011935D01*
X81200344Y-61037578D01*
X81617717Y-61455680D01*
X82163319Y-61682234D01*
X82754089Y-61682749D01*
X83300086Y-61457148D01*
X83718188Y-61039775D01*
X83729748Y-61011935D01*
X83740344Y-61037578D01*
X84157717Y-61455680D01*
X84703319Y-61682234D01*
X85294089Y-61682749D01*
X85540000Y-61581141D01*
X85540000Y-63313785D01*
X85296681Y-63212750D01*
X84705911Y-63212235D01*
X84623568Y-63246258D01*
X84239909Y-62862599D01*
X83993347Y-62697852D01*
X83702508Y-62640000D01*
X78200000Y-62640000D01*
X77909161Y-62697852D01*
X77909159Y-62697853D01*
X77909160Y-62697853D01*
X77662598Y-62862599D01*
X77460232Y-63064965D01*
X77295029Y-63064821D01*
X76914485Y-63222058D01*
X76623081Y-63512954D01*
X76465180Y-63893223D01*
X76464821Y-64304971D01*
X75685000Y-64304971D01*
X75685000Y-56293958D01*
X76635647Y-56293958D01*
X76715920Y-56545259D01*
X77271279Y-56746718D01*
X77861458Y-56720315D01*
X78284080Y-56545259D01*
X78364352Y-56293960D01*
X78365178Y-56294786D01*
X78364716Y-56823795D01*
X78613106Y-57424943D01*
X79072637Y-57885278D01*
X79673352Y-58134716D01*
X80323795Y-58135284D01*
X80924943Y-57886894D01*
X81385278Y-57427363D01*
X81634716Y-56826648D01*
X81635284Y-56176205D01*
X81386894Y-55575057D01*
X80927363Y-55114722D01*
X80326648Y-54865284D01*
X79676205Y-54864716D01*
X79075057Y-55113106D01*
X78984410Y-55203595D01*
X78970315Y-54888542D01*
X78795259Y-54465920D01*
X78543958Y-54385647D01*
X77679605Y-55250000D01*
X77693748Y-55264143D01*
X77514143Y-55443748D01*
X77500000Y-55429605D01*
X76635647Y-56293958D01*
X75685000Y-56293958D01*
X75685000Y-55021279D01*
X76003282Y-55021279D01*
X76029685Y-55611458D01*
X76204741Y-56034080D01*
X76456042Y-56114353D01*
X77320395Y-55250000D01*
X76456042Y-54385647D01*
X76204741Y-54465920D01*
X76003282Y-55021279D01*
X75685000Y-55021279D01*
X75685000Y-54206042D01*
X76635647Y-54206042D01*
X77500000Y-55070395D01*
X78364353Y-54206042D01*
X78284080Y-53954741D01*
X77728721Y-53753282D01*
X77138542Y-53779685D01*
X76715920Y-53954741D01*
X76635647Y-54206042D01*
X75685000Y-54206042D01*
X75685000Y-51044089D01*
X76014743Y-51044089D01*
X76240344Y-51590086D01*
X76657717Y-52008188D01*
X77203319Y-52234742D01*
X77794089Y-52235257D01*
X78340086Y-52009656D01*
X78758188Y-51592283D01*
X78899265Y-51252532D01*
X93627073Y-51252532D01*
X93725736Y-51519387D01*
X94335461Y-51745908D01*
X94985460Y-51721856D01*
X95474264Y-51519387D01*
X95572927Y-51252532D01*
X94600000Y-50279605D01*
X93627073Y-51252532D01*
X78899265Y-51252532D01*
X78984742Y-51046681D01*
X78984959Y-50797447D01*
X79072637Y-50885278D01*
X79673352Y-51134716D01*
X80323795Y-51135284D01*
X80924943Y-50886894D01*
X81385278Y-50427363D01*
X81631056Y-49835461D01*
X92954092Y-49835461D01*
X92978144Y-50485460D01*
X93180613Y-50974264D01*
X93447468Y-51072927D01*
X94420395Y-50100000D01*
X94779605Y-50100000D01*
X95752532Y-51072927D01*
X96019387Y-50974264D01*
X96223893Y-50423795D01*
X102964716Y-50423795D01*
X103213106Y-51024943D01*
X103672637Y-51485278D01*
X104273352Y-51734716D01*
X104923795Y-51735284D01*
X105524943Y-51486894D01*
X105985278Y-51027363D01*
X106234716Y-50426648D01*
X106235284Y-49776205D01*
X105986894Y-49175057D01*
X105527363Y-48714722D01*
X104926648Y-48465284D01*
X104276205Y-48464716D01*
X103675057Y-48713106D01*
X103214722Y-49172637D01*
X102965284Y-49773352D01*
X102964716Y-50423795D01*
X96223893Y-50423795D01*
X96245908Y-50364539D01*
X96221856Y-49714540D01*
X96019387Y-49225736D01*
X95752532Y-49127073D01*
X94779605Y-50100000D01*
X94420395Y-50100000D01*
X93447468Y-49127073D01*
X93180613Y-49225736D01*
X92954092Y-49835461D01*
X81631056Y-49835461D01*
X81634716Y-49826648D01*
X81635284Y-49176205D01*
X81540772Y-48947468D01*
X93627073Y-48947468D01*
X94600000Y-49920395D01*
X95572927Y-48947468D01*
X95474264Y-48680613D01*
X94864539Y-48454092D01*
X94214540Y-48478144D01*
X93725736Y-48680613D01*
X93627073Y-48947468D01*
X81540772Y-48947468D01*
X81386894Y-48575057D01*
X80937241Y-48124617D01*
X81385278Y-47677363D01*
X81634716Y-47076648D01*
X81635284Y-46426205D01*
X81386894Y-45825057D01*
X80927363Y-45364722D01*
X80326648Y-45115284D01*
X79676205Y-45114716D01*
X79075057Y-45363106D01*
X78984410Y-45453595D01*
X78970315Y-45138542D01*
X78873562Y-44904958D01*
X114864821Y-44904958D01*
X115022058Y-45285502D01*
X115036296Y-45299764D01*
X115023083Y-45312954D01*
X114865182Y-45693223D01*
X114864823Y-46104971D01*
X115022060Y-46485515D01*
X115312956Y-46776919D01*
X115693225Y-46934820D01*
X116104973Y-46935179D01*
X116485517Y-46777942D01*
X116603665Y-46660000D01*
X118385198Y-46660000D01*
X118964965Y-47239767D01*
X118964821Y-47404971D01*
X119122058Y-47785515D01*
X119412954Y-48076919D01*
X119793223Y-48234820D01*
X120204971Y-48235179D01*
X120585515Y-48077942D01*
X120876919Y-47787046D01*
X121034820Y-47406777D01*
X121035179Y-46995029D01*
X120877942Y-46614485D01*
X120587046Y-46323081D01*
X120206777Y-46165180D01*
X120039836Y-46165034D01*
X119709811Y-45835009D01*
X119904971Y-45835179D01*
X120285515Y-45677942D01*
X120576919Y-45387046D01*
X120734820Y-45006777D01*
X120735179Y-44595029D01*
X120577942Y-44214485D01*
X120287046Y-43923081D01*
X119906777Y-43765180D01*
X119495029Y-43764821D01*
X119114485Y-43922058D01*
X118996337Y-44040000D01*
X116703600Y-44040000D01*
X116487046Y-43823068D01*
X116106777Y-43665167D01*
X115695029Y-43664808D01*
X115314485Y-43822045D01*
X115023081Y-44112941D01*
X114865180Y-44493210D01*
X114864821Y-44904958D01*
X78873562Y-44904958D01*
X78795259Y-44715920D01*
X78543958Y-44635647D01*
X77679605Y-45500000D01*
X77693748Y-45514143D01*
X77514143Y-45693748D01*
X77500000Y-45679605D01*
X76635647Y-46543958D01*
X76715920Y-46795259D01*
X77271279Y-46996718D01*
X77861458Y-46970315D01*
X78284080Y-46795259D01*
X78364352Y-46543960D01*
X78365178Y-46544786D01*
X78364716Y-47073795D01*
X78613106Y-47674943D01*
X79062759Y-48125383D01*
X78614722Y-48572637D01*
X78365284Y-49173352D01*
X78364986Y-49514555D01*
X78342283Y-49491812D01*
X77796681Y-49265258D01*
X77205911Y-49264743D01*
X76659914Y-49490344D01*
X76241812Y-49907717D01*
X76015258Y-50453319D01*
X76014743Y-51044089D01*
X75685000Y-51044089D01*
X75685000Y-45271279D01*
X76003282Y-45271279D01*
X76029685Y-45861458D01*
X76204741Y-46284080D01*
X76456042Y-46364353D01*
X77320395Y-45500000D01*
X76456042Y-44635647D01*
X76204741Y-44715920D01*
X76003282Y-45271279D01*
X75685000Y-45271279D01*
X75685000Y-44456042D01*
X76635647Y-44456042D01*
X77500000Y-45320395D01*
X78364353Y-44456042D01*
X78284080Y-44204741D01*
X77728721Y-44003282D01*
X77138542Y-44029685D01*
X76715920Y-44204741D01*
X76635647Y-44456042D01*
X75685000Y-44456042D01*
X75685000Y-41127000D01*
X76014889Y-41127000D01*
X76014743Y-41294089D01*
X76240344Y-41840086D01*
X76657717Y-42258188D01*
X77203319Y-42484742D01*
X77794089Y-42485257D01*
X78340086Y-42259656D01*
X78758188Y-41842283D01*
X78984742Y-41296681D01*
X78984890Y-41127000D01*
X79000000Y-41127000D01*
X79048601Y-41117333D01*
X79052274Y-41114879D01*
X79072637Y-41135278D01*
X79673352Y-41384716D01*
X80323795Y-41385284D01*
X80924943Y-41136894D01*
X81385278Y-40677363D01*
X81634716Y-40076648D01*
X81635230Y-39487524D01*
X84585107Y-42437401D01*
X84831668Y-42602148D01*
X85122508Y-42660000D01*
X98100000Y-42660000D01*
X98390839Y-42602148D01*
X98637401Y-42437401D01*
X99939767Y-41135035D01*
X100075087Y-41135153D01*
X100200000Y-41160000D01*
X118800000Y-41160000D01*
X119090839Y-41102148D01*
X119299071Y-40963012D01*
X119312954Y-40976919D01*
X119693223Y-41134820D01*
X120104971Y-41135179D01*
X120485515Y-40977942D01*
X120776919Y-40687046D01*
X120845964Y-40520766D01*
X120980666Y-40655469D01*
X120923081Y-40712954D01*
X120765180Y-41093223D01*
X120764821Y-41504971D01*
X120922058Y-41885515D01*
X121212954Y-42176919D01*
X121593223Y-42334820D01*
X122004971Y-42335179D01*
X122385515Y-42177942D01*
X122676919Y-41887046D01*
X122834820Y-41506777D01*
X122835122Y-41160000D01*
X128100000Y-41160000D01*
X128390839Y-41102148D01*
X128637401Y-40937401D01*
X129214802Y-40360000D01*
X139028877Y-40360000D01*
X139122058Y-40585515D01*
X139412954Y-40876919D01*
X139793223Y-41034820D01*
X140204971Y-41035179D01*
X140585515Y-40877942D01*
X140876919Y-40587046D01*
X140949176Y-40413030D01*
X141012954Y-40476919D01*
X141393223Y-40634820D01*
X141804971Y-40635179D01*
X142185515Y-40477942D01*
X142476919Y-40187046D01*
X142634820Y-39806777D01*
X142635179Y-39395029D01*
X142610375Y-39334999D01*
X146618547Y-39334999D01*
X146722058Y-39585515D01*
X147012954Y-39876919D01*
X147393223Y-40034820D01*
X147804971Y-40035179D01*
X148185515Y-39877942D01*
X148476919Y-39587046D01*
X148634820Y-39206777D01*
X148635179Y-38795029D01*
X148579386Y-38660000D01*
X148877492Y-38660000D01*
X149168331Y-38602148D01*
X149414893Y-38437401D01*
X149703291Y-38149003D01*
X149783319Y-38182234D01*
X150374089Y-38182749D01*
X150920086Y-37957148D01*
X151338188Y-37539775D01*
X151564742Y-36994173D01*
X151565257Y-36403403D01*
X151451050Y-36127000D01*
X154315000Y-36127000D01*
X154315000Y-73971617D01*
G36*
X78107070Y-80209180D02*
X78106929Y-80370961D01*
X78060820Y-80417070D01*
X77899039Y-80416929D01*
X77786253Y-80304143D01*
X77800395Y-80290000D01*
X77786253Y-80275858D01*
X77890008Y-80172102D01*
X78058212Y-80160322D01*
X78107070Y-80209180D01*
X78107070Y-80209180D01*
G37*
X78107070Y-80209180D02*
X78106929Y-80370961D01*
X78060820Y-80417070D01*
X77899039Y-80416929D01*
X77786253Y-80304143D01*
X77800395Y-80290000D01*
X77786253Y-80275858D01*
X77890008Y-80172102D01*
X78058212Y-80160322D01*
X78107070Y-80209180D01*
G36*
X78060961Y-78893071D02*
X78107070Y-78939180D01*
X78106929Y-79100961D01*
X78069992Y-79137898D01*
X77901788Y-79149678D01*
X77786253Y-79034143D01*
X77800395Y-79020000D01*
X77786253Y-79005858D01*
X77899180Y-78892930D01*
X78060961Y-78893071D01*
X78060961Y-78893071D01*
G37*
X78060961Y-78893071D02*
X78107070Y-78939180D01*
X78106929Y-79100961D01*
X78069992Y-79137898D01*
X77901788Y-79149678D01*
X77786253Y-79034143D01*
X77800395Y-79020000D01*
X77786253Y-79005858D01*
X77899180Y-78892930D01*
X78060961Y-78893071D01*
M02*
