G04 #@! TF.GenerationSoftware,KiCad,Pcbnew,(2017-07-16 revision e797af331)-makepkg*
G04 #@! TF.CreationDate,2017-08-01T20:13:45+01:00*
G04 #@! TF.ProjectId,smalltime,736D616C6C74696D652E6B696361645F,rev?*
G04 #@! TF.SameCoordinates,Original
G04 #@! TF.FileFunction,Soldermask,Bot*
G04 #@! TF.FilePolarity,Negative*
%FSLAX46Y46*%
G04 Gerber Fmt 4.6, Leading zero omitted, Abs format (unit mm)*
G04 Created by KiCad (PCBNEW (2017-07-16 revision e797af331)-makepkg) date 08/01/17 20:13:45*
%MOMM*%
%LPD*%
G01*
G04 APERTURE LIST*
%ADD10C,1.524000*%
%ADD11C,1.700000*%
%ADD12C,1.016000*%
%ADD13C,2.000000*%
%ADD14O,1.250000X1.000000*%
%ADD15O,1.900000X1.000000*%
%ADD16C,1.000000*%
%ADD17R,1.800000X1.800000*%
%ADD18C,1.800000*%
G04 APERTURE END LIST*
D10*
X99300000Y-83300000D03*
X99700000Y-80400000D03*
X96700000Y-83300000D03*
D11*
X139920000Y-36697492D03*
X142460000Y-36697492D03*
X145000000Y-36697492D03*
X147540000Y-36697492D03*
X150080000Y-36697492D03*
X150080000Y-60197492D03*
X147540000Y-60197492D03*
X145000000Y-60197492D03*
X142460000Y-60197492D03*
X139920000Y-60197492D03*
X130080000Y-88197492D03*
X127540000Y-88197492D03*
X125000000Y-88197492D03*
X122460000Y-88197492D03*
X119920000Y-88197492D03*
X119920000Y-64697492D03*
X122460000Y-64697492D03*
X125000000Y-64697492D03*
X127540000Y-64697492D03*
X130080000Y-64697492D03*
X99920000Y-36697492D03*
X102460000Y-36697492D03*
X105000000Y-36697492D03*
X107540000Y-36697492D03*
X110080000Y-36697492D03*
X110080000Y-60197492D03*
X107540000Y-60197492D03*
X105000000Y-60197492D03*
X102460000Y-60197492D03*
X99920000Y-60197492D03*
X79920000Y-36697492D03*
X82460000Y-36697492D03*
X85000000Y-36697492D03*
X87540000Y-36697492D03*
X90080000Y-36697492D03*
X90080000Y-60197492D03*
X87540000Y-60197492D03*
X85000000Y-60197492D03*
X82460000Y-60197492D03*
X79920000Y-60197492D03*
X90080000Y-88197492D03*
X87540000Y-88197492D03*
X85000000Y-88197492D03*
X82460000Y-88197492D03*
X79920000Y-88197492D03*
X79920000Y-64697492D03*
X82460000Y-64697492D03*
X85000000Y-64697492D03*
X87540000Y-64697492D03*
X90080000Y-64697492D03*
X110080000Y-88197492D03*
X107540000Y-88197492D03*
X105000000Y-88197492D03*
X102460000Y-88197492D03*
X99920000Y-88197492D03*
X99920000Y-64697492D03*
X102460000Y-64697492D03*
X105000000Y-64697492D03*
X107540000Y-64697492D03*
X110080000Y-64697492D03*
X150080000Y-88197492D03*
X147540000Y-88197492D03*
X145000000Y-88197492D03*
X142460000Y-88197492D03*
X139920000Y-88197492D03*
X139920000Y-64697492D03*
X142460000Y-64697492D03*
X145000000Y-64697492D03*
X147540000Y-64697492D03*
X150080000Y-64697492D03*
X119920000Y-36697492D03*
X122460000Y-36697492D03*
X125000000Y-36697492D03*
X127540000Y-36697492D03*
X130080000Y-36697492D03*
X130080000Y-60197492D03*
X127540000Y-60197492D03*
X125000000Y-60197492D03*
X122460000Y-60197492D03*
X119920000Y-60197492D03*
D12*
X77980000Y-77750000D03*
X79250000Y-77750000D03*
X77980000Y-79020000D03*
X79250000Y-79020000D03*
X77980000Y-80290000D03*
X79250000Y-80290000D03*
X77980000Y-81560000D03*
X79250000Y-81560000D03*
X77980000Y-82830000D03*
X79250000Y-82830000D03*
D13*
X94600000Y-50100000D03*
X104600000Y-50100000D03*
D14*
X150675000Y-77025000D03*
X150675000Y-81475000D03*
D15*
X153675000Y-75075000D03*
X153675000Y-83425000D03*
D16*
X78355000Y-68710000D03*
X77339000Y-73790000D03*
X79371000Y-73790000D03*
D17*
X93800000Y-39000000D03*
D18*
X96340000Y-39000000D03*
D13*
X80000000Y-39750000D03*
X80000000Y-46750000D03*
D11*
X77500000Y-41000000D03*
X77500000Y-45500000D03*
D13*
X80000000Y-49500000D03*
X80000000Y-56500000D03*
D11*
X77500000Y-50750000D03*
X77500000Y-55250000D03*
M02*
